{
.appVersion = "3343";
.formatVersion = 3;
customParameters = (
{
name = vendorID;
value = CORE;
},
{
name = panose;
value = (
2,
0,
6,
9,
0,
0,
0,
0,
0,
0
);
},
{
name = unicodeRanges;
value = (
0,
1,
2,
3,
5,
7,
34
);
},
{
name = fsType;
value = (
);
},
{
name = glyphOrder;
value = (
.notdef,
space,
A,
B,
C,
D,
E,
F,
G,
H,
I,
J,
K,
L,
M,
N,
O,
P,
Q,
R,
S,
T,
U,
V,
W,
X,
Y,
Z,
a,
b,
c,
d,
e,
f,
g,
h,
i,
j,
k,
l,
m,
n,
o,
p,
q,
r,
s,
t,
u,
v,
w,
x,
y,
z,
zero,
one,
two,
three,
four,
five,
six,
seven,
eight,
nine
);
},
{
name = isFixedPitch;
value = 1;
}
);
date = "2019-12-31 12:00:00 +0000";
familyName = Machine;
fontMaster = (
{
customParameters = (
{
name = typoAscender;
value = 2146;
},
{
name = typoDescender;
value = -555;
},
{
name = typoLineGap;
value = 0;
},
{
name = winAscent;
value = 2146;
},
{
name = winDescent;
value = 555;
},
{
name = hheaAscender;
value = 2146;
},
{
name = hheaDescender;
value = -555;
},
{
name = strikeoutPosition;
value = 512;
},
{
name = strikeoutSize;
value = 102;
},
{
name = "prep Table Assembly";
value = "PUSHW[ ]	/* 1 value pushed */
511
SCANCTRL[ ]	/* ScanConversionControl */
PUSHB[ ]	/* 1 value pushed */
4
SCANTYPE[ ]	/* ScanType */";
}
);
id = m01;
metricValues = (
{
pos = 2146;
},
{
pos = 1456;
},
{
pos = 1082;
},
{
},
{
pos = -555;
},
{
}
);
name = Regular;
userData = {
GSCornerRadius = 120;
};
}
);
glyphs = (
{
glyphname = .notdef;
lastChange = "2025-02-28 21:44:13 +0000";
layers = (
{
layerId = m01;
shapes = (
{
closed = 1;
nodes = (
(166,1452,l),
(166,0,l),
(1062,0,l),
(1062,1452,l)
);
},
{
closed = 1;
nodes = (
(272,1199,l),
(535,707,l),
(272,207,l)
);
},
{
closed = 1;
nodes = (
(878,1340,l),
(611,851,l),
(343,1340,l)
);
},
{
closed = 1;
nodes = (
(611,567,l),
(864,112,l),
(357,112,l)
);
},
{
closed = 1;
nodes = (
(955,1212,l),
(955,196,l),
(686,707,l)
);
}
);
userData = {
assembly = "NPUSHB[ ]	/* 49 values pushed */
15 14 13 11 6 5 6 3 2 1 76 0 1 0 2 3 1 2 103 4 1 3 0 0 3 87 4 1 3 3 0 95 0 0 3 0 79 10 10 10 12 10 12 21 17 16 5 6 25
CALL[ ]	/* CallFunction */";
};
width = 1229;
}
);
note = .notdef;
},
{
glyphname = A;
lastChange = "2025-02-27 17:28:39 +0000";
layers = (
{
layerId = m01;
shapes = (
{
closed = 1;
nodes = (
(256,0,l),
(71,0,l),
(541,1456,l),
(696,1456,l),
(1158,0,l),
(974,0,l),
(859,377,l),
(373,377,l)
);
},
{
closed = 1;
nodes = (
(618,1170,l),
(423,538,l),
(810,538,l)
);
}
);
userData = {
assembly = "PUSHB[ ]	/* 6 values pushed */
2 1 0 1 1 76
MPPEM[ ]	/* MeasurePixelPerEm */
PUSHB[ ]	/* 1 value pushed */
34
LT[ ]	/* LessThan */
IF[ ]	/* If */
NPUSHB[ ]	/* 21 values pushed */
0 0 0 3 2 0 3 104 0 1 1 30 77 5 4 2 2 2 31 2 78
ELSE[ ]	/* Else */
NPUSHB[ ]	/* 21 values pushed */
0 1 0 1 133 0 0 0 3 2 0 3 104 5 4 2 2 2 31 2 78
EIF[ ]	/* EndIf */
NPUSHB[ ]	/* 13 values pushed */
3 3 3 10 3 10 17 17 19 16 6 8 26
CALL[ ]	/* CallFunction */";
};
width = 1229;
}
);
note = A;
unicode = 65;
},
{
glyphname = B;
lastChange = "2025-02-27 17:29:02 +0000";
layers = (
{
layerId = m01;
shapes = (
{
closed = 1;
nodes = (
(574,1456,ls),
(664,1455,o),
(836,1410,o),
(903,1363,qs),
(970,1316,o),
(1050,1170,o),
(1049,1068,qs),
(1048,1011,o),
(1013,917,o),
(983,880,qs),
(952,842,o),
(877,790,o),
(824,767,q),
(824,764,l),
(879,751,o),
(981,683,o),
(1014,642,qs),
(1049,597,o),
(1088,485,o),
(1088,420,qs),
(1089,318,o),
(1009,162,o),
(942,110,qs),
(875,57,o),
(700,1,o),
(607,0,qs),
(141,0,l),
(141,1456,l)
);
},
{
closed = 1;
nodes = (
(612,157,ls),
(670,158,o),
(774,195,o),
(814,228,qs),
(854,261,o),
(901,357,o),
(901,418,qs),
(902,480,o),
(859,576,o),
(821,610,qs),
(783,643,o),
(681,679,o),
(622,681,qs),
(327,681,l),
(327,157,l)
);
},
{
closed = 1;
nodes = (
(637,836,o),
(737,867,o),
(776,897,qs),
(815,926,o),
(863,1012,o),
(863,1069,qs),
(863,1130,o),
(816,1216,o),
(777,1244,qs),
(737,1271,o),
(634,1297,o),
(580,1298,qs),
(327,1298,l),
(327,835,l),
(585,835,ls)
);
}
);
userData = {
assembly = "PUSHB[ ]	/* 6 values pushed */
34 1 3 0 1 76
MPPEM[ ]	/* MeasurePixelPerEm */
PUSHB[ ]	/* 1 value pushed */
39
LT[ ]	/* LessThan */
IF[ ]	/* If */
NPUSHB[ ]	/* 30 values pushed */
0 0 0 3 2 0 3 103 0 1 1 4 95 0 4 4 30 77 0 2 2 5 95 6 1 5 5 31 5 78
ELSE[ ]	/* Else */
NPUSHB[ ]	/* 28 values pushed */
0 4 0 1 0 4 1 103 0 0 0 3 2 0 3 103 0 2 2 5 95 6 1 5 5 31 5 78
EIF[ ]	/* EndIf */
NPUSHB[ ]	/* 14 values pushed */
23 23 23 43 23 42 34 38 33 39 32 7 8 27
CALL[ ]	/* CallFunction */";
};
width = 1229;
}
);
note = B;
unicode = 66;
},
{
glyphname = C;
lastChange = "2025-02-28 10:46:14 +0000";
layers = (
{
layerId = m01;
shapes = (
{
closed = 1;
nodes = (
(1028,168,o),
(966,108,qs),
(903,47,o),
(732,-20,o),
(627,-20,qs),
(537,-20,o),
(390,31,o),
(333,76,qs),
(275,121,o),
(192,243,o),
(165,315,qs),
(137,387,o),
(110,545,o),
(109,626,qs),
(109,829,ls),
(110,910,o),
(137,1068,o),
(165,1140,qs),
(192,1212,o),
(275,1335,o),
(333,1380,qs),
(390,1425,o),
(536,1476,o),
(627,1476,qs),
(736,1476,o),
(908,1409,o),
(970,1348,qs),
(1032,1286,o),
(1107,1114,o),
(1119,1010,q),
(934,1010,l),
(925,1076,o),
(881,1190,o),
(844,1233,qs),
(807,1276,o),
(700,1325,o),
(627,1325,qs),
(561,1325,o),
(460,1282,o),
(424,1245,qs),
(387,1208,o),
(338,1110,o),
(323,1055,qs),
(308,1000,o),
(295,885,o),
(295,831,qs),
(295,626,ls),
(295,572,o),
(308,457,o),
(323,402,qs),
(338,346,o),
(386,248,o),
(423,211,qs),
(460,173,o),
(560,130,o),
(627,130,qs),
(700,130,o),
(807,176,o),
(844,218,qs),
(881,259,o),
(925,372,o),
(934,438,q),
(1119,438,l),
(1106,337,o)
);
}
);
userData = {
assembly = "MPPEM[ ]	/* MeasurePixelPerEm */
PUSHB[ ]	/* 1 value pushed */
39
LT[ ]	/* LessThan */
IF[ ]	/* If */
NPUSHB[ ]	/* 36 values pushed */
0 3 4 0 4 3 0 128 0 0 5 4 0 5 126 0 4 4 2 97 0 2 2 36 77 0 5 5 1 97 0 1 1 31 1 78
ELSE[ ]	/* Else */
NPUSHB[ ]	/* 34 values pushed */
0 3 4 0 4 3 0 128 0 0 5 4 0 5 126 0 2 0 4 3 2 4 105 0 5 5 1 97 0 1 1 31 1 78
EIF[ ]	/* EndIf */
NPUSHB[ ]	/* 9 values pushed */
39 36 19 42 51 16 6 8 28
CALL[ ]	/* CallFunction */";
};
width = 1229;
}
);
note = C;
unicode = 67;
},
{
glyphname = D;
lastChange = "2025-02-27 17:29:52 +0000";
layers = (
{
layerId = m01;
shapes = (
{
closed = 1;
nodes = (
(461,1456,ls),
(546,1455,o),
(697,1422,o),
(761,1392,qs),
(850,1351,o),
(987,1218,o),
(1028,1131,qs),
(1065,1057,o),
(1104,881,o),
(1105,781,qs),
(1105,674,ls),
(1105,578,o),
(1068,406,o),
(1033,334,qs),
(997,259,o),
(887,137,o),
(819,94,qs),
(747,49,o),
(566,1,o),
(461,0,qs),
(124,0,l),
(124,1456,l)
);
},
{
closed = 1;
nodes = (
(461,151,ls),
(541,152,o),
(672,190,o),
(723,225,qs),
(777,261,o),
(856,366,o),
(879,431,qs),
(899,484,o),
(919,607,o),
(920,674,qs),
(920,783,ls),
(919,851,o),
(898,976,o),
(877,1030,qs),
(850,1100,o),
(759,1213,o),
(693,1248,qs),
(646,1274,o),
(530,1303,o),
(461,1304,qs),
(312,1304,l),
(312,151,l)
);
}
);
userData = {
assembly = "PUSHB[ ]	/* 6 values pushed */
14 1 0 1 1 76
MPPEM[ ]	/* MeasurePixelPerEm */
PUSHB[ ]	/* 1 value pushed */
39
LT[ ]	/* LessThan */
IF[ ]	/* If */
NPUSHB[ ]	/* 17 values pushed */
0 1 1 30 77 0 0 0 2 96 3 1 2 2 31 2 78
ELSE[ ]	/* Else */
NPUSHB[ ]	/* 17 values pushed */
0 1 0 1 133 0 0 0 2 96 3 1 2 2 31 2 78
EIF[ ]	/* EndIf */
NPUSHB[ ]	/* 11 values pushed */
15 15 15 25 15 24 46 32 4 8 24
CALL[ ]	/* CallFunction */";
};
width = 1229;
}
);
note = D;
unicode = 68;
},
{
glyphname = E;
lastChange = "2025-02-27 17:30:11 +0000";
layers = (
{
layerId = m01;
shapes = (
{
closed = 1;
nodes = (
(352,157,l),
(1061,157,l),
(1061,0,l),
(167,0,l),
(167,1456,l),
(1052,1456,l),
(1052,1298,l),
(352,1298,l),
(352,830,l),
(960,830,l),
(960,673,l),
(352,673,l)
);
}
);
userData = {
assembly = "MPPEM[ ]	/* MeasurePixelPerEm */
PUSHB[ ]	/* 1 value pushed */
39
LT[ ]	/* LessThan */
IF[ ]	/* If */
NPUSHB[ ]	/* 30 values pushed */
0 2 0 3 4 2 3 103 0 1 1 0 95 0 0 0 30 77 0 4 4 5 95 6 1 5 5 31 5 78
ELSE[ ]	/* Else */
NPUSHB[ ]	/* 28 values pushed */
0 0 0 1 2 0 1 103 0 2 0 3 4 2 3 103 0 4 4 5 95 6 1 5 5 31 5 78
EIF[ ]	/* EndIf */
NPUSHB[ ]	/* 14 values pushed */
0 0 0 11 0 11 17 17 17 17 17 7 8 27
CALL[ ]	/* CallFunction */";
};
width = 1229;
}
);
note = E;
unicode = 69;
},
{
glyphname = F;
lastChange = "2025-02-27 17:41:43 +0000";
layers = (
{
layerId = m01;
shapes = (
{
closed = 1;
nodes = (
(354,0,l),
(167,0,l),
(167,1456,l),
(1061,1456,l),
(1061,1298,l),
(354,1298,l),
(354,800,l),
(960,800,l),
(960,643,l),
(354,643,l)
);
}
);
userData = {
assembly = "MPPEM[ ]	/* MeasurePixelPerEm */
PUSHB[ ]	/* 1 value pushed */
39
LT[ ]	/* LessThan */
IF[ ]	/* If */
NPUSHB[ ]	/* 25 values pushed */
0 2 0 3 4 2 3 103 0 1 1 0 95 0 0 0 30 77 5 1 4 4 31 4 78
ELSE[ ]	/* Else */
NPUSHB[ ]	/* 23 values pushed */
0 0 0 1 2 0 1 103 0 2 0 3 4 2 3 103 5 1 4 4 31 4 78
EIF[ ]	/* EndIf */
NPUSHB[ ]	/* 13 values pushed */
0 0 0 9 0 9 17 17 17 17 6 8 26
CALL[ ]	/* CallFunction */";
};
width = 1229;
}
);
note = F;
unicode = 70;
},
{
glyphname = G;
lastChange = "2025-02-27 17:30:55 +0000";
layers = (
{
layerId = m01;
shapes = (
{
closed = 1;
nodes = (
(1012,86,o),
(971,62,qs),
(901,20,o),
(739,-21,o),
(650,-20,qs),
(560,-19,o),
(409,34,o),
(349,81,qs),
(289,127,o),
(199,253,o),
(169,327,qs),
(138,400,o),
(107,561,o),
(106,643,qs),
(106,812,ls),
(107,893,o),
(134,1054,o),
(162,1128,qs),
(190,1202,o),
(274,1329,o),
(333,1376,qs),
(391,1422,o),
(539,1476,o),
(631,1476,qs),
(733,1476,o),
(905,1413,o),
(969,1355,qs),
(1033,1296,o),
(1111,1131,o),
(1120,1029,q),
(937,1029,l),
(926,1092,o),
(880,1199,o),
(843,1237,qs),
(805,1275,o),
(701,1318,o),
(632,1318,qs),
(566,1318,o),
(464,1273,o),
(426,1235,qs),
(388,1197,o),
(338,1096,o),
(322,1040,qs),
(306,984,o),
(292,868,o),
(292,814,qs),
(292,643,ls),
(293,588,o),
(310,471,o),
(328,415,qs),
(346,359,o),
(402,259,o),
(442,221,qs),
(481,183,o),
(585,138,o),
(651,137,qs),
(689,136,o),
(772,144,o),
(811,156,qs),
(850,168,o),
(918,209,o),
(941,242,q),
(943,569,l),
(647,569,l),
(647,725,l),
(1119,725,l),
(1122,191,l),
(1088,151,o)
);
}
);
userData = {
assembly = "NPUSHB[ ]	/* 10 values pushed */
36 1 6 0 4 1 2 6 2 76
MPPEM[ ]	/* MeasurePixelPerEm */
PUSHB[ ]	/* 1 value pushed */
39
LT[ ]	/* LessThan */
IF[ ]	/* If */
NPUSHB[ ]	/* 37 values pushed */
0 4 5 1 5 4 1 128 0 1 0 0 6 1 0 103 0 5 5 3 97 0 3 3 36 77 0 6 6 2 97 0 2 2 31 2 78
ELSE[ ]	/* Else */
NPUSHB[ ]	/* 35 values pushed */
0 4 5 1 5 4 1 128 0 3 0 5 4 3 5 105 0 1 0 0 6 1 0 103 0 6 6 2 97 0 2 2 31 2 78
EIF[ ]	/* EndIf */
NPUSHB[ ]	/* 10 values pushed */
38 34 19 42 34 17 16 7 8 29
CALL[ ]	/* CallFunction */";
};
width = 1229;
}
);
note = G;
unicode = 71;
},
{
glyphname = H;
lastChange = "2025-02-27 17:31:09 +0000";
layers = (
{
layerId = m01;
shapes = (
{
closed = 1;
nodes = (
(912,673,l),
(315,673,l),
(315,0,l),
(141,0,l),
(141,1456,l),
(315,1456,l),
(315,830,l),
(912,830,l),
(912,1456,l),
(1087,1456,l),
(1087,0,l),
(912,0,l)
);
}
);
userData = {
assembly = "MPPEM[ ]	/* MeasurePixelPerEm */
PUSHB[ ]	/* 1 value pushed */
39
LT[ ]	/* LessThan */
IF[ ]	/* If */
NPUSHB[ ]	/* 22 values pushed */
0 1 0 4 3 1 4 103 2 1 0 0 30 77 6 5 2 3 3 31 3 78
ELSE[ ]	/* Else */
NPUSHB[ ]	/* 22 values pushed */
0 1 0 4 3 1 4 103 2 1 0 0 3 95 6 5 2 3 3 31 3 78
EIF[ ]	/* EndIf */
NPUSHB[ ]	/* 14 values pushed */
0 0 0 11 0 11 17 17 17 17 17 7 8 27
CALL[ ]	/* CallFunction */";
};
width = 1229;
}
);
note = H;
unicode = 72;
},
{
glyphname = I;
lastChange = "2025-02-28 21:42:29 +0000";
layers = (
{
layerId = m01;
shapes = (
{
closed = 1;
nodes = (
(974,1295,l),
(705,1295,l),
(705,160,l),
(974,160,l),
(974,0,l),
(254,0,l),
(254,160,l),
(515,160,l),
(515,1295,l),
(254,1295,l),
(254,1456,l),
(974,1456,l)
);
}
);
userData = {
assembly = "MPPEM[ ]	/* MeasurePixelPerEm */
PUSHB[ ]	/* 1 value pushed */
39
LT[ ]	/* LessThan */
IF[ ]	/* If */
NPUSHB[ ]	/* 24 values pushed */
3 1 1 1 2 95 0 2 2 30 77 4 1 0 0 5 95 6 1 5 5 31 5 78
ELSE[ ]	/* Else */
NPUSHB[ ]	/* 22 values pushed */
0 2 3 1 1 0 2 1 103 4 1 0 0 5 95 6 1 5 5 31 5 78
EIF[ ]	/* EndIf */
NPUSHB[ ]	/* 14 values pushed */
0 0 0 11 0 11 17 17 17 17 17 7 8 27
CALL[ ]	/* CallFunction */";
};
width = 1229;
}
);
note = I;
unicode = 73;
},
{
glyphname = J;
lastChange = "2025-03-02 10:55:38 +0000";
layers = (
{
layerId = m01;
shapes = (
{
closed = 1;
nodes = (
(1088,443,ls),
(1086,342,o),
(1013,172,o),
(950,111,qs),
(887,49,o),
(716,-20,o),
(615,-20,qs),
(513,-20,o),
(346,42,o),
(285,100,qs),
(223,157,o),
(149,320,o),
(140,421,q),
(328,421,l),
(331,360,o),
(374,256,o),
(411,218,qs),
(448,179,o),
(551,137,o),
(615,137,qs),
(681,137,o),
(785,186,o),
(822,228,qs),
(858,270,o),
(899,381,o),
(899,443,qs),
(899,1267,l),
(615,1267,l),
(615,1456,l),
(1088,1456,l)
);
}
);
userData = {
assembly = "MPPEM[ ]	/* MeasurePixelPerEm */
PUSHB[ ]	/* 1 value pushed */
36
LT[ ]	/* LessThan */
IF[ ]	/* If */
NPUSHB[ ]	/* 25 values pushed */
0 1 3 2 3 1 2 128 4 1 3 3 30 77 0 2 2 0 98 0 0 0 31 0 78
ELSE[ ]	/* Else */
NPUSHB[ ]	/* 22 values pushed */
4 1 3 1 3 133 0 1 2 1 133 0 2 2 0 98 0 0 0 31 0 78
EIF[ ]	/* EndIf */
NPUSHB[ ]	/* 12 values pushed */
0 0 0 18 0 18 50 20 51 5 8 25
CALL[ ]	/* CallFunction */";
};
width = 1229;
}
);
note = J;
unicode = 74;
},
{
glyphname = K;
lastChange = "2025-02-28 17:44:50 +0000";
layers = (
{
layerId = m01;
shapes = (
{
closed = 1;
nodes = (
(290,0,l),
(101,0,l),
(101,1456,l),
(290,1456,l),
(290,748,l),
(858,1456,l),
(1083,1456,l),
(497,748,l),
(1127,0,l),
(892,0,l),
(375,605,l),
(290,492,l)
);
}
);
userData = {
assembly = "PUSHB[ ]	/* 8 values pushed */
8 5 2 3 2 0 1 76
MPPEM[ ]	/* MeasurePixelPerEm */
PUSHB[ ]	/* 1 value pushed */
39
LT[ ]	/* LessThan */
IF[ ]	/* If */
NPUSHB[ ]	/* 13 values pushed */
1 1 0 0 30 77 3 1 2 2 31 2 78
ELSE[ ]	/* Else */
NPUSHB[ ]	/* 13 values pushed */
1 1 0 0 2 95 3 1 2 2 31 2 78
EIF[ ]	/* EndIf */
PUSHB[ ]	/* 7 values pushed */
18 18 18 16 4 8 26
CALL[ ]	/* CallFunction */";
};
width = 1229;
}
);
note = K;
unicode = 75;
},
{
glyphname = L;
lastChange = "2025-03-01 22:57:18 +0000";
layers = (
{
layerId = m01;
shapes = (
{
closed = 1;
nodes = (
(878,364,l),
(878,157,l),
(351,157,l),
(351,1456,l),
(166,1456,l),
(166,0,l),
(1063,0,l),
(1063,364,l)
);
}
);
userData = {
assembly = "MPPEM[ ]	/* MeasurePixelPerEm */
PUSHB[ ]	/* 1 value pushed */
39
LT[ ]	/* LessThan */
IF[ ]	/* If */
NPUSHB[ ]	/* 17 values pushed */
0 0 0 30 77 0 1 1 2 96 3 1 2 2 31 2 78
ELSE[ ]	/* Else */
NPUSHB[ ]	/* 17 values pushed */
0 0 1 0 133 0 1 1 2 96 3 1 2 2 31 2 78
EIF[ ]	/* EndIf */
NPUSHB[ ]	/* 11 values pushed */
0 0 0 5 0 5 17 17 4 8 24
CALL[ ]	/* CallFunction */";
};
width = 1229;
}
);
note = L;
unicode = 76;
},
{
glyphname = M;
lastChange = "2025-02-27 17:34:37 +0000";
layers = (
{
layerId = m01;
shapes = (
{
closed = 1;
nodes = (
(860,1456,l),
(1090,1456,l),
(1090,0,l),
(910,0,l),
(910,581,l),
(925,1189,l),
(656,405,l),
(550,405,l),
(303,1168,l),
(318,581,l),
(318,0,l),
(138,0,l),
(138,1456,l),
(367,1456,l),
(604,728,l)
);
}
);
userData = {
assembly = "PUSHB[ ]	/* 8 values pushed */
11 8 3 3 3 0 1 76
MPPEM[ ]	/* MeasurePixelPerEm */
PUSHB[ ]	/* 1 value pushed */
39
LT[ ]	/* LessThan */
IF[ ]	/* If */
NPUSHB[ ]	/* 22 values pushed */
0 3 0 2 0 3 2 128 1 1 0 0 30 77 5 4 2 2 2 31 2 78
ELSE[ ]	/* Else */
NPUSHB[ ]	/* 22 values pushed */
0 3 0 2 0 3 2 128 1 1 0 0 2 95 5 4 2 2 2 31 2 78
EIF[ ]	/* EndIf */
NPUSHB[ ]	/* 13 values pushed */
0 0 0 12 0 12 18 17 18 17 6 8 26
CALL[ ]	/* CallFunction */";
};
width = 1229;
}
);
note = M;
unicode = 77;
},
{
glyphname = N;
lastChange = "2025-02-27 17:34:50 +0000";
layers = (
{
layerId = m01;
shapes = (
{
closed = 1;
nodes = (
(333,1088,l),
(330,0,l),
(143,0,l),
(143,1456,l),
(331,1456,l),
(896,370,l),
(899,1456,l),
(1086,1456,l),
(1086,0,l),
(898,0,l)
);
}
);
userData = {
assembly = "PUSHB[ ]	/* 7 values pushed */
8 3 2 2 0 1 76
MPPEM[ ]	/* MeasurePixelPerEm */
PUSHB[ ]	/* 1 value pushed */
39
LT[ ]	/* LessThan */
IF[ ]	/* If */
NPUSHB[ ]	/* 14 values pushed */
1 1 0 0 30 77 4 3 2 2 2 31 2 78
ELSE[ ]	/* Else */
NPUSHB[ ]	/* 14 values pushed */
1 1 0 0 2 95 4 3 2 2 2 31 2 78
EIF[ ]	/* EndIf */
NPUSHB[ ]	/* 12 values pushed */
0 0 0 9 0 9 17 18 17 5 8 25
CALL[ ]	/* CallFunction */";
};
width = 1229;
}
);
note = N;
unicode = 78;
},
{
glyphname = O;
lastChange = "2025-02-27 17:35:08 +0000";
layers = (
{
layerId = m01;
shapes = (
{
closed = 1;
nodes = (
(1096,407,o),
(1070,333,qs),
(1044,259,o),
(963,131,o),
(907,83,qs),
(851,35,o),
(706,-20,o),
(616,-20,qs),
(526,-20,o),
(381,35,o),
(325,83,qs),
(269,131,o),
(187,260,o),
(161,334,qs),
(134,408,o),
(108,566,o),
(107,644,qs),
(107,810,ls),
(108,888,o),
(133,1047,o),
(160,1121,qs),
(186,1195,o),
(267,1324,o),
(323,1373,qs),
(379,1421,o),
(524,1476,o),
(614,1476,qs),
(704,1476,o),
(850,1421,o),
(906,1373,qs),
(962,1325,o),
(1043,1196,o),
(1070,1122,qs),
(1096,1048,o),
(1121,888,o),
(1122,810,qs),
(1122,644,ls),
(1121,566,o)
);
},
{
closed = 1;
nodes = (
(926,977,o),
(912,1033,qs),
(897,1088,o),
(849,1189,o),
(813,1228,qs),
(777,1266,o),
(679,1311,o),
(614,1311,qs),
(550,1311,o),
(452,1265,o),
(416,1227,qs),
(380,1188,o),
(332,1087,o),
(318,1032,qs),
(303,976,o),
(290,863,o),
(289,812,qs),
(289,644,ls),
(290,593,o),
(303,479,o),
(318,424,qs),
(333,368,o),
(381,266,o),
(417,228,qs),
(453,189,o),
(551,143,o),
(616,143,qs),
(681,143,o),
(780,189,o),
(816,228,qs),
(851,266,o),
(898,367,o),
(913,423,qs),
(927,478,o),
(938,592,o),
(939,644,qs),
(939,812,ls),
(938,864,o)
);
}
);
userData = {
assembly = "MPPEM[ ]	/* MeasurePixelPerEm */
PUSHB[ ]	/* 1 value pushed */
36
LT[ ]	/* LessThan */
IF[ ]	/* If */
NPUSHB[ ]	/* 23 values pushed */
0 0 0 2 97 0 2 2 36 77 4 1 1 1 3 97 5 1 3 3 31 3 78
ELSE[ ]	/* Else */
NPUSHB[ ]	/* 21 values pushed */
0 2 0 0 1 2 0 105 4 1 1 1 3 97 5 1 3 3 31 3 78
EIF[ ]	/* EndIf */
NPUSHB[ ]	/* 18 values pushed */
16 16 0 0 16 31 16 30 24 22 0 15 0 14 38 6 8 23
CALL[ ]	/* CallFunction */";
};
width = 1229;
}
);
note = O;
unicode = 79;
},
{
glyphname = P;
lastChange = "2025-02-27 17:35:41 +0000";
layers = (
{
layerId = m01;
shapes = (
{
closed = 1;
nodes = (
(137,0,l),
(137,1456,l),
(609,1456,ls),
(707,1454,o),
(882,1396,o),
(948,1341,qs),
(1014,1286,o),
(1091,1124,o),
(1091,1019,qs),
(1091,914,o),
(1014,753,o),
(948,698,qs),
(882,643,o),
(707,585,o),
(609,584,qs),
(322,584,l),
(322,0,l)
);
},
{
closed = 1;
nodes = (
(673,737,o),
(781,776,o),
(821,812,qs),
(861,848,o),
(906,951,o),
(906,1017,qs),
(906,1083,o),
(861,1189,o),
(822,1226,qs),
(782,1263,o),
(673,1303,o),
(609,1304,qs),
(322,1304,l),
(322,736,l),
(609,736,ls)
);
}
);
userData = {
assembly = "MPPEM[ ]	/* MeasurePixelPerEm */
PUSHB[ ]	/* 1 value pushed */
39
LT[ ]	/* LessThan */
IF[ ]	/* If */
NPUSHB[ ]	/* 25 values pushed */
0 0 0 3 4 0 3 103 0 1 1 2 95 0 2 2 30 77 5 1 4 4 31 4 78
ELSE[ ]	/* Else */
NPUSHB[ ]	/* 23 values pushed */
0 2 0 1 0 2 1 103 0 0 0 3 4 0 3 103 5 1 4 4 31 4 78
EIF[ ]	/* EndIf */
NPUSHB[ ]	/* 13 values pushed */
11 11 11 23 11 23 38 34 38 32 6 8 26
CALL[ ]	/* CallFunction */";
};
width = 1229;
}
);
note = P;
unicode = 80;
},
{
glyphname = Q;
lastChange = "2025-02-27 17:40:02 +0000";
layers = (
{
layerId = m01;
shapes = (
{
closed = 1;
nodes = (
(973,142,o),
(1055,269,o),
(1081,342,qs),
(1107,418,o),
(1133,582,o),
(1134,663,qs),
(1134,791,ls),
(1133,871,o),
(1107,1036,o),
(1081,1112,qs),
(1054,1188,o),
(971,1321,o),
(914,1370,qs),
(856,1419,o),
(707,1476,o),
(614,1476,qs),
(521,1476,o),
(372,1419,o),
(315,1370,qs),
(257,1320,o),
(175,1187,o),
(148,1111,qs),
(121,1035,o),
(95,871,o),
(94,791,qs),
(94,663,ls),
(95,583,o),
(121,420,o),
(148,344,qs),
(175,268,o),
(259,135,o),
(317,86,qs),
(374,37,o),
(522,-20,o),
(615,-20,qs),
(651,-20,o),
(727,-4,o),
(757,4,q),
(881,-245,l),
(1097,-245,l),
(926,98,l)
);
},
{
closed = 1;
nodes = (
(687,578,l),
(471,578,l),
(683,153,l),
(615,143,l),
(547,143,o),
(444,190,o),
(407,230,qs),
(370,270,o),
(321,374,o),
(306,432,qs),
(291,490,o),
(278,609,o),
(278,663,qs),
(278,793,ls),
(278,847,o),
(291,966,o),
(306,1024,qs),
(321,1081,o),
(370,1185,o),
(407,1225,qs),
(444,1264,o),
(546,1311,o),
(614,1311,qs),
(683,1311,o),
(786,1265,o),
(823,1226,qs),
(860,1186,o),
(909,1082,o),
(924,1025,qs),
(938,967,o),
(949,848,o),
(950,793,qs),
(950,663,ls),
(949,608,o),
(938,489,o),
(924,431,qs),
(909,373,o),
(864,283,o),
(846,259,q)
);
}
);
userData = {
assembly = "NPUSHB[ ]	/* 58 values pushed */
40 20 1 3 1 2 1 76 6 1 2 0 1 0 2 1 128 0 5 3 5 134 0 4 0 0 2 4 0 105 0 1 1 3 98 0 3 3 31 3 78 0 0 42 41 34 32 26 24 0 21 0 21 54 40 7 8 24
CALL[ ]	/* CallFunction */";
};
width = 1229;
}
);
note = Q;
unicode = 81;
},
{
glyphname = R;
lastChange = "2025-02-27 17:42:14 +0000";
layers = (
{
layerId = m01;
shapes = (
{
closed = 1;
nodes = (
(320,0,l),
(136,0,l),
(136,1456,l),
(563,1456,ls),
(665,1454,o),
(845,1400,o),
(913,1346,qs),
(980,1292,o),
(1057,1129,o),
(1057,1019,qs),
(1057,948,o),
(1016,830,o),
(980,782,qs),
(944,734,o),
(844,660,o),
(784,634,q),
(1093,12,l),
(1092,0,l),
(897,0,l),
(611,594,l),
(320,594,l)
);
},
{
closed = 1;
nodes = (
(630,747,o),
(740,784,o),
(782,819,qs),
(823,854,o),
(871,955,o),
(871,1021,qs),
(871,1091,o),
(825,1196,o),
(784,1232,qs),
(743,1267,o),
(630,1303,o),
(563,1304,qs),
(320,1304,l),
(320,746,l),
(568,746,ls)
);
}
);
userData = {
assembly = "PUSHB[ ]	/* 6 values pushed */
21 1 4 0 1 76
MPPEM[ ]	/* MeasurePixelPerEm */
PUSHB[ ]	/* 1 value pushed */
39
LT[ ]	/* LessThan */
IF[ ]	/* If */
NPUSHB[ ]	/* 26 values pushed */
0 0 0 4 3 0 4 103 0 1 1 2 95 0 2 2 30 77 6 5 2 3 3 31 3 78
ELSE[ ]	/* Else */
NPUSHB[ ]	/* 24 values pushed */
0 2 0 1 0 2 1 103 0 0 0 4 3 0 4 103 6 5 2 3 3 31 3 78
EIF[ ]	/* EndIf */
NPUSHB[ ]	/* 14 values pushed */
11 11 11 28 11 28 18 25 34 38 32 7 8 27
CALL[ ]	/* CallFunction */";
};
width = 1229;
}
);
note = R;
unicode = 82;
},
{
glyphname = S;
lastChange = "2025-02-27 17:42:37 +0000";
layers = (
{
layerId = m01;
shapes = (
{
closed = 1;
nodes = (
(866,527,o),
(818,559,qs),
(770,590,o),
(655,632,o),
(602,649,qs),
(525,674,o),
(366,745,o),
(301,795,qs),
(235,846,o),
(152,985,o),
(152,1079,qs),
(152,1173,o),
(235,1321,o),
(302,1372,qs),
(369,1423,o),
(539,1476,o),
(625,1476,qs),
(720,1476,o),
(896,1413,o),
(964,1356,qs),
(1032,1299,o),
(1114,1137,o),
(1116,1037,q),
(926,1037,l),
(918,1100,o),
(872,1203,o),
(834,1240,qs),
(796,1277,o),
(691,1318,o),
(625,1318,qs),
(572,1318,o),
(471,1288,o),
(432,1258,qs),
(392,1228,o),
(345,1140,o),
(345,1082,qs),
(346,1019,o),
(408,932,o),
(456,902,qs),
(503,872,o),
(614,832,o),
(663,817,qs),
(744,792,o),
(906,721,o),
(973,666,qs),
(1039,615,o),
(1120,467,o),
(1120,370,qs),
(1120,272,o),
(1033,126,o),
(964,78,qs),
(895,29,o),
(721,-20,o),
(634,-20,qs),
(530,-20,o),
(329,50,o),
(255,116,qs),
(189,173,o),
(112,326,o),
(109,420,q),
(298,420,l),
(307,352,o),
(363,247,o),
(407,211,qs),
(451,174,o),
(566,137,o),
(634,137,qs),
(688,137,o),
(793,164,o),
(834,193,qs),
(875,221,o),
(927,308,o),
(927,368,qs),
(927,435,o)
);
}
);
userData = {
assembly = "MPPEM[ ]	/* MeasurePixelPerEm */
PUSHB[ ]	/* 1 value pushed */
10
LT[ ]	/* LessThan */
IF[ ]	/* If */
NPUSHB[ ]	/* 37 values pushed */
6 1 5 0 2 0 5 2 128 0 2 3 0 2 3 126 0 0 0 4 97 0 4 4 36 77 0 3 3 1 97 0 1 1 31 1 78
ELSE[ ]	/* Else */
MPPEM[ ]	/* MeasurePixelPerEm */
PUSHB[ ]	/* 1 value pushed */
39
LT[ ]	/* LessThan */
IF[ ]	/* If */
NPUSHB[ ]	/* 37 values pushed */
6 1 5 0 2 0 5 2 128 0 2 3 0 2 3 126 0 0 0 4 97 0 4 4 36 77 0 3 3 1 97 0 1 1 37 1 78
ELSE[ ]	/* Else */
NPUSHB[ ]	/* 35 values pushed */
6 1 5 0 2 0 5 2 128 0 2 3 0 2 3 126 0 4 0 0 5 4 0 105 0 3 3 1 97 0 1 1 37 1 78
EIF[ ]	/* EndIf */
EIF[ ]	/* EndIf */
NPUSHB[ ]	/* 14 values pushed */
0 0 0 40 0 40 43 35 18 43 34 7 8 27
CALL[ ]	/* CallFunction */";
};
width = 1229;
}
);
note = S;
unicode = 83;
},
{
glyphname = T;
lastChange = "2025-02-27 17:54:05 +0000";
layers = (
{
layerId = m01;
shapes = (
{
closed = 1;
nodes = (
(1156,1140,l),
(998,1140,l),
(998,1298,l),
(706,1298,l),
(706,0,l),
(526,0,l),
(526,1298,l),
(234,1298,l),
(234,1140,l),
(76,1140,l),
(76,1456,l),
(1156,1456,l)
);
}
);
userData = {
assembly = "MPPEM[ ]	/* MeasurePixelPerEm */
PUSHB[ ]	/* 1 value pushed */
39
LT[ ]	/* LessThan */
IF[ ]	/* If */
NPUSHB[ ]	/* 18 values pushed */
2 1 0 0 1 95 0 1 1 30 77 4 1 3 3 31 3 78
ELSE[ ]	/* Else */
NPUSHB[ ]	/* 16 values pushed */
0 1 2 1 0 3 1 0 103 4 1 3 3 31 3 78
EIF[ ]	/* EndIf */
NPUSHB[ ]	/* 12 values pushed */
0 0 0 7 0 7 17 17 17 5 8 25
CALL[ ]	/* CallFunction */";
};
width = 1229;
}
);
note = T;
unicode = 84;
},
{
glyphname = U;
lastChange = "2025-02-27 17:43:04 +0000";
layers = (
{
layerId = m01;
shapes = (
{
closed = 1;
nodes = (
(1090,368,o),
(1018,190,o),
(955,124,qs),
(892,57,o),
(718,-20,o),
(614,-20,qs),
(508,-20,o),
(334,56,o),
(272,123,qs),
(210,189,o),
(140,368,o),
(139,470,qs),
(141,1456,l),
(317,1456,l),
(321,470,ls),
(322,405,o),
(361,285,o),
(398,239,qs),
(434,193,o),
(543,137,o),
(614,137,qs),
(685,137,o),
(793,192,o),
(830,239,qs),
(866,285,o),
(904,405,o),
(906,470,qs),
(909,1456,l),
(1088,1456,l),
(1090,470,ls)
);
}
);
userData = {
assembly = "MPPEM[ ]	/* MeasurePixelPerEm */
PUSHB[ ]	/* 1 value pushed */
31
LT[ ]	/* LessThan */
IF[ ]	/* If */
NPUSHB[ ]	/* 17 values pushed */
2 1 0 0 30 77 0 1 1 3 97 0 3 3 37 3 78
ELSE[ ]	/* Else */
NPUSHB[ ]	/* 17 values pushed */
2 1 0 1 0 133 0 1 1 3 97 0 3 3 37 3 78
EIF[ ]	/* EndIf */
PUSHB[ ]	/* 7 values pushed */
36 20 36 16 4 8 26
CALL[ ]	/* CallFunction */";
};
width = 1229;
}
);
note = U;
unicode = 85;
},
{
glyphname = V;
lastChange = "2025-02-27 18:32:44 +0000";
layers = (
{
layerId = m01;
shapes = (
{
closed = 1;
nodes = (
(269,1456,l),
(610,318,l),
(954,1456,l),
(1151,1456,l),
(692,0,l),
(531,0,l),
(71,1456,l)
);
}
);
userData = {
assembly = "PUSHB[ ]	/* 6 values pushed */
2 1 2 0 1 76
MPPEM[ ]	/* MeasurePixelPerEm */
PUSHB[ ]	/* 1 value pushed */
39
LT[ ]	/* LessThan */
IF[ ]	/* If */
NPUSHB[ ]	/* 12 values pushed */
1 1 0 0 30 77 0 2 2 31 2 78
ELSE[ ]	/* Else */
NPUSHB[ ]	/* 12 values pushed */
1 1 0 2 0 133 0 2 2 31 2 78
EIF[ ]	/* EndIf */
PUSHB[ ]	/* 6 values pushed */
17 18 16 3 8 25
CALL[ ]	/* CallFunction */";
};
width = 1229;
}
);
note = V;
unicode = 86;
},
{
glyphname = W;
lastChange = "2025-02-27 18:33:27 +0000";
layers = (
{
layerId = m01;
shapes = (
{
closed = 1;
nodes = (
(249,1456,l),
(360,414,l),
(547,1456,l),
(708,1456,l),
(896,414,l),
(1007,1456,l),
(1182,1456,l),
(1005,0,l),
(816,0,l),
(629,1077,l),
(440,0,l),
(250,0,l),
(73,1456,l)
);
}
);
userData = {
assembly = "PUSHB[ ]	/* 8 values pushed */
14 11 9 3 0 2 1 76
MPPEM[ ]	/* MeasurePixelPerEm */
PUSHB[ ]	/* 1 value pushed */
39
LT[ ]	/* LessThan */
IF[ ]	/* If */
NPUSHB[ ]	/* 21 values pushed */
0 2 1 0 1 2 0 128 3 1 1 1 30 77 4 1 0 0 31 0 78
ELSE[ ]	/* Else */
NPUSHB[ ]	/* 21 values pushed */
0 2 1 0 1 2 0 128 3 1 1 1 0 95 4 1 0 0 31 0 78
EIF[ ]	/* EndIf */
PUSHB[ ]	/* 8 values pushed */
20 21 21 20 17 5 8 27
CALL[ ]	/* CallFunction */";
};
width = 1229;
}
);
note = W;
unicode = 87;
},
{
glyphname = X;
lastChange = "2025-03-01 12:42:14 +0000";
layers = (
{
layerId = m01;
shapes = (
{
closed = 1;
nodes = (
(1144,1456,l),
(721,734,l),
(1154,0,l),
(938,0,l),
(616,582,l),
(293,0,l),
(74,0,l),
(508,734,l),
(85,1456,l),
(302,1456,l),
(612,885,l),
(926,1456,l)
);
}
);
userData = {
assembly = "PUSHB[ ]	/* 8 values pushed */
9 6 3 3 2 0 1 76
MPPEM[ ]	/* MeasurePixelPerEm */
PUSHB[ ]	/* 1 value pushed */
39
LT[ ]	/* LessThan */
IF[ ]	/* If */
NPUSHB[ ]	/* 13 values pushed */
1 1 0 0 30 77 3 1 2 2 31 2 78
ELSE[ ]	/* Else */
NPUSHB[ ]	/* 13 values pushed */
1 1 0 0 2 95 3 1 2 2 31 2 78
EIF[ ]	/* EndIf */
PUSHB[ ]	/* 7 values pushed */
18 18 18 17 4 8 26
CALL[ ]	/* CallFunction */";
};
width = 1229;
}
);
note = X;
unicode = 88;
},
{
glyphname = Y;
lastChange = "2025-02-27 19:40:21 +0000";
layers = (
{
layerId = m01;
shapes = (
{
closed = 1;
nodes = (
(1156,1456,l),
(703,543,l),
(703,0,l),
(525,0,l),
(525,543,l),
(72,1456,l),
(283,1456,l),
(614,725,l),
(946,1456,l)
);
}
);
userData = {
assembly = "PUSHB[ ]	/* 8 values pushed */
6 3 0 3 2 0 1 76
MPPEM[ ]	/* MeasurePixelPerEm */
PUSHB[ ]	/* 1 value pushed */
39
LT[ ]	/* LessThan */
IF[ ]	/* If */
NPUSHB[ ]	/* 12 values pushed */
1 1 0 0 30 77 0 2 2 31 2 78
ELSE[ ]	/* Else */
NPUSHB[ ]	/* 12 values pushed */
1 1 0 2 0 133 0 2 2 31 2 78
EIF[ ]	/* EndIf */
PUSHB[ ]	/* 6 values pushed */
18 18 17 3 8 25
CALL[ ]	/* CallFunction */";
};
width = 1229;
}
);
note = Y;
unicode = 89;
},
{
glyphname = Z;
lastChange = "2025-02-27 17:45:30 +0000";
layers = (
{
layerId = m01;
shapes = (
{
closed = 1;
nodes = (
(1097,0,l),
(134,0,l),
(132,144,l),
(857,1298,l),
(145,1298,l),
(145,1456,l),
(1068,1456,l),
(1070,1315,l),
(343,157,l),
(1097,157,l)
);
}
);
userData = {
assembly = "NPUSHB[ ]	/* 10 values pushed */
2 1 3 0 7 1 2 1 2 76
MPPEM[ ]	/* MeasurePixelPerEm */
PUSHB[ ]	/* 1 value pushed */
39
LT[ ]	/* LessThan */
IF[ ]	/* If */
NPUSHB[ ]	/* 21 values pushed */
0 3 3 0 95 0 0 0 30 77 0 1 1 2 95 0 2 2 31 2 78
ELSE[ ]	/* Else */
NPUSHB[ ]	/* 19 values pushed */
0 0 0 3 1 0 3 103 0 1 1 2 95 0 2 2 31 2 78
EIF[ ]	/* EndIf */
PUSHB[ ]	/* 7 values pushed */
18 17 18 16 4 8 26
CALL[ ]	/* CallFunction */";
};
width = 1229;
}
);
note = Z;
unicode = 90;
},
{
glyphname = a;
lastChange = "2025-02-27 17:55:44 +0000";
layers = (
{
layerId = m01;
shapes = (
{
closed = 1;
nodes = (
(874,118,l),
(846,90,o),
(777,40,o),
(736,21,qs),
(694,2,o),
(600,-20,o),
(547,-20,qs),
(461,-20,o),
(322,30,o),
(274,73,qs),
(225,115,o),
(172,232,o),
(172,300,qs),
(172,389,o),
(243,523,o),
(308,568,qs),
(373,612,o),
(556,656,o),
(669,656,qs),
(871,656,l),
(871,741,ls),
(871,790,o),
(835,868,o),
(802,896,qs),
(769,923,o),
(674,953,o),
(615,953,qs),
(560,953,o),
(473,925,o),
(443,902,qs),
(413,879,o),
(380,816,o),
(380,782,q),
(194,782,l),
(195,841,o),
(254,955,o),
(310,1001,qs),
(365,1046,o),
(524,1102,o),
(625,1102,qs),
(717,1102,o),
(875,1057,o),
(933,1012,qs),
(990,966,o),
(1056,830,o),
(1056,739,qs),
(1056,0,l),
(874,0,l)
);
},
{
closed = 1;
nodes = (
(722,169,o),
(761,192,qs),
(799,215,o),
(855,274,o),
(871,306,q),
(871,525,l),
(699,525,ls),
(603,525,o),
(460,492,o),
(418,458,qs),
(388,434,o),
(357,368,o),
(357,326,qs),
(357,286,o),
(384,218,o),
(411,194,qs),
(438,169,o),
(520,141,o),
(574,141,qs),
(628,141,o)
);
}
);
userData = {
assembly = "MPPEM[ ]	/* MeasurePixelPerEm */
PUSHB[ ]	/* 1 value pushed */
28
LT[ ]	/* LessThan */
IF[ ]	/* If */
NPUSHB[ ]	/* 14 values pushed */
26 1 3 5 12 1 1 0 13 1 2 1 3 76
ELSE[ ]	/* Else */
NPUSHB[ ]	/* 14 values pushed */
26 1 3 5 12 1 1 0 13 1 7 1 3 76
EIF[ ]	/* EndIf */
MPPEM[ ]	/* MeasurePixelPerEm */
PUSHB[ ]	/* 1 value pushed */
13
LT[ ]	/* LessThan */
IF[ ]	/* If */
NPUSHB[ ]	/* 38 values pushed */
0 5 4 3 4 5 3 128 0 3 0 0 1 3 0 105 0 4 4 6 97 0 6 6 33 77 0 1 1 2 97 7 1 2 2 37 2 78
ELSE[ ]	/* Else */
MPPEM[ ]	/* MeasurePixelPerEm */
PUSHB[ ]	/* 1 value pushed */
14
LT[ ]	/* LessThan */
IF[ ]	/* If */
NPUSHB[ ]	/* 38 values pushed */
0 5 4 3 4 5 3 128 0 3 0 0 1 3 0 105 0 4 4 6 97 0 6 6 33 77 0 1 1 2 97 7 1 2 2 31 2 78
ELSE[ ]	/* Else */
MPPEM[ ]	/* MeasurePixelPerEm */
PUSHB[ ]	/* 1 value pushed */
28
LT[ ]	/* LessThan */
IF[ ]	/* If */
NPUSHB[ ]	/* 38 values pushed */
0 5 4 3 4 5 3 128 0 3 0 0 1 3 0 105 0 4 4 6 97 0 6 6 33 77 0 1 1 2 97 7 1 2 2 37 2 78
ELSE[ ]	/* Else */
MPPEM[ ]	/* MeasurePixelPerEm */
PUSHB[ ]	/* 1 value pushed */
38
LT[ ]	/* LessThan */
IF[ ]	/* If */
NPUSHB[ ]	/* 42 values pushed */
0 5 4 3 4 5 3 128 0 3 0 0 1 3 0 105 0 4 4 6 97 0 6 6 33 77 0 7 7 31 77 0 1 1 2 97 0 2 2 37 2 78
ELSE[ ]	/* Else */
NPUSHB[ ]	/* 40 values pushed */
0 5 4 3 4 5 3 128 0 6 0 4 5 6 4 105 0 3 0 0 1 3 0 105 0 7 7 31 77 0 1 1 2 97 0 2 2 37 2 78
EIF[ ]	/* EndIf */
EIF[ ]	/* EndIf */
EIF[ ]	/* EndIf */
EIF[ ]	/* EndIf */
NPUSHB[ ]	/* 11 values pushed */
19 34 18 36 52 37 36 64 8 8 30
CALL[ ]	/* CallFunction */";
};
width = 1229;
}
);
note = a;
unicode = 97;
},
{
glyphname = b;
lastChange = "2025-02-27 17:56:24 +0000";
layers = (
{
layerId = m01;
shapes = (
{
closed = 1;
nodes = (
(1051,327,o),
(1031,270,qs),
(1004,195,o),
(917,76,o),
(856,37,qs),
(812,10,o),
(707,-20,o),
(646,-20,qs),
(576,-20,o),
(461,14,o),
(415,46,qs),
(393,62,o),
(353,100,o),
(335,123,q),
(335,0,l),
(156,0,l),
(156,1536,l),
(341,1536,l),
(341,966,l),
(364,995,o),
(420,1042,o),
(452,1059,qs),
(492,1080,o),
(588,1102,o),
(644,1102,qs),
(714,1102,o),
(832,1064,o),
(880,1030,qs),
(923,998,o),
(991,907,o),
(1017,851,qs),
(1044,788,o),
(1072,635,o),
(1072,550,qs),
(1072,529,ls),
(1072,458,o)
);
},
{
closed = 1;
nodes = (
(874,698,o),
(861,741,qs),
(843,794,o),
(785,882,o),
(743,907,qs),
(714,925,o),
(642,945,o),
(598,945,qs),
(550,945,o),
(470,920,o),
(439,898,qs),
(407,875,o),
(358,814,o),
(341,778,q),
(341,305,l),
(359,269,o),
(408,208,o),
(440,185,qs),
(472,162,o),
(552,137,o),
(600,137,qs),
(646,137,o),
(722,160,o),
(752,182,qs),
(792,210,o),
(846,296,o),
(862,349,qs),
(875,389,o),
(887,481,o),
(887,529,qs),
(887,550,ls),
(887,601,o)
);
}
);
userData = {
assembly = "MPPEM[ ]	/* MeasurePixelPerEm */
PUSHB[ ]	/* 1 value pushed */
23
LT[ ]	/* LessThan */
IF[ ]	/* If */
NPUSHB[ ]	/* 10 values pushed */
19 1 0 3 35 1 4 1 2 76
ELSE[ ]	/* Else */
NPUSHB[ ]	/* 10 values pushed */
19 1 0 3 35 1 5 1 2 76
EIF[ ]	/* EndIf */
MPPEM[ ]	/* MeasurePixelPerEm */
PUSHB[ ]	/* 1 value pushed */
10
LT[ ]	/* LessThan */
IF[ ]	/* If */
NPUSHB[ ]	/* 29 values pushed */
0 2 2 32 77 0 0 0 3 97 0 3 3 33 77 6 1 1 1 4 97 7 5 2 4 4 31 4 78
ELSE[ ]	/* Else */
MPPEM[ ]	/* MeasurePixelPerEm */
PUSHB[ ]	/* 1 value pushed */
23
LT[ ]	/* LessThan */
IF[ ]	/* If */
NPUSHB[ ]	/* 29 values pushed */
0 2 2 32 77 0 0 0 3 97 0 3 3 33 77 6 1 1 1 4 97 7 5 2 4 4 37 4 78
ELSE[ ]	/* Else */
MPPEM[ ]	/* MeasurePixelPerEm */
PUSHB[ ]	/* 1 value pushed */
38
LT[ ]	/* LessThan */
IF[ ]	/* If */
NPUSHB[ ]	/* 33 values pushed */
0 2 2 32 77 0 0 0 3 97 0 3 3 33 77 7 1 5 5 31 77 6 1 1 1 4 97 0 4 4 37 4 78
ELSE[ ]	/* Else */
NPUSHB[ ]	/* 31 values pushed */
0 3 0 0 1 3 0 105 0 2 2 32 77 7 1 5 5 31 77 6 1 1 1 4 97 0 4 4 37 4 78
EIF[ ]	/* EndIf */
EIF[ ]	/* EndIf */
EIF[ ]	/* EndIf */
NPUSHB[ ]	/* 22 values pushed */
16 16 0 0 16 36 16 36 32 30 24 22 18 17 0 15 0 14 38 8 8 23
CALL[ ]	/* CallFunction */";
};
width = 1229;
}
);
note = b;
unicode = 98;
},
{
glyphname = c;
lastChange = "2025-02-27 17:56:43 +0000";
layers = (
{
layerId = m01;
shapes = (
{
closed = 1;
nodes = (
(780,162,o),
(817,191,qs),
(854,219,o),
(899,296,o),
(900,341,q),
(1075,341,l),
(1074,269,o),
(1001,138,o),
(940,89,qs),
(879,39,o),
(721,-20,o),
(635,-20,qs),
(512,-20,o),
(328,68,o),
(267,143,qs),
(205,217,o),
(143,412,o),
(143,520,qs),
(143,562,ls),
(143,669,o),
(205,865,o),
(267,940,qs),
(328,1014,o),
(512,1102,o),
(635,1102,qs),
(731,1102,o),
(892,1041,o),
(951,989,qs),
(1009,936,o),
(1075,792,o),
(1075,710,q),
(900,710,l),
(899,759,o),
(858,846,o),
(823,879,qs),
(788,912,o),
(691,950,o),
(635,950,qs),
(549,950,o),
(432,881,o),
(396,826,qs),
(360,770,o),
(329,632,o),
(329,562,qs),
(329,520,ls),
(329,449,o),
(360,310,o),
(396,255,qs),
(431,199,o),
(548,130,o),
(635,130,qs),
(685,130,o)
);
}
);
userData = {
assembly = "MPPEM[ ]	/* MeasurePixelPerEm */
PUSHB[ ]	/* 1 value pushed */
11
LT[ ]	/* LessThan */
IF[ ]	/* If */
NPUSHB[ ]	/* 35 values pushed */
0 2 3 5 3 2 114 6 1 5 4 4 5 112 0 3 3 1 97 0 1 1 39 77 0 4 4 0 98 0 0 0 31 0 78
ELSE[ ]	/* Else */
MPPEM[ ]	/* MeasurePixelPerEm */
PUSHB[ ]	/* 1 value pushed */
14
LT[ ]	/* LessThan */
IF[ ]	/* If */
NPUSHB[ ]	/* 36 values pushed */
0 2 3 5 3 2 114 6 1 5 4 3 5 4 126 0 3 3 1 97 0 1 1 39 77 0 4 4 0 98 0 0 0 31 0 78
ELSE[ ]	/* Else */
MPPEM[ ]	/* MeasurePixelPerEm */
PUSHB[ ]	/* 1 value pushed */
38
LT[ ]	/* LessThan */
IF[ ]	/* If */
NPUSHB[ ]	/* 37 values pushed */
0 2 3 5 3 2 5 128 6 1 5 4 3 5 4 126 0 3 3 1 97 0 1 1 39 77 0 4 4 0 98 0 0 0 31 0 78
ELSE[ ]	/* Else */
NPUSHB[ ]	/* 35 values pushed */
0 2 3 5 3 2 5 128 6 1 5 4 3 5 4 126 0 1 0 3 2 1 3 105 0 4 4 0 98 0 0 0 31 0 78
EIF[ ]	/* EndIf */
EIF[ ]	/* EndIf */
EIF[ ]	/* EndIf */
NPUSHB[ ]	/* 14 values pushed */
0 0 0 34 0 34 54 35 19 38 35 7 8 27
CALL[ ]	/* CallFunction */";
};
width = 1229;
}
);
note = c;
unicode = 99;
},
{
glyphname = d;
lastChange = "2025-02-27 17:57:18 +0000";
layers = (
{
layerId = m01;
shapes = (
{
closed = 1;
nodes = (
(219,874,o),
(276,947,qs),
(332,1020,o),
(492,1102,o),
(591,1102,qs),
(688,1102,o),
(833,1037,o),
(886,975,q),
(886,1536,l),
(1071,1536,l),
(1071,0,l),
(893,0,l),
(893,114,l),
(839,48,o),
(689,-20,o),
(589,-20,qs),
(491,-20,o),
(332,64,o),
(276,138,qs),
(220,212,o),
(158,413,o),
(158,529,qs),
(158,550,ls),
(158,671,o)
);
},
{
closed = 1;
nodes = (
(377,308,o),
(413,254,qs),
(448,200,o),
(558,137,o),
(635,137,qs),
(728,137,o),
(850,221,o),
(886,292,q),
(886,794,l),
(850,860,o),
(728,945,o),
(637,945,qs),
(559,945,o),
(448,881,o),
(413,827,qs),
(377,772,o),
(343,629,o),
(343,550,qs),
(343,529,ls),
(343,450,o)
);
}
);
userData = {
assembly = "NPUSHB[ ]	/* 10 values pushed */
35 1 0 4 19 1 2 1 2 76
MPPEM[ ]	/* MeasurePixelPerEm */
PUSHB[ ]	/* 1 value pushed */
23
LT[ ]	/* LessThan */
IF[ ]	/* If */
NPUSHB[ ]	/* 29 values pushed */
7 1 5 5 32 77 0 0 0 4 97 0 4 4 33 77 6 1 1 1 2 97 3 1 2 2 31 2 78
ELSE[ ]	/* Else */
MPPEM[ ]	/* MeasurePixelPerEm */
PUSHB[ ]	/* 1 value pushed */
38
LT[ ]	/* LessThan */
IF[ ]	/* If */
NPUSHB[ ]	/* 33 values pushed */
7 1 5 5 32 77 0 0 0 4 97 0 4 4 33 77 0 2 2 31 77 6 1 1 1 3 97 0 3 3 37 3 78
ELSE[ ]	/* Else */
NPUSHB[ ]	/* 31 values pushed */
0 4 0 0 1 4 0 105 7 1 5 5 32 77 0 2 2 31 77 6 1 1 1 3 97 0 3 3 37 3 78
EIF[ ]	/* EndIf */
EIF[ ]	/* EndIf */
NPUSHB[ ]	/* 22 values pushed */
16 16 0 0 16 36 16 36 32 30 24 22 18 17 0 15 0 14 38 8 8 23
CALL[ ]	/* CallFunction */";
};
width = 1229;
}
);
note = d;
unicode = 100;
},
{
glyphname = e;
lastChange = "2025-03-01 21:16:19 +0000";
layers = (
{
layerId = m01;
shapes = (
{
closed = 1;
nodes = (
(347,58,o),
(279,128,qs),
(211,198,o),
(135,390,o),
(135,503,qs),
(135,545,ls),
(135,676,o),
(219,883,o),
(289,955,qs),
(358,1026,o),
(535,1102,o),
(628,1102,qs),
(745,1102,o),
(920,1021,o),
(978,950,qs),
(1036,878,o),
(1093,684,o),
(1093,571,qs),
(1093,488,l),
(320,488,l),
(320,481,ls),
(327,402,o),
(376,282,o),
(419,236,qs),
(463,187,o),
(572,131,o),
(662,131,qs),
(737,131,o),
(836,198,o),
(868,277,q),
(1053,277,l),
(1044,170,o),
(920,66,qs),
(820,-18,o),
(667,-20,qs),
(527,-22,o)
);
},
{
closed = 1;
nodes = (
(472,909,o),
(432,870,qs),
(392,830,o),
(337,715,o),
(326,640,q),
(908,640,l),
(908,649,ls),
(908,699,o),
(870,814,o),
(836,856,qs),
(802,898,o),
(699,950,o),
(628,950,qs),
(572,950,o)
);
}
);
userData = {
assembly = "MPPEM[ ]	/* MeasurePixelPerEm */
PUSHB[ ]	/* 1 value pushed */
38
LT[ ]	/* LessThan */
IF[ ]	/* If */
NPUSHB[ ]	/* 39 values pushed */
8 1 6 4 5 4 6 5 128 7 1 1 0 4 6 1 4 103 0 0 0 3 97 0 3 3 39 77 0 5 5 2 97 0 2 2 31 2 78
ELSE[ ]	/* Else */
NPUSHB[ ]	/* 37 values pushed */
8 1 6 4 5 4 6 5 128 0 3 0 0 1 3 0 105 7 1 1 0 4 6 1 4 103 0 5 5 2 97 0 2 2 31 2 78
EIF[ ]	/* EndIf */
NPUSHB[ ]	/* 24 values pushed */
9 9 0 0 9 35 9 35 32 30 27 26 22 20 14 12 0 8 0 8 35 9 8 23
CALL[ ]	/* CallFunction */";
};
width = 1229;
}
);
note = e;
unicode = 101;
},
{
glyphname = f;
lastChange = "2025-02-28 21:33:59 +0000";
layers = (
{
layerId = m01;
shapes = (
{
closed = 1;
nodes = (
(164,939,l),
(164,1082,l),
(462,1082,l),
(462,1158,ls),
(462,1262,o),
(523,1419,o),
(579,1472,qs),
(634,1525,o),
(790,1579,o),
(886,1579,q),
(1065,1579,l),
(1065,1422,l),
(909,1422,l),
(846,1422,o),
(749,1391,o),
(717,1360,qs),
(683,1328,o),
(648,1226,o),
(648,1158,qs),
(648,1082,l),
(1065,1082,l),
(1065,939,l),
(648,939,l),
(648,0,l),
(462,0,l),
(462,939,l)
);
}
);
userData = {
assembly = "MPPEM[ ]	/* MeasurePixelPerEm */
PUSHB[ ]	/* 1 value pushed */
38
LT[ ]	/* LessThan */
IF[ ]	/* If */
NPUSHB[ ]	/* 28 values pushed */
0 4 4 3 97 0 3 3 32 77 6 1 1 1 2 95 5 1 2 2 33 77 0 0 0 31 0 78
ELSE[ ]	/* Else */
NPUSHB[ ]	/* 26 values pushed */
5 1 2 6 1 1 0 2 1 103 0 4 4 3 97 0 3 3 32 77 0 0 0 31 0 78
EIF[ ]	/* EndIf */
NPUSHB[ ]	/* 10 values pushed */
17 20 33 36 17 17 16 7 8 29
CALL[ ]	/* CallFunction */";
};
width = 1229;
}
);
note = f;
unicode = 102;
},
{
glyphname = g;
lastChange = "2025-02-27 18:07:11 +0000";
layers = (
{
layerId = m01;
shapes = (
{
closed = 1;
nodes = (
(199,874,o),
(255,947,qs),
(311,1020,o),
(471,1102,o),
(572,1102,qs),
(637,1102,o),
(746,1072,o),
(790,1043,qs),
(814,1028,o),
(857,988,o),
(876,964,q),
(876,1082,l),
(1053,1082,l),
(1053,23,ls),
(1053,-84,o),
(986,-250,o),
(926,-308,qs),
(865,-366,o),
(697,-426,o),
(595,-426,qs),
(553,-426,o),
(390,-400,o),
(320,-354,qs),
(237,-300,o),
(165,-208,o),
(140,-128,q),
(310,-128,l),
(332,-176,o),
(396,-226,o),
(433,-243,qs),
(470,-260,o),
(544,-275,o),
(581,-275,qs),
(647,-275,o),
(753,-237,o),
(791,-200,qs),
(828,-164,o),
(868,-56,o),
(868,14,qs),
(868,107,l),
(847,83,o),
(800,43,o),
(773,28,qs),
(731,5,o),
(629,-20,o),
(570,-20,qs),
(471,-20,o),
(311,64,o),
(256,138,qs),
(200,212,o),
(140,413,o),
(140,529,qs),
(140,550,ls),
(140,671,o)
);
},
{
closed = 1;
nodes = (
(358,308,o),
(394,254,qs),
(429,200,o),
(539,137,o),
(616,137,qs),
(664,137,o),
(741,160,o),
(772,181,qs),
(802,202,o),
(850,260,o),
(868,295,q),
(868,791,l),
(850,825,o),
(802,881,o),
(771,902,qs),
(740,922,o),
(664,945,o),
(618,945,qs),
(540,945,o),
(429,881,o),
(394,827,qs),
(358,772,o),
(325,629,o),
(325,550,qs),
(325,529,ls),
(325,450,o)
);
}
);
userData = {
assembly = "NPUSHB[ ]	/* 68 values pushed */
32 1 0 3 16 1 2 1 2 76 0 6 2 7 2 6 7 128 4 1 3 0 0 1 3 0 105 0 7 0 5 7 5 101 8 1 1 1 2 97 0 2 2 31 2 78 0 0 49 47 44 43 40 38 34 33 29 27 21 19 0 15 0 14 38 9 8 23
CALL[ ]	/* CallFunction */";
};
width = 1229;
}
);
note = g;
unicode = 103;
},
{
glyphname = h;
lastChange = "2025-02-27 18:08:47 +0000";
layers = (
{
layerId = m01;
shapes = (
{
closed = 1;
nodes = (
(435,1038,o),
(465,1060,qs),
(513,1095,o),
(673,1102,qs),
(758,1106,o),
(917,1053,o),
(966,1001,qs),
(1015,949,o),
(1068,790,o),
(1068,681,qs),
(1068,0,l),
(883,0,l),
(883,683,ls),
(883,747,o),
(853,844,o),
(824,876,qs),
(793,911,o),
(699,946,o),
(638,945,qs),
(588,945,o),
(498,917,o),
(460,891,qs),
(430,871,o),
(379,818,o),
(359,786,q),
(359,0,l),
(174,0,l),
(174,1536,l),
(359,1536,l),
(359,951,l),
(381,984,o)
);
}
);
userData = {
assembly = "PUSHB[ ]	/* 6 values pushed */
3 1 3 1 1 76
MPPEM[ ]	/* MeasurePixelPerEm */
PUSHB[ ]	/* 1 value pushed */
10
LT[ ]	/* LessThan */
IF[ ]	/* If */
NPUSHB[ ]	/* 23 values pushed */
0 0 0 32 77 0 3 3 1 97 0 1 1 33 77 5 4 2 2 2 31 2 78
ELSE[ ]	/* Else */
MPPEM[ ]	/* MeasurePixelPerEm */
PUSHB[ ]	/* 1 value pushed */
38
LT[ ]	/* LessThan */
IF[ ]	/* If */
NPUSHB[ ]	/* 23 values pushed */
0 0 0 32 77 0 3 3 1 97 0 1 1 39 77 5 4 2 2 2 31 2 78
ELSE[ ]	/* Else */
NPUSHB[ ]	/* 21 values pushed */
0 1 0 3 2 1 3 105 0 0 0 32 77 5 4 2 2 2 31 2 78
EIF[ ]	/* EndIf */
EIF[ ]	/* EndIf */
NPUSHB[ ]	/* 13 values pushed */
0 0 0 24 0 24 52 20 36 17 6 8 26
CALL[ ]	/* CallFunction */";
};
width = 1229;
}
);
note = h;
unicode = 104;
},
{
glyphname = i;
lastChange = "2025-02-27 18:56:55 +0000";
layers = (
{
layerId = m01;
shapes = (
{
closed = 1;
nodes = (
(876,0,l),
(691,0,l),
(691,921,l),
(323,921,l),
(323,1082,l),
(876,1082,l)
);
},
{
closed = 1;
nodes = (
(656,1288,l),
(906,1288,l),
(906,1538,l),
(656,1538,l)
);
}
);
userData = {
assembly = "MPPEM[ ]	/* MeasurePixelPerEm */
PUSHB[ ]	/* 1 value pushed */
38
LT[ ]	/* LessThan */
IF[ ]	/* If */
NPUSHB[ ]	/* 27 values pushed */
5 1 4 4 3 95 0 3 3 32 77 0 2 2 0 95 0 0 0 33 77 0 1 1 31 1 78
ELSE[ ]	/* Else */
NPUSHB[ ]	/* 25 values pushed */
0 0 0 2 1 0 2 103 5 1 4 4 3 95 0 3 3 32 77 0 1 1 31 1 78
EIF[ ]	/* EndIf */
NPUSHB[ ]	/* 13 values pushed */
6 6 6 9 6 9 18 17 17 16 6 8 26
CALL[ ]	/* CallFunction */";
};
width = 1229;
}
);
note = i;
unicode = 105;
},
{
glyphname = j;
lastChange = "2025-02-27 18:57:02 +0000";
layers = (
{
layerId = m01;
shapes = (
{
closed = 1;
nodes = (
(931,-7,ls),
(931,-111,o),
(874,-271,o),
(820,-325,qs),
(765,-380,o),
(608,-437,o),
(508,-437,qs),
(477,-437,o),
(419,-435,o),
(391,-433,qs),
(368,-431,o),
(322,-424,o),
(297,-420,q),
(310,-268,l),
(327,-271,o),
(379,-276,o),
(406,-277,qs),
(432,-279,o),
(481,-280,o),
(495,-280,qs),
(547,-280,o),
(639,-253,o),
(673,-221,qs),
(707,-189,o),
(746,-84,o),
(746,-7,qs),
(746,921,l),
(385,921,l),
(385,1082,l),
(931,1082,l)
);
},
{
closed = 1;
nodes = (
(706,1288,l),
(956,1288,l),
(956,1538,l),
(706,1538,l)
);
}
);
userData = {
assembly = "MPPEM[ ]	/* MeasurePixelPerEm */
PUSHB[ ]	/* 1 value pushed */
38
LT[ ]	/* LessThan */
IF[ ]	/* If */
NPUSHB[ ]	/* 32 values pushed */
6 1 5 5 4 95 0 4 4 32 77 0 3 3 0 95 0 0 0 33 77 0 2 2 1 95 0 1 1 35 1 78
ELSE[ ]	/* Else */
NPUSHB[ ]	/* 30 values pushed */
0 0 0 3 2 0 3 103 6 1 5 5 4 95 0 4 4 32 77 0 2 2 1 95 0 1 1 35 1 78
EIF[ ]	/* EndIf */
NPUSHB[ ]	/* 14 values pushed */
12 12 12 15 12 15 18 18 33 34 16 7 8 27
CALL[ ]	/* CallFunction */";
};
width = 1229;
}
);
note = j;
unicode = 106;
},
{
glyphname = k;
lastChange = "2025-02-27 18:18:14 +0000";
layers = (
{
layerId = m01;
shapes = (
{
closed = 1;
nodes = (
(323,0,l),
(137,0,l),
(137,1536,l),
(323,1536,l),
(323,596,l),
(799,1082,l),
(1024,1082,l),
(546,592,l),
(1091,0,l),
(856,0,l),
(419,466,l),
(323,374,l)
);
}
);
userData = {
assembly = "PUSHB[ ]	/* 8 values pushed */
9 6 2 3 2 1 1 76
MPPEM[ ]	/* MeasurePixelPerEm */
PUSHB[ ]	/* 1 value pushed */
38
LT[ ]	/* LessThan */
IF[ ]	/* If */
NPUSHB[ ]	/* 17 values pushed */
0 0 0 32 77 0 1 1 33 77 3 1 2 2 31 2 78
ELSE[ ]	/* Else */
MPPEM[ ]	/* MeasurePixelPerEm */
PUSHB[ ]	/* 1 value pushed */
47
LT[ ]	/* LessThan */
IF[ ]	/* If */
NPUSHB[ ]	/* 17 values pushed */
0 0 0 32 77 0 1 1 2 95 3 1 2 2 31 2 78
ELSE[ ]	/* Else */
NPUSHB[ ]	/* 23 values pushed */
0 0 0 2 95 3 1 2 2 31 77 0 1 1 2 95 3 1 2 2 31 2 78
EIF[ ]	/* EndIf */
EIF[ ]	/* EndIf */
PUSHB[ ]	/* 7 values pushed */
19 18 19 16 4 8 26
CALL[ ]	/* CallFunction */";
};
width = 1229;
}
);
note = k;
unicode = 107;
},
{
glyphname = l;
lastChange = "2025-02-27 18:20:18 +0000";
layers = (
{
layerId = m01;
shapes = (
{
closed = 1;
nodes = (
(327,153,o),
(431,79,qs),
(535,0,o),
(773,0,qs),
(902,0,l),
(902,162,l),
(822,162,ls),
(646,162,o),
(589,206,qs),
(510,265,o),
(510,409,qs),
(510,1456,l),
(327,1456,l),
(327,375,ls)
);
}
);
userData = {
assembly = "NPUSHB[ ]	/* 22 values pushed */
0 0 0 32 77 0 1 1 2 95 0 2 2 31 2 78 33 36 16 3 8 25
CALL[ ]	/* CallFunction */";
};
width = 1229;
}
);
note = l;
unicode = 108;
},
{
glyphname = m;
lastChange = "2025-02-27 18:21:31 +0000";
layers = (
{
layerId = m01;
shapes = (
{
closed = 1;
nodes = (
(296,1037,o),
(403,1101,o),
(479,1102,qs),
(522,1102,o),
(591,1083,o),
(617,1065,qs),
(636,1051,o),
(667,1011,o),
(678,986,q),
(692,1009,o),
(730,1049,o),
(752,1064,qs),
(780,1081,o),
(849,1101,o),
(890,1102,qs),
(946,1102,o),
(1036,1069,o),
(1067,1037,qs),
(1101,1001,o),
(1137,886,o),
(1137,808,qs),
(1137,0,l),
(961,0,l),
(961,810,ls),
(961,844,o),
(945,896,o),
(930,913,qs),
(914,929,o),
(867,945,o),
(836,945,qs),
(803,945,o),
(755,927,o),
(739,912,qs),
(723,896,o),
(705,855,o),
(702,830,qs),
(702,825,o),
(702,816,o),
(702,810,qs),
(702,0,l),
(526,0,l),
(526,811,ls),
(526,845,o),
(511,897,o),
(495,914,qs),
(480,930,o),
(435,945,o),
(405,945,qs),
(372,945,o),
(323,930,o),
(306,916,qs),
(293,905,o),
(274,877,o),
(268,861,q),
(268,0,l),
(92,0,l),
(92,1082,l),
(263,1082,l),
(263,980,l)
);
}
);
userData = {
assembly = "PUSHB[ ]	/* 7 values pushed */
10 2 2 4 0 1 76
MPPEM[ ]	/* MeasurePixelPerEm */
PUSHB[ ]	/* 1 value pushed */
38
LT[ ]	/* LessThan */
IF[ ]	/* If */
NPUSHB[ ]	/* 21 values pushed */
6 1 4 4 0 97 2 1 2 0 0 33 77 7 5 2 3 3 31 3 78
ELSE[ ]	/* Else */
MPPEM[ ]	/* MeasurePixelPerEm */
PUSHB[ ]	/* 1 value pushed */
47
LT[ ]	/* LessThan */
IF[ ]	/* If */
NPUSHB[ ]	/* 22 values pushed */
6 1 4 3 0 4 89 2 1 2 0 0 3 95 7 5 2 3 3 31 3 78
ELSE[ ]	/* Else */
NPUSHB[ ]	/* 27 values pushed */
0 2 0 4 2 89 6 1 4 3 0 4 89 1 1 0 0 3 95 7 5 2 3 3 31 3 78
EIF[ ]	/* EndIf */
EIF[ ]	/* EndIf */
NPUSHB[ ]	/* 11 values pushed */
20 36 20 36 20 38 36 16 8 8 30
CALL[ ]	/* CallFunction */";
};
width = 1229;
}
);
note = m;
unicode = 109;
},
{
glyphname = n;
lastChange = "2025-02-27 18:22:06 +0000";
layers = (
{
layerId = m01;
shapes = (
{
closed = 1;
nodes = (
(353,1082,l),
(353,922,l),
(377,956,o),
(434,1013,o),
(466,1034,qs),
(514,1066,o),
(627,1101,o),
(690,1102,qs),
(775,1102,o),
(914,1054,o),
(963,1003,qs),
(1012,952,o),
(1065,795,o),
(1065,687,qs),
(1065,0,l),
(880,0,l),
(880,683,ls),
(880,755,o),
(848,855,o),
(817,886,qs),
(785,917,o),
(694,945,o),
(635,945,qs),
(584,945,o),
(496,916,o),
(459,891,qs),
(429,869,o),
(378,811,o),
(359,776,q),
(359,0,l),
(174,0,l),
(174,1082,l)
);
}
);
userData = {
assembly = "MPPEM[ ]	/* MeasurePixelPerEm */
PUSHB[ ]	/* 1 value pushed */
39
LT[ ]	/* LessThan */
IF[ ]	/* If */
PUSHB[ ]	/* 6 values pushed */
0 1 2 0 1 76
ELSE[ ]	/* Else */
PUSHB[ ]	/* 6 values pushed */
0 1 2 4 1 76
EIF[ ]	/* EndIf */
MPPEM[ ]	/* MeasurePixelPerEm */
PUSHB[ ]	/* 1 value pushed */
38
LT[ ]	/* LessThan */
IF[ ]	/* If */
NPUSHB[ ]	/* 18 values pushed */
0 2 2 0 97 4 1 0 0 33 77 3 1 1 1 31 1 78
ELSE[ ]	/* Else */
MPPEM[ ]	/* MeasurePixelPerEm */
PUSHB[ ]	/* 1 value pushed */
39
LT[ ]	/* LessThan */
IF[ ]	/* If */
NPUSHB[ ]	/* 19 values pushed */
0 2 1 0 2 89 4 1 0 0 1 95 3 1 1 1 31 1 78
ELSE[ ]	/* Else */
NPUSHB[ ]	/* 20 values pushed */
0 0 0 2 1 0 2 105 0 4 4 1 95 3 1 1 1 31 1 78
EIF[ ]	/* EndIf */
EIF[ ]	/* EndIf */
PUSHB[ ]	/* 8 values pushed */
17 20 36 20 35 5 8 27
CALL[ ]	/* CallFunction */";
};
width = 1229;
}
);
note = n;
unicode = 110;
},
{
glyphname = o;
lastChange = "2025-02-27 18:22:28 +0000";
layers = (
{
layerId = m01;
shapes = (
{
closed = 1;
nodes = (
(190,869,o),
(254,943,qs),
(317,1017,o),
(499,1102,o),
(613,1102,qs),
(728,1102,o),
(911,1017,o),
(975,943,qs),
(1038,869,o),
(1106,668,o),
(1106,551,qs),
(1106,529,ls),
(1106,412,o),
(1038,212,o),
(975,138,qs),
(911,64,o),
(729,-20,o),
(615,-20,qs),
(500,-20,o),
(317,64,o),
(254,138,qs),
(190,212,o),
(122,412,o),
(122,529,qs),
(122,551,ls),
(122,668,o)
);
},
{
closed = 1;
nodes = (
(345,304,o),
(384,249,qs),
(422,194,o),
(538,130,o),
(615,130,qs),
(691,130,o),
(806,194,o),
(845,249,qs),
(883,304,o),
(921,449,o),
(921,529,qs),
(921,551,ls),
(921,630,o),
(882,775,o),
(844,830,qs),
(805,885,o),
(690,950,o),
(613,950,qs),
(536,950,o),
(422,885,o),
(384,830,qs),
(345,775,o),
(307,630,o),
(307,551,qs),
(307,529,ls),
(307,449,o)
);
}
);
userData = {
assembly = "MPPEM[ ]	/* MeasurePixelPerEm */
PUSHB[ ]	/* 1 value pushed */
38
LT[ ]	/* LessThan */
IF[ ]	/* If */
NPUSHB[ ]	/* 23 values pushed */
0 0 0 2 97 0 2 2 39 77 4 1 1 1 3 97 5 1 3 3 31 3 78
ELSE[ ]	/* Else */
NPUSHB[ ]	/* 21 values pushed */
0 2 0 0 1 2 0 105 4 1 1 1 3 97 5 1 3 3 31 3 78
EIF[ ]	/* EndIf */
NPUSHB[ ]	/* 18 values pushed */
16 16 0 0 16 31 16 30 24 22 0 15 0 14 38 6 8 23
CALL[ ]	/* CallFunction */";
};
width = 1229;
}
);
note = o;
unicode = 111;
},
{
glyphname = p;
lastChange = "2025-02-27 18:22:59 +0000";
layers = (
{
layerId = m01;
shapes = (
{
closed = 1;
nodes = (
(335,1082,l),
(335,964,l),
(357,992,o),
(409,1037,o),
(439,1053,qs),
(481,1077,o),
(584,1102,o),
(643,1102,qs),
(747,1102,o),
(907,1020,o),
(961,947,qs),
(1015,874,o),
(1071,671,o),
(1071,550,qs),
(1071,529,ls),
(1071,413,o),
(1015,212,o),
(961,138,qs),
(907,64,o),
(748,-20,o),
(646,-20,qs),
(584,-20,o),
(477,6,o),
(434,30,qs),
(408,45,o),
(362,82,o),
(342,104,q),
(342,-416,l),
(157,-416,l),
(157,1082,l)
);
},
{
closed = 1;
nodes = (
(851,772,o),
(815,827,qs),
(778,881,o),
(666,945,o),
(588,945,qs),
(545,945,o),
(472,925,o),
(443,906,qs),
(411,887,o),
(361,831,o),
(342,797,q),
(342,276,l),
(359,246,o),
(403,194,o),
(431,176,qs),
(463,155,o),
(542,131,o),
(590,131,qs),
(667,131,o),
(779,196,o),
(815,251,qs),
(851,306,o),
(886,450,o),
(886,529,qs),
(886,550,ls),
(886,629,o)
);
}
);
userData = {
assembly = "NPUSHB[ ]	/* 10 values pushed */
18 1 1 2 34 1 4 0 2 76
MPPEM[ ]	/* MeasurePixelPerEm */
PUSHB[ ]	/* 1 value pushed */
25
LT[ ]	/* LessThan */
IF[ ]	/* If */
NPUSHB[ ]	/* 28 values pushed */
6 1 1 1 2 97 3 1 2 2 33 77 0 0 0 4 97 0 4 4 31 77 0 5 5 35 5 78
ELSE[ ]	/* Else */
MPPEM[ ]	/* MeasurePixelPerEm */
PUSHB[ ]	/* 1 value pushed */
38
LT[ ]	/* LessThan */
IF[ ]	/* If */
NPUSHB[ ]	/* 32 values pushed */
0 2 2 33 77 6 1 1 1 3 97 0 3 3 39 77 0 0 0 4 97 0 4 4 31 77 0 5 5 35 5 78
ELSE[ ]	/* Else */
NPUSHB[ ]	/* 30 values pushed */
0 3 6 1 1 0 3 1 105 0 0 0 4 97 0 4 4 31 77 0 2 2 5 95 0 5 5 35 5 78
EIF[ ]	/* EndIf */
EIF[ ]	/* EndIf */
NPUSHB[ ]	/* 18 values pushed */
0 0 36 35 31 29 23 21 17 16 0 15 0 14 38 7 8 23
CALL[ ]	/* CallFunction */";
};
width = 1229;
}
);
note = p;
unicode = 112;
},
{
glyphname = q;
lastChange = "2025-02-27 18:23:23 +0000";
layers = (
{
layerId = m01;
shapes = (
{
closed = 1;
nodes = (
(198,874,o),
(254,947,qs),
(310,1020,o),
(473,1102,o),
(577,1102,qs),
(635,1102,o),
(736,1078,o),
(778,1054,qs),
(805,1039,o),
(853,999,o),
(874,975,q),
(874,1082,l),
(1052,1082,l),
(1052,-416,l),
(867,-416,l),
(867,98,l),
(843,73,o),
(790,33,o),
(759,19,qs),
(720,0,o),
(628,-20,o),
(575,-20,qs),
(472,-20,o),
(311,64,o),
(255,138,qs),
(199,212,o),
(140,413,o),
(140,529,qs),
(140,550,ls),
(140,671,o)
);
},
{
closed = 1;
nodes = (
(360,306,o),
(396,251,qs),
(432,196,o),
(543,131,o),
(620,131,qs),
(663,131,o),
(735,151,o),
(765,168,qs),
(797,187,o),
(847,242,o),
(867,275,q),
(867,809,l),
(848,840,o),
(799,891,o),
(769,910,qs),
(738,929,o),
(665,950,o),
(622,950,qs),
(545,950,o),
(433,884,o),
(397,829,qs),
(360,773,o),
(325,629,o),
(325,550,qs),
(325,529,ls),
(325,450,o)
);
}
);
userData = {
assembly = "MPPEM[ ]	/* MeasurePixelPerEm */
PUSHB[ ]	/* 1 value pushed */
25
LT[ ]	/* LessThan */
IF[ ]	/* If */
NPUSHB[ ]	/* 10 values pushed */
35 1 1 4 19 1 3 0 2 76
ELSE[ ]	/* Else */
NPUSHB[ ]	/* 10 values pushed */
35 1 1 5 19 1 3 0 2 76
EIF[ ]	/* EndIf */
MPPEM[ ]	/* MeasurePixelPerEm */
PUSHB[ ]	/* 1 value pushed */
25
LT[ ]	/* LessThan */
IF[ ]	/* If */
NPUSHB[ ]	/* 29 values pushed */
6 1 1 1 4 97 7 5 2 4 4 39 77 0 0 0 3 97 0 3 3 31 77 0 2 2 35 2 78
ELSE[ ]	/* Else */
MPPEM[ ]	/* MeasurePixelPerEm */
PUSHB[ ]	/* 1 value pushed */
38
LT[ ]	/* LessThan */
IF[ ]	/* If */
NPUSHB[ ]	/* 33 values pushed */
7 1 5 5 33 77 6 1 1 1 4 97 0 4 4 39 77 0 0 0 3 97 0 3 3 31 77 0 2 2 35 2 78
ELSE[ ]	/* Else */
NPUSHB[ ]	/* 31 values pushed */
0 4 6 1 1 0 4 1 105 0 0 0 3 97 0 3 3 31 77 7 1 5 5 2 95 0 2 2 35 2 78
EIF[ ]	/* EndIf */
EIF[ ]	/* EndIf */
NPUSHB[ ]	/* 22 values pushed */
16 16 0 0 16 36 16 36 32 30 24 22 18 17 0 15 0 14 38 8 8 23
CALL[ ]	/* CallFunction */";
};
width = 1229;
}
);
note = q;
unicode = 113;
},
{
glyphname = r;
lastChange = "2025-02-27 18:25:42 +0000";
layers = (
{
layerId = m01;
shapes = (
{
closed = 1;
nodes = (
(1092,952,o),
(1111,805,q),
(959,805,l),
(943,915,o),
(844,918,qs),
(776,920,o),
(666,885,o),
(625,853,qs),
(588,825,o),
(533,744,o),
(515,694,q),
(515,0,l),
(329,0,l),
(329,1082,l),
(514,1082,l),
(514,910,l),
(580,999,o),
(767,1105,o),
(883,1102,qs),
(962,1100,o)
);
}
);
userData = {
assembly = "MPPEM[ ]	/* MeasurePixelPerEm */
PUSHB[ ]	/* 1 value pushed */
39
LT[ ]	/* LessThan */
IF[ ]	/* If */
PUSHB[ ]	/* 6 values pushed */
0 1 2 0 1 76
ELSE[ ]	/* Else */
PUSHB[ ]	/* 6 values pushed */
0 1 2 4 1 76
EIF[ ]	/* EndIf */
MPPEM[ ]	/* MeasurePixelPerEm */
PUSHB[ ]	/* 1 value pushed */
13
LT[ ]	/* LessThan */
IF[ ]	/* If */
NPUSHB[ ]	/* 24 values pushed */
0 1 2 3 2 1 114 0 2 2 0 97 4 1 0 0 33 77 0 3 3 31 3 78
ELSE[ ]	/* Else */
MPPEM[ ]	/* MeasurePixelPerEm */
PUSHB[ ]	/* 1 value pushed */
38
LT[ ]	/* LessThan */
IF[ ]	/* If */
NPUSHB[ ]	/* 25 values pushed */
0 1 2 3 2 1 3 128 0 2 2 0 97 4 1 0 0 33 77 0 3 3 31 3 78
ELSE[ ]	/* Else */
MPPEM[ ]	/* MeasurePixelPerEm */
PUSHB[ ]	/* 1 value pushed */
39
LT[ ]	/* LessThan */
IF[ ]	/* If */
NPUSHB[ ]	/* 26 values pushed */
0 1 2 3 2 1 3 128 0 2 1 0 2 89 4 1 0 0 3 95 0 3 3 31 3 78
ELSE[ ]	/* Else */
NPUSHB[ ]	/* 27 values pushed */
0 1 2 3 2 1 3 128 0 0 0 2 1 0 2 105 0 4 4 3 95 0 3 3 31 3 78
EIF[ ]	/* EndIf */
EIF[ ]	/* EndIf */
EIF[ ]	/* EndIf */
PUSHB[ ]	/* 8 values pushed */
17 20 35 35 35 5 8 27
CALL[ ]	/* CallFunction */";
};
width = 1229;
}
);
note = r;
unicode = 114;
},
{
glyphname = s;
lastChange = "2025-02-27 18:25:59 +0000";
layers = (
{
layerId = m01;
shapes = (
{
closed = 1;
nodes = (
(867,373,o),
(836,395,qs),
(805,417,o),
(703,454,o),
(627,469,qs),
(534,488,o),
(381,542,o),
(327,580,qs),
(272,617,o),
(212,718,o),
(212,785,qs),
(212,851,o),
(274,966,o),
(330,1009,qs),
(386,1052,o),
(541,1102,o),
(634,1102,qs),
(734,1102,o),
(894,1050,o),
(950,1004,qs),
(1006,958,o),
(1067,835,o),
(1067,764,q),
(882,764,l),
(882,799,o),
(846,866,o),
(814,892,qs),
(782,918,o),
(691,950,o),
(634,950,qs),
(575,950,o),
(486,924,o),
(457,902,qs),
(427,880,o),
(397,822,o),
(397,791,qs),
(397,759,o),
(421,709,o),
(451,689,qs),
(480,669,o),
(579,637,o),
(655,622,qs),
(755,601,o),
(913,546,o),
(967,508,qs),
(1021,469,o),
(1078,367,o),
(1078,300,qs),
(1078,228,o),
(1013,110,o),
(955,68,qs),
(897,26,o),
(735,-20,o),
(639,-20,qs),
(529,-20,o),
(357,39,o),
(298,88,qs),
(238,136,o),
(175,264,o),
(175,333,q),
(360,333,l),
(364,276,o),
(417,198,o),
(457,174,qs),
(496,150,o),
(592,130,o),
(639,130,qs),
(713,130,o),
(823,165,o),
(854,196,qs),
(873,215,o),
(893,261,o),
(893,287,qs),
(893,320,o)
);
}
);
userData = {
assembly = "MPPEM[ ]	/* MeasurePixelPerEm */
PUSHB[ ]	/* 1 value pushed */
10
LT[ ]	/* LessThan */
IF[ ]	/* If */
NPUSHB[ ]	/* 37 values pushed */
0 2 3 5 3 2 5 128 6 1 5 0 3 5 0 126 0 3 3 1 97 0 1 1 33 77 0 0 0 4 97 0 4 4 31 4 78
ELSE[ ]	/* Else */
MPPEM[ ]	/* MeasurePixelPerEm */
PUSHB[ ]	/* 1 value pushed */
38
LT[ ]	/* LessThan */
IF[ ]	/* If */
NPUSHB[ ]	/* 37 values pushed */
0 2 3 5 3 2 5 128 6 1 5 0 3 5 0 126 0 3 3 1 97 0 1 1 33 77 0 0 0 4 97 0 4 4 37 4 78
ELSE[ ]	/* Else */
NPUSHB[ ]	/* 35 values pushed */
0 2 3 5 3 2 5 128 6 1 5 0 3 5 0 126 0 1 0 3 2 1 3 105 0 0 0 4 97 0 4 4 37 4 78
EIF[ ]	/* EndIf */
EIF[ ]	/* EndIf */
NPUSHB[ ]	/* 14 values pushed */
0 0 0 39 0 39 43 34 18 43 34 7 8 27
CALL[ ]	/* CallFunction */";
};
width = 1229;
}
);
note = s;
unicode = 115;
},
{
glyphname = t;
lastChange = "2025-02-27 18:28:35 +0000";
layers = (
{
layerId = m01;
shapes = (
{
closed = 1;
nodes = (
(1035,1082,l),
(1035,939,l),
(623,939,l),
(623,351,ls),
(623,288,o),
(655,206,o),
(683,182,qs),
(711,157,o),
(784,137,o),
(825,137,qs),
(855,137,o),
(919,144,o),
(950,149,qs),
(980,154,o),
(1033,165,o),
(1050,169,q),
(1076,38,l),
(1053,24,o),
(987,3,o),
(948,-4,qs),
(909,-12,o),
(822,-20,o),
(779,-20,qs),
(707,-20,o),
(582,21,o),
(536,66,qs),
(490,110,o),
(437,251,o),
(437,351,qs),
(437,939,l),
(153,939,l),
(153,1082,l),
(437,1082,l),
(437,1264,l),
(623,1364,l),
(623,1082,l)
);
}
);
userData = {
assembly = "NPUSHB[ ]	/* 15 values pushed */
11 1 2 1 12 1 3 2 2 76 25 0 2 0 74
MPPEM[ ]	/* MeasurePixelPerEm */
PUSHB[ ]	/* 1 value pushed */
38
LT[ ]	/* LessThan */
IF[ ]	/* If */
NPUSHB[ ]	/* 23 values pushed */
4 1 1 1 0 95 5 1 0 0 33 77 0 2 2 3 97 0 3 3 31 3 78
ELSE[ ]	/* Else */
NPUSHB[ ]	/* 21 values pushed */
5 1 0 4 1 1 2 0 1 103 0 2 2 3 97 0 3 3 31 3 78
EIF[ ]	/* EndIf */
NPUSHB[ ]	/* 9 values pushed */
17 20 37 36 17 17 6 8 28
CALL[ ]	/* CallFunction */";
};
width = 1229;
}
);
note = t;
unicode = 116;
},
{
glyphname = u;
lastChange = "2025-02-27 18:28:48 +0000";
layers = (
{
layerId = m01;
shapes = (
{
closed = 1;
nodes = (
(819,69,o),
(657,-20,o),
(551,-20,qs),
(466,-20,o),
(328,33,o),
(279,89,qs),
(230,145,o),
(177,318,o),
(177,439,qs),
(177,1082,l),
(362,1082,l),
(362,437,ls),
(362,349,o),
(390,233,o),
(418,199,qs),
(446,164,o),
(527,136,o),
(580,136,qs),
(642,136,o),
(740,165,o),
(776,191,qs),
(806,212,o),
(851,271,o),
(866,306,q),
(866,1082,l),
(1052,1082,l),
(1052,0,l),
(873,0,l),
(873,149,l)
);
}
);
userData = {
assembly = "MPPEM[ ]	/* MeasurePixelPerEm */
PUSHB[ ]	/* 1 value pushed */
39
LT[ ]	/* LessThan */
IF[ ]	/* If */
PUSHB[ ]	/* 6 values pushed */
0 1 0 2 1 76
ELSE[ ]	/* Else */
PUSHB[ ]	/* 6 values pushed */
0 1 4 2 1 76
EIF[ ]	/* EndIf */
MPPEM[ ]	/* MeasurePixelPerEm */
PUSHB[ ]	/* 1 value pushed */
10
LT[ ]	/* LessThan */
IF[ ]	/* If */
NPUSHB[ ]	/* 18 values pushed */
3 1 1 1 33 77 0 2 2 0 97 4 1 0 0 31 0 78
ELSE[ ]	/* Else */
MPPEM[ ]	/* MeasurePixelPerEm */
PUSHB[ ]	/* 1 value pushed */
11
LT[ ]	/* LessThan */
IF[ ]	/* If */
NPUSHB[ ]	/* 18 values pushed */
3 1 1 1 33 77 0 2 2 0 97 4 1 0 0 37 0 78
ELSE[ ]	/* Else */
MPPEM[ ]	/* MeasurePixelPerEm */
PUSHB[ ]	/* 1 value pushed */
13
LT[ ]	/* LessThan */
IF[ ]	/* If */
NPUSHB[ ]	/* 18 values pushed */
3 1 1 1 33 77 0 2 2 0 97 4 1 0 0 31 0 78
ELSE[ ]	/* Else */
MPPEM[ ]	/* MeasurePixelPerEm */
PUSHB[ ]	/* 1 value pushed */
38
LT[ ]	/* LessThan */
IF[ ]	/* If */
NPUSHB[ ]	/* 18 values pushed */
3 1 1 1 33 77 0 2 2 0 97 4 1 0 0 37 0 78
ELSE[ ]	/* Else */
MPPEM[ ]	/* MeasurePixelPerEm */
PUSHB[ ]	/* 1 value pushed */
39
LT[ ]	/* LessThan */
IF[ ]	/* If */
NPUSHB[ ]	/* 24 values pushed */
3 1 1 1 0 97 4 1 0 0 37 77 0 2 2 0 97 4 1 0 0 37 0 78
ELSE[ ]	/* Else */
NPUSHB[ ]	/* 22 values pushed */
3 1 1 1 4 95 0 4 4 31 77 0 2 2 0 97 0 0 0 37 0 78
EIF[ ]	/* EndIf */
EIF[ ]	/* EndIf */
EIF[ ]	/* EndIf */
EIF[ ]	/* EndIf */
EIF[ ]	/* EndIf */
PUSHB[ ]	/* 8 values pushed */
17 20 36 20 35 5 8 27
CALL[ ]	/* CallFunction */";
};
width = 1229;
}
);
note = u;
unicode = 117;
},
{
glyphname = v;
lastChange = "2025-02-27 18:32:30 +0000";
layers = (
{
layerId = m01;
shapes = (
{
closed = 1;
nodes = (
(291,1082,l),
(618,219,l),
(939,1082,l),
(1128,1082,l),
(687,0,l),
(546,0,l),
(101,1082,l)
);
}
);
userData = {
assembly = "PUSHB[ ]	/* 6 values pushed */
3 1 2 0 1 76
MPPEM[ ]	/* MeasurePixelPerEm */
PUSHB[ ]	/* 1 value pushed */
38
LT[ ]	/* LessThan */
IF[ ]	/* If */
NPUSHB[ ]	/* 13 values pushed */
1 1 0 0 33 77 3 1 2 2 31 2 78
ELSE[ ]	/* Else */
NPUSHB[ ]	/* 13 values pushed */
1 1 0 2 0 133 3 1 2 2 31 2 78
EIF[ ]	/* EndIf */
NPUSHB[ ]	/* 11 values pushed */
0 0 0 6 0 6 18 17 4 8 24
CALL[ ]	/* CallFunction */";
};
width = 1229;
}
);
note = v;
unicode = 118;
},
{
glyphname = w;
lastChange = "2025-02-27 18:33:49 +0000";
layers = (
{
layerId = m01;
shapes = (
{
closed = 1;
nodes = (
(207,1082,l),
(355,257,l),
(555,1082,l),
(674,1082,l),
(875,242,l),
(1022,1082,l),
(1186,1082,l),
(956,0,l),
(810,0,l),
(613,811,l),
(419,0,l),
(273,0,l),
(43,1082,l)
);
}
);
userData = {
assembly = "PUSHB[ ]	/* 8 values pushed */
11 6 3 3 3 1 1 76
MPPEM[ ]	/* MeasurePixelPerEm */
PUSHB[ ]	/* 1 value pushed */
38
LT[ ]	/* LessThan */
IF[ ]	/* If */
NPUSHB[ ]	/* 22 values pushed */
0 1 0 3 0 1 3 128 2 1 0 0 33 77 5 4 2 3 3 31 3 78
ELSE[ ]	/* Else */
NPUSHB[ ]	/* 22 values pushed */
0 1 0 3 0 1 3 128 2 1 0 0 3 95 5 4 2 3 3 31 3 78
EIF[ ]	/* EndIf */
NPUSHB[ ]	/* 13 values pushed */
0 0 0 12 0 12 17 18 18 17 6 8 26
CALL[ ]	/* CallFunction */";
};
width = 1229;
}
);
note = w;
unicode = 119;
},
{
glyphname = x;
lastChange = "2025-02-27 18:34:05 +0000";
layers = (
{
layerId = m01;
shapes = (
{
closed = 1;
nodes = (
(1117,1082,l),
(714,547,l),
(1128,0,l),
(914,0,l),
(615,412,l),
(316,0,l),
(100,0,l),
(514,547,l),
(111,1082,l),
(325,1082,l),
(611,681,l),
(900,1082,l)
);
}
);
userData = {
assembly = "PUSHB[ ]	/* 8 values pushed */
9 6 3 3 1 0 1 76
MPPEM[ ]	/* MeasurePixelPerEm */
PUSHB[ ]	/* 1 value pushed */
38
LT[ ]	/* LessThan */
IF[ ]	/* If */
NPUSHB[ ]	/* 13 values pushed */
3 1 0 0 33 77 2 1 1 1 31 1 78
ELSE[ ]	/* Else */
NPUSHB[ ]	/* 13 values pushed */
3 1 0 0 1 95 2 1 1 1 31 1 78
EIF[ ]	/* EndIf */
PUSHB[ ]	/* 7 values pushed */
18 18 18 17 4 8 26
CALL[ ]	/* CallFunction */";
};
width = 1229;
}
);
note = x;
unicode = 120;
},
{
glyphname = y;
lastChange = "2025-02-28 21:40:41 +0000";
layers = (
{
layerId = m01;
shapes = (
{
closed = 1;
nodes = (
(149,-437,l),
(149,-275,l),
(267,-275,l),
(305,-275,o),
(368,-233,o),
(393,-204,qs),
(417,-175,o),
(451,-114,o),
(462,-93,qs),
(536,51,l),
(70,1082,l),
(277,1082,l),
(622,273,l),
(952,1082,l),
(1159,1082,l),
(610,-167,ls),
(591,-209,o),
(532,-303,o),
(490,-343,qs),
(448,-383,o),
(336,-437,o),
(263,-437,q)
);
}
);
userData = {
assembly = "PUSHB[ ]	/* 6 values pushed */
3 1 3 0 1 76
MPPEM[ ]	/* MeasurePixelPerEm */
PUSHB[ ]	/* 1 value pushed */
38
LT[ ]	/* LessThan */
IF[ ]	/* If */
NPUSHB[ ]	/* 17 values pushed */
1 1 0 0 33 77 0 3 3 2 98 0 2 2 41 2 78
ELSE[ ]	/* Else */
NPUSHB[ ]	/* 17 values pushed */
1 1 0 3 0 133 0 3 3 2 98 0 2 2 41 2 78
EIF[ ]	/* EndIf */
PUSHB[ ]	/* 7 values pushed */
33 34 18 17 4 8 26
CALL[ ]	/* CallFunction */";
};
width = 1229;
}
);
note = y;
unicode = 121;
},
{
glyphname = z;
lastChange = "2025-02-27 18:35:50 +0000";
layers = (
{
layerId = m01;
shapes = (
{
closed = 1;
nodes = (
(1077,0,l),
(152,0,l),
(152,136,l),
(798,929,l),
(161,929,l),
(161,1082,l),
(1041,1082,l),
(1041,951,l),
(388,151,l),
(1077,151,l)
);
}
);
userData = {
assembly = "PUSHB[ ]	/* 7 values pushed */
6 1 2 2 0 1 76
MPPEM[ ]	/* MeasurePixelPerEm */
PUSHB[ ]	/* 1 value pushed */
26
LT[ ]	/* LessThan */
IF[ ]	/* If */
NPUSHB[ ]	/* 22 values pushed */
0 0 0 1 95 0 1 1 33 77 0 2 2 3 95 4 1 3 3 31 3 78
ELSE[ ]	/* Else */
NPUSHB[ ]	/* 20 values pushed */
0 1 0 0 2 1 0 103 0 2 2 3 95 4 1 3 3 31 3 78
EIF[ ]	/* EndIf */
NPUSHB[ ]	/* 12 values pushed */
0 0 0 9 0 9 18 17 18 5 8 25
CALL[ ]	/* CallFunction */";
};
width = 1229;
}
);
note = z;
unicode = 122;
},
{
glyphname = zero;
lastChange = "2025-03-01 23:11:32 +0000";
layers = (
{
layerId = m01;
shapes = (
{
closed = 1;
nodes = (
(1022,203,o),
(962,130,qs),
(902,56,o),
(728,-20,o),
(616,-20,qs),
(505,-20,o),
(329,55,o),
(268,130,qs),
(207,203,o),
(143,418,o),
(143,557,qs),
(143,898,ls),
(143,1037,o),
(207,1252,o),
(268,1326,qs),
(328,1400,o),
(503,1477,o),
(614,1477,qs),
(726,1477,o),
(901,1400,o),
(962,1326,qs),
(1022,1252,o),
(1086,1037,o),
(1086,898,qs),
(1086,557,ls),
(1086,418,o)
);
},
{
closed = 1;
nodes = (
(472,487,l),
(757,772,l),
(758,971,l),
(473,686,l)
);
},
{
closed = 1;
nodes = (
(896,1030,l),
(888,1102,o),
(847,1213,o),
(812,1250,qs),
(778,1288,o),
(679,1326,o),
(614,1326,qs),
(548,1326,o),
(447,1285,o),
(412,1246,qs),
(370,1197,o),
(329,1042,o),
(329,940,qs),
(329,696,l),
(334,420,l),
(343,347,o),
(389,236,o),
(426,200,qs),
(460,166,o),
(556,131,o),
(616,131,qs),
(679,131,o),
(777,169,o),
(811,205,qs),
(857,254,o),
(900,412,o),
(900,519,qs),
(900,725,l)
);
}
);
userData = {
assembly = "MPPEM[ ]	/* MeasurePixelPerEm */
PUSHB[ ]	/* 1 value pushed */
23
LT[ ]	/* LessThan */
IF[ ]	/* If */
NPUSHB[ ]	/* 23 values pushed */
0 0 0 2 97 0 2 2 32 77 4 1 1 1 3 97 5 1 3 3 31 3 78
ELSE[ ]	/* Else */
NPUSHB[ ]	/* 21 values pushed */
0 2 0 0 1 2 0 105 4 1 1 1 3 97 5 1 3 3 31 3 78
EIF[ ]	/* EndIf */
NPUSHB[ ]	/* 18 values pushed */
25 25 0 0 25 40 25 39 33 31 0 24 0 23 42 6 8 23
CALL[ ]	/* CallFunction */";
};
width = 1229;
}
);
note = zero;
unicode = 48;
},
{
glyphname = one;
lastChange = "2025-03-02 20:21:45 +0000";
layers = (
{
layerId = m01;
shapes = (
{
closed = 1;
nodes = (
(773,1456,l),
(588,1456,l),
(207,1244,l),
(207,1075,l),
(588,1220,l),
(588,185,l),
(341,185,l),
(341,0,l),
(1021,0,l),
(1021,185,l),
(773,185,l)
);
}
);
userData = {
assembly = "NPUSHB[ ]	/* 30 values pushed */
3 2 1 3 1 0 1 76 0 0 0 32 77 2 1 1 1 31 1 78 0 0 0 6 0 6 20 3 8 23
CALL[ ]	/* CallFunction */";
};
width = 1229;
}
);
note = one;
unicode = 49;
},
{
glyphname = two;
lastChange = "2025-02-27 20:28:57 +0000";
layers = (
{
layerId = m01;
shapes = (
{
closed = 1;
nodes = (
(1054,182,l),
(388,182,l),
(391,282,o),
(538,472,o),
(694,609,qs),
(820,720,o),
(948,814,qs),
(1054,920,o),
(1054,1081,qs),
(1054,1269,o),
(930,1375,qs),
(806,1480,o),
(621,1480,qs),
(391,1467,o),
(176,1358,q),
(175,1138,l),
(297,1214,l),
(445,1299,o),
(621,1299,qs),
(694,1299,o),
(748,1266,qs),
(830,1217,o),
(848,1157,qs),
(857,1114,o),
(857,1078,qs),
(857,1020,o),
(830,981,qs),
(741,900,o),
(557,745,qs),
(342,564,o),
(176,330,o),
(176,0,q),
(1054,0,l)
);
}
);
userData = {
assembly = "NPUSHB[ ]	/* 40 values pushed */
22 1 0 1 1 76 0 0 0 1 97 0 1 1 32 77 0 2 2 3 95 4 1 3 3 31 3 78 0 0 0 38 0 38 27 40 45 5 8 25
CALL[ ]	/* CallFunction */";
};
width = 1229;
}
);
note = two;
unicode = 50;
},
{
glyphname = three;
lastChange = "2025-03-02 12:34:22 +0000";
layers = (
{
layerId = m01;
shapes = (
{
closed = 1;
nodes = (
(1054,1052,o),
(1028,962,o),
(1001,920,qs),
(974,877,o),
(889,802,o),
(830,777,q),
(901,754,o),
(996,680,o),
(1025,634,qs),
(1053,588,o),
(1076,456,o),
(1076,406,qs),
(1076,304,o),
(1006,146,o),
(944,92,qs),
(882,37,o),
(713,-20,o),
(615,-20,qs),
(519,-20,o),
(350,34,o),
(288,86,qs),
(226,138,o),
(153,288,o),
(153,384,q),
(338,384,l),
(338,327,o),
(377,233,o),
(413,200,qs),
(449,167,o),
(552,131,o),
(615,131,qs),
(678,131,o),
(780,164,o),
(816,198,qs),
(852,232,o),
(891,333,o),
(891,402,qs),
(891,470,o),
(846,599,o),
(806,632,qs),
(765,665,o),
(650,697,o),
(581,697,qs),
(449,697,l),
(449,847,l),
(581,847,ls),
(651,847,o),
(758,885,o),
(795,918,qs),
(831,951,o),
(869,1042,o),
(869,1097,q),
(869,1305,l),
(248,1305,l),
(248,1456,l),
(1054,1456,l),
(1054,1094,ls)
);
}
);
userData = {
assembly = "NPUSHB[ ]	/* 52 values pushed */
36 31 2 2 3 15 1 1 2 14 1 0 1 3 76 0 2 3 1 3 2 1 128 0 3 3 4 95 0 4 4 32 77 0 1 1 0 97 0 0 0 31 0 78 17 18 41 36 43 5 8 27
CALL[ ]	/* CallFunction */";
};
width = 1229;
}
);
note = three;
unicode = 51;
},
{
glyphname = four;
lastChange = "2025-02-27 12:53:30 +0000";
layers = (
{
layerId = m01;
shapes = (
{
closed = 1;
nodes = (
(924,814,l),
(924,489,l),
(1127,489,l),
(1127,338,l),
(924,338,l),
(924,0,l),
(739,0,l),
(739,338,l),
(75,338,l),
(75,447,l),
(727,1456,l),
(924,1456,l),
(280,489,l),
(739,489,l),
(739,814,l)
);
}
);
userData = {
assembly = "NPUSHB[ ]	/* 42 values pushed */
12 1 0 1 1 76 2 1 0 5 1 3 4 0 3 104 0 6 6 32 77 0 1 1 4 95 0 4 4 31 4 78 18 17 17 17 17 17 16 7 8 29
CALL[ ]	/* CallFunction */";
};
width = 1229;
}
);
note = four;
unicode = 52;
},
{
glyphname = five;
lastChange = "2025-03-02 12:32:58 +0000";
layers = (
{
layerId = m01;
shapes = (
{
closed = 1;
nodes = (
(1003,1456,l),
(1003,1276,l),
(412,1276,l),
(371,888,l),
(414,913,o),
(534,951,o),
(613,951,qs),
(714,951,o),
(874,881,o),
(930,818,qs),
(986,754,o),
(1046,574,o),
(1046,464,qs),
(1046,360,o),
(990,182,o),
(934,118,qs),
(877,53,o),
(734,-20,o),
(589,-20,q),
(183,-20,l),
(183,164,l),
(589,161,l),
(713,160,o),
(782,232,qs),
(820,272,o),
(861,387,o),
(861,462,qs),
(861,530,o),
(822,648,o),
(785,692,qs),
(748,735,o),
(640,785,o),
(570,785,qs),
(524,785,o),
(457,772,o),
(430,760,qs),
(403,748,o),
(356,714,o),
(331,692,q),
(183,730,l),
(256,1456,l)
);
}
);
userData = {
assembly = "NPUSHB[ ]	/* 11 values pushed */
4 1 5 2 27 15 2 4 5 2 76
MPPEM[ ]	/* MeasurePixelPerEm */
PUSHB[ ]	/* 1 value pushed */
31
LT[ ]	/* LessThan */
IF[ ]	/* If */
NPUSHB[ ]	/* 31 values pushed */
0 1 1 0 95 0 0 0 32 77 0 5 5 2 97 0 2 2 33 77 0 4 4 3 97 0 3 3 31 3 78
ELSE[ ]	/* Else */
NPUSHB[ ]	/* 29 values pushed */
0 2 0 5 4 2 5 105 0 1 1 0 95 0 0 0 32 77 0 4 4 3 97 0 3 3 31 3 78
EIF[ ]	/* EndIf */
NPUSHB[ ]	/* 9 values pushed */
36 50 36 50 17 16 6 8 28
CALL[ ]	/* CallFunction */";
};
width = 1229;
}
);
note = five;
unicode = 53;
},
{
glyphname = six;
lastChange = "2025-02-27 13:04:04 +0000";
layers = (
{
layerId = m01;
shapes = (
{
closed = 1;
nodes = (
(426,884,l),
(477,913,l),
(516,932,o),
(607,955,o),
(657,955,qs),
(766,955,o),
(924,872,o),
(975,804,qs),
(1026,736,o),
(1074,564,o),
(1074,475,qs),
(1074,373,o),
(1017,193,o),
(960,126,qs),
(903,58,o),
(734,-20,o),
(623,-20,qs),
(511,-20,o),
(341,70,o),
(283,142,qs),
(218,221,o),
(154,432,o),
(154,538,qs),
(154,625,ls),
(154,807,o),
(426,1214,o),
(674,1456,q),
(903,1456,l),
(622,1119,l)
);
},
{
closed = 1;
nodes = (
(510,788,o),
(465,762,qs),
(429,741,o),
(394,707,qs),
(359,661,o),
(341,533,qs),
(341,437,o),
(387,288,o),
(426,237,qs),
(465,186,o),
(567,133,o),
(623,133,qs),
(688,133,o),
(788,183,o),
(823,227,qs),
(857,271,o),
(892,394,o),
(892,466,qs),
(892,530,o),
(860,651,o),
(827,698,qs),
(794,745,o),
(694,801,o),
(627,801,qs),
(580,801,o)
);
}
);
userData = {
assembly = "NPUSHB[ ]	/* 41 values pushed */
0 2 5 1 1 0 2 1 106 0 4 4 32 77 0 0 0 3 97 0 3 3 31 3 78 0 0 39 38 31 29 21 19 0 17 0 16 39 6 8 23
CALL[ ]	/* CallFunction */";
};
width = 1229;
}
);
note = six;
unicode = 54;
},
{
glyphname = seven;
lastChange = "2025-03-02 20:22:04 +0000";
layers = (
{
layerId = m01;
shapes = (
{
closed = 1;
nodes = (
(910,1294,l),
(906,1283,o),
(843,1202,q),
(831,1192,o),
(580,909,qs),
(449,761,o),
(371,502,q),
(324,377,o),
(309,0,q),
(503,0,l),
(520,271,l),
(540,459,o),
(599,568,q),
(700,786,o),
(848,927,qs),
(1082,1149,o),
(1101,1370,qs),
(1106,1429,o),
(1106,1456,q),
(122,1456,l),
(122,1130,l),
(285,1130,l),
(285,1294,l)
);
}
);
userData = {
assembly = "NPUSHB[ ]	/* 34 values pushed */
10 1 1 2 1 76 3 1 2 2 0 95 0 0 0 32 77 0 1 1 31 1 78 0 0 0 20 0 19 25 17 4 8 24
CALL[ ]	/* CallFunction */";
};
width = 1229;
}
);
note = seven;
unicode = 55;
},
{
glyphname = eight;
lastChange = "2025-02-27 13:05:35 +0000";
layers = (
{
layerId = m01;
shapes = (
{
closed = 1;
nodes = (
(989,876,o),
(941,828,qs),
(918,805,o),
(862,765,o),
(830,749,q),
(886,725,o),
(977,654,o),
(1010,608,qs),
(1042,562,o),
(1077,454,o),
(1077,393,qs),
(1077,294,o),
(1004,140,o),
(942,88,qs),
(879,35,o),
(711,-20,o),
(615,-20,qs),
(517,-20,o),
(348,34,o),
(286,87,qs),
(223,139,o),
(151,293,o),
(151,393,qs),
(151,454,o),
(185,563,o),
(217,609,qs),
(249,654,o),
(339,726,o),
(395,750,q),
(347,774,o),
(269,841,o),
(242,883,qs),
(215,924,o),
(185,1022,o),
(185,1076,qs),
(185,1171,o),
(249,1320,o),
(306,1371,qs),
(362,1422,o),
(519,1476,o),
(612,1476,qs),
(704,1476,o),
(862,1422,o),
(920,1371,qs),
(978,1320,o),
(1044,1171,o),
(1044,1076,qs),
(1043,1003,o)
);
},
{
closed = 1;
nodes = (
(851,560,o),
(814,597,qs),
(777,633,o),
(674,673,o),
(613,673,qs),
(550,673,o),
(448,633,o),
(412,597,qs),
(376,560,o),
(337,458,o),
(337,397,qs),
(337,334,o),
(376,235,o),
(412,201,qs),
(448,167,o),
(551,131,o),
(615,131,qs),
(676,131,o),
(778,167,o),
(815,201,qs),
(851,235,o),
(892,334,o),
(892,397,qs),
(892,458,o)
);
},
{
closed = 1;
nodes = (
(821,1220,o),
(789,1254,qs),
(756,1287,o),
(666,1324,o),
(612,1324,qs),
(558,1324,o),
(470,1289,o),
(438,1256,qs),
(406,1223,o),
(371,1130,o),
(371,1073,qs),
(371,1016,o),
(406,925,o),
(439,893,qs),
(471,860,o),
(560,825,o),
(614,825,qs),
(667,825,o),
(757,860,o),
(790,893,qs),
(822,925,o),
(858,1017,o),
(858,1073,qs),
(858,1128,o)
);
}
);
userData = {
assembly = "NPUSHB[ ]	/* 9 values pushed */
59 27 17 13 4 1 0 1 76
MPPEM[ ]	/* MeasurePixelPerEm */
PUSHB[ ]	/* 1 value pushed */
22
LT[ ]	/* LessThan */
IF[ ]	/* If */
NPUSHB[ ]	/* 22 values pushed */
0 0 0 2 97 0 2 2 32 77 4 1 1 1 3 97 0 3 3 31 3 78
ELSE[ ]	/* Else */
NPUSHB[ ]	/* 20 values pushed */
0 2 0 0 1 2 0 105 4 1 1 1 3 97 0 3 3 31 3 78
EIF[ ]	/* EndIf */
NPUSHB[ ]	/* 14 values pushed */
19 18 69 67 51 48 18 37 19 36 39 5 8 23
CALL[ ]	/* CallFunction */";
};
width = 1229;
}
);
note = eight;
unicode = 56;
},
{
glyphname = nine;
lastChange = "2025-02-27 13:04:42 +0000";
layers = (
{
layerId = m01;
shapes = (
{
closed = 1;
nodes = (
(802,572,l),
(751,543,l),
(712,524,o),
(621,501,o),
(571,501,qs),
(462,501,o),
(304,584,o),
(253,652,qs),
(202,720,o),
(154,892,o),
(154,981,qs),
(154,1083,o),
(211,1263,o),
(268,1330,qs),
(325,1398,o),
(494,1476,o),
(605,1476,qs),
(717,1476,o),
(887,1386,o),
(945,1314,qs),
(1010,1235,o),
(1074,1024,o),
(1074,918,qs),
(1074,831,ls),
(1074,649,o),
(802,242,o),
(554,0,q),
(325,0,l),
(606,337,l)
);
},
{
closed = 1;
nodes = (
(718,668,o),
(763,694,qs),
(799,715,o),
(834,749,qs),
(869,795,o),
(887,923,qs),
(887,1019,o),
(841,1168,o),
(802,1219,qs),
(763,1270,o),
(661,1323,o),
(605,1323,qs),
(540,1323,o),
(440,1273,o),
(405,1229,qs),
(371,1185,o),
(336,1062,o),
(336,990,qs),
(336,926,o),
(368,805,o),
(401,758,qs),
(434,711,o),
(534,655,o),
(601,655,qs),
(648,655,o)
);
}
);
userData = {
assembly = "NPUSHB[ ]	/* 41 values pushed */
5 1 1 0 2 4 1 2 105 0 0 0 3 97 0 3 3 32 77 0 4 4 31 4 78 0 0 39 38 31 29 21 19 0 17 0 16 39 6 8 23
CALL[ ]	/* CallFunction */";
};
width = 1229;
}
);
note = nine;
unicode = 57;
},
{
glyphname = AE;
lastChange = "2025-03-02 13:20:34 +0000";
layers = (
{
layerId = m01;
shapes = (
{
closed = 1;
nodes = (
(571,1170,l),
(376,538,l),
(571,538,l)
);
},
{
closed = 1;
nodes = (
(1204,157,l),
(1204,0,l),
(571,0,l),
(571,377,l),
(326,377,l),
(209,0,l),
(24,0,l),
(494,1456,l),
(1196,1456,l),
(1197,1298,l),
(755,1298,l),
(755,830,l),
(1132,830,l),
(1132,673,l),
(755,673,l),
(755,157,l)
);
}
);
userData = {
assembly = "MPPEM[ ]	/* MeasurePixelPerEm */
PUSHB[ ]	/* 1 value pushed */
26
LT[ ]	/* LessThan */
IF[ ]	/* If */
NPUSHB[ ]	/* 40 values pushed */
0 4 0 5 0 4 5 103 0 0 0 8 6 0 8 103 3 1 1 1 2 95 0 2 2 30 77 0 6 6 7 95 10 9 2 7 7 31 7 78
ELSE[ ]	/* Else */
NPUSHB[ ]	/* 38 values pushed */
0 2 3 1 1 4 2 1 103 0 4 0 5 0 4 5 103 0 0 0 8 6 0 8 103 0 6 6 7 95 10 9 2 7 7 31 7 78
EIF[ ]	/* EndIf */
NPUSHB[ ]	/* 18 values pushed */
4 4 4 19 4 19 17 17 17 17 17 17 18 17 16 11 8 31
CALL[ ]	/* CallFunction */";
};
width = 1229;
}
);
note = AE;
unicode = 198;
},
{
glyphname = Hbar;
lastChange = "2025-03-02 10:57:20 +0000";
layers = (
{
layerId = m01;
shapes = (
{
closed = 1;
nodes = (
(315,0,l),
(315,673,l),
(912,673,l),
(912,0,l),
(1087,0,l),
(1087,1082,l),
(1204,1082,l),
(1204,1242,l),
(1087,1242,l),
(1087,1456,l),
(912,1456,l),
(912,1242,l),
(315,1242,l),
(315,1456,l),
(141,1456,l),
(141,1242,l),
(24,1242,l),
(24,1082,l),
(141,1082,l),
(141,0,l)
);
},
{
closed = 1;
nodes = (
(315,1082,l),
(912,1082,l),
(912,830,l),
(315,830,l)
);
}
);
userData = {
assembly = "MPPEM[ ]	/* MeasurePixelPerEm */
PUSHB[ ]	/* 1 value pushed */
39
LT[ ]	/* LessThan */
IF[ ]	/* If */
NPUSHB[ ]	/* 35 values pushed */
5 3 2 1 10 6 2 0 11 1 0 103 13 1 11 0 8 7 11 8 103 4 1 2 2 30 77 12 9 2 7 7 31 7 78
ELSE[ ]	/* Else */
NPUSHB[ ]	/* 35 values pushed */
5 3 2 1 10 6 2 0 11 1 0 103 13 1 11 0 8 7 11 8 103 4 1 2 2 7 95 12 9 2 7 7 31 7 78
EIF[ ]	/* EndIf */
NPUSHB[ ]	/* 26 values pushed */
20 20 0 0 20 23 20 23 22 21 0 19 0 19 17 17 17 17 17 17 17 17 17 14 8 31
CALL[ ]	/* CallFunction */";
};
width = 1229;
}
);
note = Hbar;
unicode = 294;
},
{
glyphname = Eng;
lastChange = "2025-03-02 11:17:45 +0000";
layers = (
{
layerId = m01;
shapes = (
{
closed = 1;
nodes = (
(1053,-171,o),
(1010,-300,o),
(970,-345,qs),
(929,-390,o),
(811,-437,o),
(735,-437,qs),
(705,-437,o),
(654,-429,o),
(625,-419,q),
(639,-272,l),
(659,-278,o),
(717,-285,o),
(735,-285,qs),
(761,-285,o),
(802,-267,o),
(818,-251,qs),
(842,-225,o),
(867,-142,o),
(867,-89,qs),
(867,2,l),
(360,1069,l),
(360,0,l),
(175,0,l),
(175,1456,l),
(360,1456,l),
(363,1450,l),
(867,389,l),
(867,1456,l),
(1052,1456,l),
(1053,-89,ls)
);
}
);
userData = {
assembly = "PUSHB[ ]	/* 7 values pushed */
18 3 2 4 0 1 76
MPPEM[ ]	/* MeasurePixelPerEm */
PUSHB[ ]	/* 1 value pushed */
22
LT[ ]	/* LessThan */
IF[ ]	/* If */
NPUSHB[ ]	/* 23 values pushed */
1 1 0 0 30 77 5 1 4 4 31 77 0 3 3 2 97 0 2 2 41 2 78
ELSE[ ]	/* Else */
MPPEM[ ]	/* MeasurePixelPerEm */
PUSHB[ ]	/* 1 value pushed */
39
LT[ ]	/* LessThan */
IF[ ]	/* If */
NPUSHB[ ]	/* 20 values pushed */
0 3 0 2 3 2 101 1 1 0 0 30 77 5 1 4 4 31 4 78
ELSE[ ]	/* Else */
NPUSHB[ ]	/* 20 values pushed */
0 3 0 2 3 2 101 1 1 0 0 4 95 5 1 4 4 31 4 78
EIF[ ]	/* EndIf */
EIF[ ]	/* EndIf */
NPUSHB[ ]	/* 13 values pushed */
0 0 0 19 0 19 33 35 18 17 6 8 26
CALL[ ]	/* CallFunction */";
};
width = 1229;
}
);
note = Eng;
unicode = 330;
},
{
glyphname = Oslash;
lastChange = "2025-03-02 11:15:40 +0000";
layers = (
{
layerId = m01;
shapes = (
{
closed = 1;
nodes = (
(403,-132,l),
(452,9,l),
(523,-17,o),
(616,-20,qs),
(706,-20,o),
(851,35,o),
(907,83,qs),
(963,131,o),
(1044,259,o),
(1070,333,qs),
(1096,407,o),
(1121,566,o),
(1122,644,qs),
(1122,810,ls),
(1121,888,o),
(1096,1048,o),
(1070,1122,qs),
(1043,1196,o),
(963,1320,o),
(920,1361,q),
(999,1588,l),
(825,1588,l),
(777,1449,l),
(706,1475,o),
(614,1476,qs),
(524,1476,o),
(379,1421,o),
(323,1373,qs),
(267,1324,o),
(186,1195,o),
(160,1121,qs),
(133,1047,o),
(108,888,o),
(107,810,qs),
(107,644,ls),
(108,566,o),
(134,408,o),
(161,334,qs),
(187,260,o),
(267,138,o),
(309,99,q),
(229,-132,l)
);
},
{
closed = 1;
nodes = (
(344,342,o),
(318,424,qs),
(303,479,o),
(290,593,o),
(289,644,qs),
(289,812,ls),
(290,863,o),
(303,976,o),
(318,1032,qs),
(332,1087,o),
(380,1188,o),
(416,1227,qs),
(452,1265,o),
(520,1311,o),
(614,1311,qs),
(694,1308,o),
(723,1291,q),
(375,288,l)
);
},
{
closed = 1;
nodes = (
(545,147,o),
(506,166,q),
(855,1171,l),
(889,1115,o),
(912,1033,qs),
(926,977,o),
(938,864,o),
(939,812,qs),
(939,644,ls),
(938,592,o),
(927,478,o),
(913,423,qs),
(898,367,o),
(851,266,o),
(816,228,qs),
(780,189,o),
(683,143,o),
(616,143,qs)
);
}
);
userData = {
assembly = "NPUSHB[ ]	/* 18 values pushed */
10 7 2 5 0 43 30 29 3 4 5 23 20 2 2 4 3 76
MPPEM[ ]	/* MeasurePixelPerEm */
PUSHB[ ]	/* 1 value pushed */
25
LT[ ]	/* LessThan */
IF[ ]	/* If */
NPUSHB[ ]	/* 31 values pushed */
0 1 0 1 133 0 3 2 3 134 0 5 5 0 97 0 0 0 30 77 0 4 4 2 98 0 2 2 31 2 78
ELSE[ ]	/* Else */
NPUSHB[ ]	/* 29 values pushed */
0 1 0 1 133 0 3 2 3 134 0 0 0 5 4 0 5 105 0 4 4 2 98 0 2 2 31 2 78
EIF[ ]	/* EndIf */
NPUSHB[ ]	/* 9 values pushed */
35 41 18 40 18 36 6 8 28
CALL[ ]	/* CallFunction */";
};
width = 1229;
}
);
note = Oslash;
unicode = 216;
},
{
glyphname = Thorn;
lastChange = "2025-03-02 11:17:24 +0000";
layers = (
{
layerId = m01;
shapes = (
{
closed = 1;
nodes = (
(630,1163,ls),
(747,1163,o),
(928,1100,o),
(991,1044,qs),
(1053,987,o),
(1118,831,o),
(1118,738,qs),
(1118,645,o),
(1053,489,o),
(991,433,qs),
(928,376,o),
(747,313,o),
(630,313,qs),
(353,313,l),
(353,0,l),
(168,0,l),
(168,1456,l),
(353,1456,l),
(353,1163,l)
);
},
{
closed = 1;
nodes = (
(630,465,ls),
(708,465,o),
(822,510,o),
(860,548,qs),
(897,585,o),
(933,683,o),
(933,736,qs),
(933,790,o),
(897,889,o),
(860,928,qs),
(823,966,o),
(708,1011,o),
(630,1011,qs),
(353,1011,l),
(353,465,l)
);
}
);
userData = {
assembly = "NPUSHB[ ]	/* 44 values pushed */
0 1 0 5 4 1 5 103 0 4 0 2 3 4 2 103 0 0 0 3 95 6 1 3 3 31 3 78 0 0 19 17 14 12 0 11 0 11 35 33 17 7 8 25
CALL[ ]	/* CallFunction */";
};
width = 1229;
}
);
note = Thorn;
unicode = 222;
},
{
glyphname = uni1E9E;
lastChange = "2025-03-02 11:20:18 +0000";
layers = (
{
layerId = m01;
shapes = (
{
closed = 1;
nodes = (
(269,1112,ls),
(272,1261,o),
(373,1358,qs),
(428,1412,o),
(579,1412,qs),
(644,1412,o),
(717,1412,qs),
(814,1412,o),
(770,1326,o),
(668,1169,qs),
(520,940,l),
(520,737,l),
(663,737,o),
(750,675,qs),
(859,598,o),
(860,453,qs),
(860,446,ls),
(860,321,o),
(793,250,qs),
(692,185,o),
(495,182,q),
(495,0,l),
(763,0,o),
(939,117,qs),
(1051,213,o),
(1051,440,qs),
(1052,646,o),
(939,751,qs),
(814,868,o),
(692,883,q),
(1141,1597,l),
(847,1599,o),
(589,1598,qs),
(579,1598,ls),
(378,1597,o),
(256,1509,qs),
(87,1389,o),
(87,1116,qs),
(87,0,l),
(269,0,l)
);
}
);
userData = {
assembly = "PUSHB[ ]	/* 8 values pushed */
29 28 10 3 2 3 1 76
MPPEM[ ]	/* MeasurePixelPerEm */
PUSHB[ ]	/* 1 value pushed */
34
LT[ ]	/* LessThan */
IF[ ]	/* If */
NPUSHB[ ]	/* 23 values pushed */
0 3 3 0 95 0 0 0 32 77 0 2 2 1 97 5 4 2 1 1 31 1 78
ELSE[ ]	/* Else */
NPUSHB[ ]	/* 21 values pushed */
0 0 0 3 2 0 3 103 0 2 2 1 97 5 4 2 1 1 31 1 78
EIF[ ]	/* EndIf */
NPUSHB[ ]	/* 13 values pushed */
0 0 0 41 0 41 77 17 25 68 6 8 26
CALL[ ]	/* CallFunction */";
};
width = 1229;
}
);
note = uni1E9E;
unicode = 7838;
},
{
glyphname = uniA78B;
lastChange = "2025-03-02 12:23:12 +0000";
layers = (
{
layerId = m01;
shapes = (
{
closed = 1;
nodes = (
(723,456,l),
(764,1456,l),
(464,1456,l),
(503,456,l)
);
}
);
userData = {
assembly = "MPPEM[ ]	/* MeasurePixelPerEm */
PUSHB[ ]	/* 1 value pushed */
39
LT[ ]	/* LessThan */
IF[ ]	/* If */
NPUSHB[ ]	/* 11 values pushed */
0 1 1 0 95 0 0 0 30 1 78
ELSE[ ]	/* Else */
NPUSHB[ ]	/* 16 values pushed */
0 0 1 1 0 87 0 0 0 1 95 0 1 0 1 79
EIF[ ]	/* EndIf */
PUSHB[ ]	/* 5 values pushed */
17 16 2 8 24
CALL[ ]	/* CallFunction */";
};
width = 1229;
}
);
note = uniA78B;
unicode = 42891;
},
{
glyphname = uni0187;
lastChange = "2025-03-02 11:33:13 +0000";
layers = (
{
layerId = m01;
shapes = (
{
closed = 1;
nodes = (
(802,1756,l),
(1143,1756,l),
(1143,1619,l),
(939,1619,l),
(939,1010,l),
(783,1010,l),
(775,1076,o),
(738,1190,o),
(707,1233,qs),
(675,1276,o),
(585,1325,o),
(523,1325,qs),
(467,1325,o),
(382,1282,o),
(351,1245,qs),
(320,1208,o),
(279,1110,o),
(266,1055,qs),
(253,1000,o),
(242,885,o),
(242,831,qs),
(242,626,ls),
(242,572,o),
(253,457,o),
(266,402,qs),
(279,346,o),
(319,248,o),
(351,211,qs),
(382,173,o),
(467,130,o),
(523,130,qs),
(585,130,o),
(675,176,o),
(707,218,qs),
(738,259,o),
(775,372,o),
(783,438,q),
(939,438,l),
(928,337,o),
(862,168,o),
(810,108,qs),
(757,47,o),
(612,-20,o),
(523,-20,qs),
(447,-20,o),
(323,31,o),
(274,76,qs),
(225,121,o),
(155,243,o),
(132,315,qs),
(109,387,o),
(86,545,o),
(85,626,qs),
(85,829,ls),
(86,910,o),
(109,1068,o),
(132,1140,qs),
(155,1212,o),
(225,1335,o),
(274,1380,qs),
(323,1425,o),
(446,1476,o),
(523,1476,qs),
(612,1476,o),
(752,1413,o),
(802,1363,q)
);
}
);
userData = {
assembly = "MPPEM[ ]	/* MeasurePixelPerEm */
PUSHB[ ]	/* 1 value pushed */
39
LT[ ]	/* LessThan */
IF[ ]	/* If */
NPUSHB[ ]	/* 45 values pushed */
8 1 3 4 0 4 3 0 128 0 0 5 4 0 5 126 0 6 0 7 2 6 7 105 0 4 4 2 97 0 2 2 36 77 0 5 5 1 97 0 1 1 31 1 78
ELSE[ ]	/* Else */
NPUSHB[ ]	/* 43 values pushed */
8 1 3 4 0 4 3 0 128 0 0 5 4 0 5 126 0 6 0 7 2 6 7 105 0 2 0 4 3 2 4 105 0 5 5 1 97 0 1 1 31 1 78
EIF[ ]	/* EndIf */
NPUSHB[ ]	/* 12 values pushed */
18 33 38 39 36 19 42 51 16 9 8 31
CALL[ ]	/* CallFunction */";
};
width = 1229;
}
);
note = uni0187;
unicode = 391;
},
{
glyphname = adieresis;
lastChange = "2025-03-01 19:58:09 +0000";
layers = (
{
layerId = m01;
shapes = (
{
closed = 1;
nodes = (
(874,118,l),
(846,90,o),
(777,40,o),
(736,21,qs),
(694,2,o),
(600,-20,o),
(547,-20,qs),
(461,-20,o),
(322,30,o),
(274,73,qs),
(225,115,o),
(172,232,o),
(172,300,qs),
(172,389,o),
(243,523,o),
(308,568,qs),
(373,612,o),
(556,656,o),
(669,656,qs),
(871,656,l),
(871,741,ls),
(871,790,o),
(835,868,o),
(802,896,qs),
(769,923,o),
(674,953,o),
(615,953,qs),
(560,953,o),
(473,925,o),
(443,902,qs),
(413,879,o),
(380,816,o),
(380,782,q),
(194,782,l),
(195,841,o),
(254,955,o),
(310,1001,qs),
(365,1046,o),
(524,1102,o),
(625,1102,qs),
(717,1102,o),
(875,1057,o),
(933,1012,qs),
(990,966,o),
(1056,830,o),
(1056,739,qs),
(1056,0,l),
(874,0,l)
);
},
{
closed = 1;
nodes = (
(722,169,o),
(761,192,qs),
(799,215,o),
(855,274,o),
(871,306,q),
(871,525,l),
(699,525,ls),
(603,525,o),
(460,492,o),
(418,458,qs),
(388,434,o),
(357,368,o),
(357,326,qs),
(357,286,o),
(384,218,o),
(411,194,qs),
(438,169,o),
(520,141,o),
(574,141,qs),
(628,141,o)
);
},
{
ref = dieresis;
}
);
userData = {
assembly = "MPPEM[ ]	/* MeasurePixelPerEm */
PUSHB[ ]	/* 1 value pushed */
28
LT[ ]	/* LessThan */
IF[ ]	/* If */
NPUSHB[ ]	/* 14 values pushed */
34 1 7 9 20 1 5 4 21 1 6 5 3 76
ELSE[ ]	/* Else */
NPUSHB[ ]	/* 14 values pushed */
34 1 7 9 20 1 5 4 21 1 11 5 3 76
EIF[ ]	/* EndIf */
MPPEM[ ]	/* MeasurePixelPerEm */
PUSHB[ ]	/* 1 value pushed */
13
LT[ ]	/* LessThan */
IF[ ]	/* If */
NPUSHB[ ]	/* 50 values pushed */
0 9 8 7 8 9 7 128 0 7 0 4 5 7 4 105 3 1 1 1 0 95 2 1 0 0 30 77 0 8 8 10 97 0 10 10 33 77 0 5 5 6 97 11 1 6 6 37 6 78
ELSE[ ]	/* Else */
MPPEM[ ]	/* MeasurePixelPerEm */
PUSHB[ ]	/* 1 value pushed */
14
LT[ ]	/* LessThan */
IF[ ]	/* If */
NPUSHB[ ]	/* 50 values pushed */
0 9 8 7 8 9 7 128 0 7 0 4 5 7 4 105 3 1 1 1 0 95 2 1 0 0 30 77 0 8 8 10 97 0 10 10 33 77 0 5 5 6 97 11 1 6 6 31 6 78
ELSE[ ]	/* Else */
MPPEM[ ]	/* MeasurePixelPerEm */
PUSHB[ ]	/* 1 value pushed */
28
LT[ ]	/* LessThan */
IF[ ]	/* If */
NPUSHB[ ]	/* 50 values pushed */
0 9 8 7 8 9 7 128 0 7 0 4 5 7 4 105 3 1 1 1 0 95 2 1 0 0 30 77 0 8 8 10 97 0 10 10 33 77 0 5 5 6 97 11 1 6 6 37 6 78
ELSE[ ]	/* Else */
MPPEM[ ]	/* MeasurePixelPerEm */
PUSHB[ ]	/* 1 value pushed */
38
LT[ ]	/* LessThan */
IF[ ]	/* If */
NPUSHB[ ]	/* 54 values pushed */
0 9 8 7 8 9 7 128 0 7 0 4 5 7 4 105 3 1 1 1 0 95 2 1 0 0 30 77 0 8 8 10 97 0 10 10 33 77 0 11 11 31 77 0 5 5 6 97 0 6 6 37 6 78
ELSE[ ]	/* Else */
MPPEM[ ]	/* MeasurePixelPerEm */
PUSHB[ ]	/* 1 value pushed */
39
LT[ ]	/* LessThan */
IF[ ]	/* If */
NPUSHB[ ]	/* 52 values pushed */
0 9 8 7 8 9 7 128 0 10 0 8 9 10 8 105 0 7 0 4 5 7 4 105 3 1 1 1 0 95 2 1 0 0 30 77 0 11 11 31 77 0 5 5 6 97 0 6 6 37 6 78
ELSE[ ]	/* Else */
NPUSHB[ ]	/* 50 values pushed */
0 9 8 7 8 9 7 128 2 1 0 3 1 1 10 0 1 103 0 10 0 8 9 10 8 105 0 7 0 4 5 7 4 105 0 11 11 31 77 0 5 5 6 97 0 6 6 37 6 78
EIF[ ]	/* EndIf */
EIF[ ]	/* EndIf */
EIF[ ]	/* EndIf */
EIF[ ]	/* EndIf */
EIF[ ]	/* EndIf */
NPUSHB[ ]	/* 18 values pushed */
49 48 45 43 41 40 36 52 37 36 65 17 17 17 16 12 8 31
CALL[ ]	/* CallFunction */";
};
width = 1229;
}
);
note = adieresis;
unicode = 228;
},
{
glyphname = eth;
lastChange = "2025-03-01 21:41:38 +0000";
layers = (
{
layerId = m01;
shapes = (
{
closed = 1;
nodes = (
(1066,839,o),
(1066,633,qs),
(1066,571,ls),
(1066,489,o),
(1039,344,o),
(1014,283,qs),
(980,207,o),
(882,87,o),
(819,48,qs),
(764,15,o),
(636,-20,o),
(565,-20,qs),
(457,-20,o),
(276,55,o),
(211,121,qs),
(145,187,o),
(73,365,o),
(73,467,qs),
(73,582,o),
(146,770,o),
(212,837,qs),
(277,904,o),
(456,977,o),
(561,977,qs),
(649,977,o),
(802,909,o),
(859,853,q),
(836,963,o),
(746,1131,o),
(684,1194,q),
(418,1042,l),
(345,1141,l),
(584,1278,l),
(543,1305,o),
(456,1346,o),
(410,1362,q),
(467,1521,l),
(547,1499,o),
(690,1426,o),
(753,1375,q),
(983,1507,l),
(1056,1407,l),
(845,1286,l),
(949,1168,o)
);
},
{
closed = 1;
nodes = (
(693,155,o),
(726,179,qs),
(765,206,o),
(826,292,o),
(847,350,qs),
(863,397,o),
(881,509,o),
(881,571,qs),
(881,635,ls),
(881,648,o),
(880,672,o),
(880,685,q),
(846,739,o),
(686,825,o),
(561,825,qs),
(492,825,o),
(380,768,o),
(341,719,qs),
(301,670,o),
(259,540,o),
(259,467,qs),
(259,405,o),
(301,284,o),
(341,237,qs),
(380,189,o),
(495,130,o),
(569,130,qs),
(614,130,o)
);
}
);
userData = {
assembly = "NPUSHB[ ]	/* 53 values pushed */
18 17 16 15 14 12 11 10 8 7 10 1 74 0 1 0 3 2 1 3 103 5 1 2 2 0 95 4 1 0 0 31 0 78 26 25 1 0 32 29 25 36 26 35 6 4 0 24 1 23 6 8 22
CALL[ ]	/* CallFunction */";
};
width = 1229;
}
);
note = eth;
unicode = 240;
},
{
glyphname = dotlessi;
lastChange = "2025-03-01 20:40:16 +0000";
layers = (
{
layerId = m01;
shapes = (
{
closed = 1;
nodes = (
(876,0,l),
(691,0,l),
(691,921,l),
(323,921,l),
(323,1082,l),
(876,1082,l)
);
}
);
userData = {
assembly = "MPPEM[ ]	/* MeasurePixelPerEm */
PUSHB[ ]	/* 1 value pushed */
38
LT[ ]	/* LessThan */
IF[ ]	/* If */
NPUSHB[ ]	/* 16 values pushed */
0 2 2 0 95 0 0 0 33 77 0 1 1 31 1 78
ELSE[ ]	/* Else */
NPUSHB[ ]	/* 14 values pushed */
0 0 0 2 1 0 2 103 0 1 1 31 1 78
EIF[ ]	/* EndIf */
PUSHB[ ]	/* 6 values pushed */
17 17 16 3 8 25
CALL[ ]	/* CallFunction */";
};
width = 1229;
}
);
note = dotlessi;
unicode = 305;
},
{
glyphname = uni0237;
lastChange = "2025-03-01 20:49:14 +0000";
layers = (
{
layerId = m01;
shapes = (
{
closed = 1;
nodes = (
(931,-7,ls),
(931,-111,o),
(874,-271,o),
(820,-325,qs),
(765,-380,o),
(608,-437,o),
(508,-437,qs),
(477,-437,o),
(419,-435,o),
(391,-433,qs),
(368,-431,o),
(322,-424,o),
(297,-420,q),
(310,-268,l),
(327,-271,o),
(379,-276,o),
(406,-277,qs),
(432,-279,o),
(481,-280,o),
(495,-280,qs),
(547,-280,o),
(639,-253,o),
(673,-221,qs),
(707,-189,o),
(746,-84,o),
(746,-7,qs),
(746,921,l),
(385,921,l),
(385,1082,l),
(931,1082,l)
);
}
);
userData = {
assembly = "MPPEM[ ]	/* MeasurePixelPerEm */
PUSHB[ ]	/* 1 value pushed */
38
LT[ ]	/* LessThan */
IF[ ]	/* If */
NPUSHB[ ]	/* 21 values pushed */
0 3 3 0 95 0 0 0 33 77 0 2 2 1 95 0 1 1 35 1 78
ELSE[ ]	/* Else */
NPUSHB[ ]	/* 19 values pushed */
0 0 0 3 2 0 3 103 0 2 2 1 95 0 1 1 35 1 78
EIF[ ]	/* EndIf */
PUSHB[ ]	/* 7 values pushed */
18 33 34 16 4 8 26
CALL[ ]	/* CallFunction */";
};
width = 1229;
}
);
note = uni0237;
unicode = 567;
},
{
glyphname = kgreenlandic;
lastChange = "2025-03-01 21:40:51 +0000";
layers = (
{
layerId = m01;
shapes = (
{
closed = 1;
nodes = (
(352,0,l),
(167,0,l),
(167,1082,l),
(352,1082,l),
(352,561,l),
(860,1082,l),
(1083,1082,l),
(597,573,l),
(1089,0,l),
(855,0,l),
(472,447,l),
(352,344,l)
);
}
);
userData = {
assembly = "PUSHB[ ]	/* 8 values pushed */
8 5 2 3 2 0 1 76
MPPEM[ ]	/* MeasurePixelPerEm */
PUSHB[ ]	/* 1 value pushed */
38
LT[ ]	/* LessThan */
IF[ ]	/* If */
NPUSHB[ ]	/* 13 values pushed */
1 1 0 0 33 77 3 1 2 2 31 2 78
ELSE[ ]	/* Else */
NPUSHB[ ]	/* 13 values pushed */
1 1 0 0 2 95 3 1 2 2 31 2 78
EIF[ ]	/* EndIf */
PUSHB[ ]	/* 7 values pushed */
18 18 18 16 4 8 26
CALL[ ]	/* CallFunction */";
};
width = 1229;
}
);
note = kgreenlandic;
unicode = 312;
},
{
glyphname = eng;
lastChange = "2025-03-01 21:39:55 +0000";
layers = (
{
layerId = m01;
shapes = (
{
closed = 1;
nodes = (
(362,1082,l),
(362,928,l),
(382,957,o),
(427,1008,o),
(453,1028,qs),
(499,1063,o),
(613,1102,o),
(681,1102,qs),
(767,1102,o),
(903,1052,o),
(950,1001,qs),
(997,949,o),
(1047,790,o),
(1047,682,qs),
(1047,-89,ls),
(1047,-177,o),
(999,-312,o),
(953,-356,qs),
(913,-395,o),
(797,-437,o),
(724,-437,qs),
(694,-437,o),
(640,-429,o),
(610,-419,q),
(624,-262,l),
(645,-268,o),
(705,-275,o),
(724,-275,qs),
(751,-275,o),
(796,-259,o),
(812,-243,qs),
(837,-220,o),
(862,-142,o),
(862,-89,qs),
(862,678,ls),
(862,746,o),
(835,846,o),
(808,878,qs),
(779,913,o),
(688,945,o),
(626,945,qs),
(572,945,o),
(484,921,o),
(451,898,qs),
(426,881,o),
(385,836,o),
(369,810,q),
(369,0,l),
(184,0,l),
(184,1082,l)
);
}
);
userData = {
assembly = "MPPEM[ ]	/* MeasurePixelPerEm */
PUSHB[ ]	/* 1 value pushed */
39
LT[ ]	/* LessThan */
IF[ ]	/* If */
PUSHB[ ]	/* 6 values pushed */
0 1 3 0 1 76
ELSE[ ]	/* Else */
PUSHB[ ]	/* 6 values pushed */
0 1 3 5 1 76
EIF[ ]	/* EndIf */
MPPEM[ ]	/* MeasurePixelPerEm */
PUSHB[ ]	/* 1 value pushed */
22
LT[ ]	/* LessThan */
IF[ ]	/* If */
NPUSHB[ ]	/* 27 values pushed */
0 3 3 0 97 5 1 0 0 33 77 0 4 4 31 77 0 2 2 1 97 0 1 1 41 1 78
ELSE[ ]	/* Else */
MPPEM[ ]	/* MeasurePixelPerEm */
PUSHB[ ]	/* 1 value pushed */
38
LT[ ]	/* LessThan */
IF[ ]	/* If */
NPUSHB[ ]	/* 24 values pushed */
0 2 0 1 2 1 101 0 3 3 0 97 5 1 0 0 33 77 0 4 4 31 4 78
ELSE[ ]	/* Else */
MPPEM[ ]	/* MeasurePixelPerEm */
PUSHB[ ]	/* 1 value pushed */
39
LT[ ]	/* LessThan */
IF[ ]	/* If */
NPUSHB[ ]	/* 25 values pushed */
0 3 4 0 3 89 0 2 0 1 2 1 101 5 1 0 0 4 95 0 4 4 31 4 78
ELSE[ ]	/* Else */
NPUSHB[ ]	/* 26 values pushed */
0 0 0 3 4 0 3 105 0 2 0 1 2 1 101 0 5 5 4 95 0 4 4 31 4 78
EIF[ ]	/* EndIf */
EIF[ ]	/* EndIf */
EIF[ ]	/* EndIf */
NPUSHB[ ]	/* 9 values pushed */
17 20 37 33 38 35 6 8 28
CALL[ ]	/* CallFunction */";
};
width = 1229;
}
);
note = eng;
unicode = 331;
},
{
glyphname = oslash;
lastChange = "2025-03-01 21:38:28 +0000";
layers = (
{
layerId = m01;
shapes = (
{
closed = 1;
nodes = (
(190,869,o),
(254,943,qs),
(317,1017,o),
(499,1102,o),
(613,1102,qs),
(670,1102,o),
(771,1081,o),
(816,1061,q),
(889,1209,l),
(1012,1209,l),
(911,1004,l),
(955,969,o),
(1026,878,o),
(1050,825,qs),
(1077,766,o),
(1106,627,o),
(1106,551,qs),
(1106,529,ls),
(1106,412,o),
(1038,212,o),
(975,138,qs),
(911,64,o),
(729,-20,o),
(615,-20,qs),
(561,-20,o),
(466,-1,o),
(423,16,q),
(349,-135,l),
(226,-135,l),
(327,70,l),
(228,143,o),
(122,381,o),
(122,529,qs),
(122,551,ls),
(122,668,o)
);
},
{
closed = 1;
nodes = (
(355,281,o),
(403,224,q),
(745,918,l),
(716,933,o),
(651,950,o),
(613,950,qs),
(536,950,o),
(422,885,o),
(384,830,qs),
(345,775,o),
(307,630,o),
(307,551,qs),
(307,529,ls),
(307,438,o)
);
},
{
closed = 1;
nodes = (
(905,700,o),
(889,743,qs),
(878,771,o),
(850,823,o),
(832,845,q),
(492,156,l),
(520,143,o),
(581,130,o),
(615,130,qs),
(691,130,o),
(806,194,o),
(845,249,qs),
(883,304,o),
(921,449,o),
(921,529,qs),
(921,551,ls),
(921,603,o)
);
}
);
userData = {
assembly = "NPUSHB[ ]	/* 18 values pushed */
10 7 2 5 0 43 30 29 3 4 5 23 20 2 2 4 3 76
MPPEM[ ]	/* MeasurePixelPerEm */
PUSHB[ ]	/* 1 value pushed */
38
LT[ ]	/* LessThan */
IF[ ]	/* If */
NPUSHB[ ]	/* 31 values pushed */
0 1 0 1 133 0 3 2 3 134 0 5 5 0 97 0 0 0 39 77 0 4 4 2 97 0 2 2 31 2 78
ELSE[ ]	/* Else */
NPUSHB[ ]	/* 29 values pushed */
0 1 0 1 133 0 3 2 3 134 0 0 0 5 4 0 5 105 0 4 4 2 97 0 2 2 31 2 78
EIF[ ]	/* EndIf */
NPUSHB[ ]	/* 9 values pushed */
35 41 18 40 18 36 6 8 28
CALL[ ]	/* CallFunction */";
};
width = 1229;
}
);
note = oslash;
unicode = 248;
},
{
glyphname = thorn;
lastChange = "2025-03-01 21:39:25 +0000";
layers = (
{
layerId = m01;
shapes = (
{
closed = 1;
nodes = (
(1033,212,o),
(980,138,qs),
(926,64,o),
(770,-20,o),
(668,-20,qs),
(609,-20,o),
(507,3,o),
(464,25,qs),
(434,40,o),
(381,81,o),
(358,107,q),
(358,-416,l),
(173,-416,l),
(173,1558,l),
(358,1558,l),
(358,970,l),
(381,997,o),
(434,1040,o),
(464,1056,qs),
(506,1079,o),
(607,1102,o),
(665,1102,qs),
(769,1102,o),
(927,1020,o),
(980,947,qs),
(1033,874,o),
(1087,671,o),
(1087,550,qs),
(1087,529,ls),
(1087,413,o)
);
},
{
closed = 1;
nodes = (
(868,772,o),
(833,827,qs),
(797,881,o),
(687,945,o),
(610,945,qs),
(563,945,o),
(484,922,o),
(453,901,qs),
(423,882,o),
(376,828,o),
(358,796,q),
(358,278,l),
(376,248,o),
(420,197,o),
(448,178,qs),
(480,156,o),
(562,131,o),
(612,131,qs),
(688,131,o),
(798,196,o),
(833,251,qs),
(868,306,o),
(902,450,o),
(902,529,qs),
(902,550,ls),
(902,629,o)
);
}
);
userData = {
assembly = "NPUSHB[ ]	/* 43 values pushed */
0 1 0 5 4 1 5 103 0 0 6 1 3 0 3 99 0 4 4 2 95 0 2 2 31 2 78 0 0 19 17 14 12 0 11 0 11 35 33 17 7 8 25
CALL[ ]	/* CallFunction */";
};
width = 1229;
}
);
note = thorn;
unicode = 254;
},
{
glyphname = germandbls;
lastChange = "2025-02-27 18:51:05 +0000";
layers = (
{
layerId = m01;
shapes = (
{
closed = 1;
nodes = (
(318,1113,ls),
(321,1262,o),
(421,1359,qs),
(475,1413,o),
(624,1413,qs),
(718,1413,o),
(775,1359,qs),
(848,1292,o),
(852,1196,qs),
(852,1179,ls),
(852,1069,o),
(791,1021,qs),
(662,952,o),
(564,941,q),
(564,737,l),
(694,718,o),
(791,676,qs),
(897,598,o),
(901,453,qs),
(901,447,ls),
(901,322,o),
(835,250,qs),
(734,185,o),
(540,182,q),
(540,0,l),
(804,0,o),
(978,117,qs),
(1089,212,o),
(1089,440,qs),
(1089,648,o),
(978,753,qs),
(889,822,o),
(829,848,q),
(884,882,o),
(926,900,qs),
(1039,991,o),
(1041,1176,qs),
(1041,1181,ls),
(1041,1366,o),
(933,1477,qs),
(812,1600,o),
(633,1600,qs),
(624,1600,ls),
(426,1598,o),
(305,1511,qs),
(139,1391,o),
(139,1118,qs),
(139,0,l),
(318,0,l)
);
}
);
userData = {
assembly = "PUSHB[ ]	/* 8 values pushed */
34 33 15 3 2 3 1 76
MPPEM[ ]	/* MeasurePixelPerEm */
PUSHB[ ]	/* 1 value pushed */
36
LT[ ]	/* LessThan */
IF[ ]	/* If */
NPUSHB[ ]	/* 23 values pushed */
0 3 3 0 97 0 0 0 32 77 0 2 2 1 97 5 4 2 1 1 31 1 78
ELSE[ ]	/* Else */
NPUSHB[ ]	/* 21 values pushed */
0 0 0 3 2 0 3 105 0 2 2 1 97 5 4 2 1 1 31 1 78
EIF[ ]	/* EndIf */
NPUSHB[ ]	/* 14 values pushed */
0 0 0 48 0 48 44 42 17 31 52 6 8 25
CALL[ ]	/* CallFunction */";
};
width = 1229;
}
);
note = germandbls;
unicode = 223;
},
{
glyphname = longs;
lastChange = "2025-03-01 21:21:00 +0000";
layers = (
{
layerId = m01;
shapes = (
{
closed = 1;
nodes = (
(700,1097,ls),
(700,1166,o),
(736,1220,qs),
(788,1294,o),
(919,1297,qs),
(994,1297,l),
(994,1456,l),
(919,1456,ls),
(702,1456,o),
(602,1350,qs),
(515,1256,o),
(515,1106,qs),
(515,1004,l),
(236,1004,l),
(236,846,l),
(525,846,l),
(525,163,l),
(234,163,l),
(234,0,l),
(994,0,l),
(994,163,l),
(694,163,l)
);
}
);
userData = {
assembly = "MPPEM[ ]	/* MeasurePixelPerEm */
PUSHB[ ]	/* 1 value pushed */
38
LT[ ]	/* LessThan */
IF[ ]	/* If */
NPUSHB[ ]	/* 33 values pushed */
0 5 5 4 97 0 4 4 32 77 0 2 2 3 95 0 3 3 33 77 7 6 2 1 1 0 95 0 0 0 31 0 78
ELSE[ ]	/* Else */
NPUSHB[ ]	/* 31 values pushed */
0 3 0 2 1 3 2 103 0 5 5 4 97 0 4 4 32 77 7 6 2 1 1 0 95 0 0 0 31 0 78
EIF[ ]	/* EndIf */
NPUSHB[ ]	/* 15 values pushed */
0 0 0 21 0 21 33 36 17 17 17 17 8 8 28
CALL[ ]	/* CallFunction */";
};
width = 1229;
}
);
note = longs;
unicode = 383;
},
{
glyphname = uni0188;
lastChange = "2025-03-01 22:20:33 +0000";
layers = (
{
layerId = m01;
shapes = (
{
closed = 1;
nodes = (
(798,1456,l),
(1202,1456,l),
(1202,1319,l),
(961,1319,l),
(961,710,l),
(786,710,l),
(785,759,o),
(744,846,o),
(709,879,qs),
(674,912,o),
(577,950,o),
(521,950,qs),
(435,950,o),
(318,881,o),
(282,826,qs),
(246,770,o),
(215,632,o),
(215,562,qs),
(215,520,ls),
(215,449,o),
(246,310,o),
(282,255,qs),
(317,199,o),
(434,130,o),
(521,130,qs),
(571,130,o),
(666,162,o),
(703,191,qs),
(740,219,o),
(785,296,o),
(786,341,q),
(961,341,l),
(960,269,o),
(887,138,o),
(826,89,qs),
(765,39,o),
(607,-20,o),
(521,-20,qs),
(398,-20,o),
(214,68,o),
(153,143,qs),
(91,217,o),
(29,412,o),
(29,520,qs),
(29,562,ls),
(29,669,o),
(91,865,o),
(153,940,qs),
(214,1014,o),
(398,1102,o),
(521,1102,qs),
(609,1102,o),
(748,1048,o),
(798,1015,q)
);
}
);
userData = {
assembly = "MPPEM[ ]	/* MeasurePixelPerEm */
PUSHB[ ]	/* 1 value pushed */
11
LT[ ]	/* LessThan */
IF[ ]	/* If */
NPUSHB[ ]	/* 46 values pushed */
8 1 2 3 5 3 2 114 9 1 5 4 4 5 112 0 7 7 6 97 0 6 6 30 77 0 3 3 1 97 0 1 1 39 77 0 4 4 0 98 0 0 0 31 0 78
ELSE[ ]	/* Else */
MPPEM[ ]	/* MeasurePixelPerEm */
PUSHB[ ]	/* 1 value pushed */
14
LT[ ]	/* LessThan */
IF[ ]	/* If */
NPUSHB[ ]	/* 47 values pushed */
8 1 2 3 5 3 2 114 9 1 5 4 3 5 4 126 0 7 7 6 97 0 6 6 30 77 0 3 3 1 97 0 1 1 39 77 0 4 4 0 98 0 0 0 31 0 78
ELSE[ ]	/* Else */
MPPEM[ ]	/* MeasurePixelPerEm */
PUSHB[ ]	/* 1 value pushed */
38
LT[ ]	/* LessThan */
IF[ ]	/* If */
NPUSHB[ ]	/* 48 values pushed */
8 1 2 3 5 3 2 5 128 9 1 5 4 3 5 4 126 0 7 7 6 97 0 6 6 30 77 0 3 3 1 97 0 1 1 39 77 0 4 4 0 98 0 0 0 31 0 78
ELSE[ ]	/* Else */
MPPEM[ ]	/* MeasurePixelPerEm */
PUSHB[ ]	/* 1 value pushed */
39
LT[ ]	/* LessThan */
IF[ ]	/* If */
NPUSHB[ ]	/* 46 values pushed */
8 1 2 3 5 3 2 5 128 9 1 5 4 3 5 4 126 0 1 0 3 2 1 3 105 0 7 7 6 97 0 6 6 30 77 0 4 4 0 98 0 0 0 31 0 78
ELSE[ ]	/* Else */
NPUSHB[ ]	/* 44 values pushed */
8 1 2 3 5 3 2 5 128 9 1 5 4 3 5 4 126 0 6 0 7 1 6 7 105 0 1 0 3 2 1 3 105 0 4 4 0 98 0 0 0 31 0 78
EIF[ ]	/* EndIf */
EIF[ ]	/* EndIf */
EIF[ ]	/* EndIf */
EIF[ ]	/* EndIf */
NPUSHB[ ]	/* 20 values pushed */
0 0 45 44 42 40 39 37 0 34 0 34 54 35 19 38 35 10 8 27
CALL[ ]	/* CallFunction */";
};
width = 1229;
}
);
note = uni0188;
unicode = 392;
},
{
glyphname = uniA78C;
lastChange = "2025-03-01 21:58:52 +0000";
layers = (
{
layerId = m01;
shapes = (
{
closed = 1;
nodes = (
(682,912,l),
(708,1459,l),
(521,1459,l),
(546,912,l)
);
}
);
userData = {
assembly = "NPUSHB[ ]	/* 21 values pushed */
0 0 1 1 0 87 0 0 0 1 95 0 1 0 1 79 17 16 2 8 24
CALL[ ]	/* CallFunction */";
};
width = 1229;
}
);
note = uniA78C;
unicode = 42892;
},
{
glyphname = fi;
lastChange = "2025-02-28 21:38:54 +0000";
layers = (
{
layerId = m01;
shapes = (
{
closed = 1;
nodes = (
(98,866,l),
(98,998,l),
(263,998,l),
(263,1068,ls),
(263,1164,o),
(319,1308,o),
(371,1357,qs),
(421,1406,o),
(565,1456,o),
(654,1456,q),
(719,1456,l),
(719,1311,l),
(675,1311,l),
(617,1311,o),
(527,1283,o),
(498,1254,qs),
(467,1225,o),
(434,1130,o),
(434,1068,qs),
(434,998,l),
(587,998,l),
(587,866,l),
(434,866,l),
(434,0,l),
(263,0,l),
(263,866,l)
);
},
{
closed = 1;
nodes = (
(1102,0,l),
(932,0,l),
(932,866,l),
(683,866,l),
(683,997,l),
(1102,997,l)
);
},
{
closed = 1;
nodes = (
(900,1226,l),
(1130,1226,l),
(1130,1456,l),
(900,1456,l)
);
}
);
userData = {
assembly = "MPPEM[ ]	/* MeasurePixelPerEm */
PUSHB[ ]	/* 1 value pushed */
38
LT[ ]	/* LessThan */
IF[ ]	/* If */
NPUSHB[ ]	/* 44 values pushed */
0 4 4 3 97 10 1 3 3 32 77 12 1 11 11 3 97 10 1 3 3 32 77 9 6 2 1 1 2 95 7 5 2 2 2 33 77 8 1 0 0 31 0 78
ELSE[ ]	/* Else */
MPPEM[ ]	/* MeasurePixelPerEm */
PUSHB[ ]	/* 1 value pushed */
39
LT[ ]	/* LessThan */
IF[ ]	/* If */
NPUSHB[ ]	/* 42 values pushed */
7 5 2 2 9 6 2 1 0 2 1 103 0 4 4 3 97 10 1 3 3 32 77 12 1 11 11 3 97 10 1 3 3 32 77 8 1 0 0 31 0 78
ELSE[ ]	/* Else */
MPPEM[ ]	/* MeasurePixelPerEm */
PUSHB[ ]	/* 1 value pushed */
42
LT[ ]	/* LessThan */
IF[ ]	/* If */
NPUSHB[ ]	/* 40 values pushed */
7 5 2 2 9 6 2 1 0 2 1 103 0 4 4 3 97 0 3 3 32 77 12 1 11 11 10 95 0 10 10 32 77 8 1 0 0 31 0 78
ELSE[ ]	/* Else */
NPUSHB[ ]	/* 38 values pushed */
0 3 0 4 11 3 4 105 7 5 2 2 9 6 2 1 0 2 1 103 12 1 11 11 10 95 0 10 10 32 77 8 1 0 0 31 0 78
EIF[ ]	/* EndIf */
EIF[ ]	/* EndIf */
EIF[ ]	/* EndIf */
NPUSHB[ ]	/* 22 values pushed */
28 28 28 31 28 31 30 29 27 26 17 17 17 20 33 36 17 17 16 13 8 31
CALL[ ]	/* CallFunction */";
};
width = 1229;
}
);
note = fi;
unicode = 64257;
},
{
glyphname = fl;
lastChange = "2025-03-01 16:43:54 +0000";
layers = (
{
layerId = m01;
shapes = (
{
closed = 1;
nodes = (
(40,866,l),
(40,998,l),
(205,998,l),
(205,1068,ls),
(205,1164,o),
(261,1308,o),
(313,1357,qs),
(363,1406,o),
(507,1456,o),
(596,1456,q),
(621,1456,l),
(621,1311,l),
(617,1311,l),
(559,1311,o),
(469,1283,o),
(440,1254,qs),
(409,1225,o),
(376,1130,o),
(376,1068,qs),
(376,998,l),
(529,998,l),
(529,866,l),
(376,866,l),
(376,0,l),
(205,0,l),
(205,866,l)
);
},
{
closed = 1;
nodes = (
(743,153,o),
(847,79,qs),
(951,0,o),
(1189,0,qs),
(1189,162,ls),
(1013,162,o),
(1005,206,qs),
(926,265,o),
(926,409,qs),
(926,1456,l),
(743,1456,l),
(743,375,ls)
);
}
);
userData = {
assembly = "MPPEM[ ]	/* MeasurePixelPerEm */
PUSHB[ ]	/* 1 value pushed */
22
LT[ ]	/* LessThan */
IF[ ]	/* If */
NPUSHB[ ]	/* 33 values pushed */
5 1 2 6 1 1 8 2 1 103 0 4 4 3 97 7 1 3 3 36 77 0 8 8 0 97 9 1 0 0 31 0 78
ELSE[ ]	/* Else */
MPPEM[ ]	/* MeasurePixelPerEm */
PUSHB[ ]	/* 1 value pushed */
25
LT[ ]	/* LessThan */
IF[ ]	/* If */
NPUSHB[ ]	/* 31 values pushed */
7 1 3 0 4 2 3 4 105 5 1 2 6 1 1 8 2 1 103 0 8 8 0 97 9 1 0 0 31 0 78
ELSE[ ]	/* Else */
NPUSHB[ ]	/* 35 values pushed */
0 7 3 7 133 0 3 0 4 2 3 4 105 5 1 2 6 1 1 8 2 1 103 0 8 8 0 97 9 1 0 0 31 0 78
EIF[ ]	/* EndIf */
EIF[ ]	/* EndIf */
NPUSHB[ ]	/* 14 values pushed */
32 30 36 17 17 20 33 36 17 17 16 10 8 31
CALL[ ]	/* CallFunction */";
};
width = 1229;
}
);
note = fl;
unicode = 64258;
},
{
glyphname = uni01C0;
lastChange = "2025-02-28 21:02:41 +0000";
layers = (
{
layerId = m01;
shapes = (
{
closed = 1;
nodes = (
(514,1456,l),
(714,1456,l),
(714,-398,l),
(514,-398,l)
);
}
);
userData = {
assembly = "NPUSHB[ ]	/* 20 values pushed */
0 0 1 0 133 2 1 1 1 118 0 0 0 3 0 3 17 3 8 23
CALL[ ]	/* CallFunction */";
};
width = 1229;
}
);
note = uni01C0;
unicode = 448;
},
{
glyphname = uni03A9;
lastChange = "2025-02-28 08:54:01 +0000";
layers = (
{
layerId = m01;
shapes = (
{
closed = 1;
nodes = (
(868,329,o),
(901,427,qs),
(922,493,o),
(944,660,o),
(944,759,qs),
(944,840,ls),
(944,957,o),
(899,1098,o),
(857,1160,qs),
(814,1221,o),
(690,1285,o),
(612,1285,q),
(535,1285,o),
(413,1221,o),
(371,1160,qs),
(328,1098,o),
(282,957,o),
(282,840,qs),
(282,759,ls),
(282,660,o),
(305,494,o),
(327,429,qs),
(360,330,o),
(475,241,o),
(553,223,q),
(553,0,l),
(101,0,l),
(101,151,l),
(363,151,l),
(301,198,o),
(202,333,o),
(168,414,qs),
(133,494,o),
(97,670,o),
(97,759,qs),
(97,838,ls),
(97,977,o),
(170,1212,o),
(238,1297,qs),
(305,1381,o),
(495,1476,o),
(612,1476,qs),
(729,1476,o),
(920,1381,o),
(988,1297,qs),
(1055,1212,o),
(1129,977,o),
(1129,838,qs),
(1129,759,ls),
(1129,670,o),
(1093,493,o),
(1060,413,qs),
(1026,333,o),
(928,198,o),
(866,151,q),
(1132,151,l),
(1132,0,l),
(680,0,l),
(680,223,l),
(757,240,o)
);
}
);
userData = {
assembly = "NPUSHB[ ]	/* 59 values pushed */
40 16 2 2 0 39 17 2 3 2 2 76 0 0 0 1 97 0 1 1 20 77 4 1 2 2 3 95 7 5 6 3 3 3 22 3 78 50 50 46 46 50 53 50 53 52 51 46 49 46 49 48 47 29 27 36 8 7 23
CALL[ ]	/* CallFunction */";
};
width = 1229;
}
);
note = uni03A9;
unicode = 937;
},
{
glyphname = pi;
lastChange = "2025-02-28 08:54:25 +0000";
layers = (
{
layerId = m01;
shapes = (
{
closed = 1;
nodes = (
(494,889,l),
(732,889,l),
(732,0,l),
(923,0,l),
(923,889,l),
(1133,889,l),
(1133,1082,l),
(95,1082,l),
(95,889,l),
(304,889,l),
(304,0,l),
(494,0,l)
);
}
);
userData = {
assembly = "NPUSHB[ ]	/* 34 values pushed */
4 2 2 0 0 1 95 0 1 1 21 77 6 5 2 3 3 22 3 78 0 0 0 11 0 11 17 17 17 17 17 7 7 27
CALL[ ]	/* CallFunction */";
};
width = 1229;
}
);
note = pi;
unicode = 960;
},
{
glyphname = fraction;
lastChange = "2025-02-28 20:46:38 +0000";
layers = (
{
layerId = m01;
shapes = (
{
closed = 1;
nodes = (
(229,0,l),
(403,0,l),
(999,1456,l),
(825,1456,l)
);
}
);
userData = {
assembly = "NPUSHB[ ]	/* 22 values pushed */
0 0 0 32 77 2 1 1 1 31 1 78 0 0 0 3 0 3 17 3 8 23
CALL[ ]	/* CallFunction */";
};
width = 1229;
}
);
note = fraction;
unicode = 8260;
},
{
glyphname = period;
lastChange = "2025-02-27 19:35:58 +0000";
layers = (
{
layerId = m01;
shapes = (
{
closed = 1;
nodes = (
(514,0,l),
(714,0,l),
(714,200,l),
(514,200,l)
);
}
);
userData = {
assembly = "NPUSHB[ ]	/* 22 values pushed */
0 0 0 1 95 2 1 1 1 31 1 78 0 0 0 3 0 3 17 3 8 23
CALL[ ]	/* CallFunction */";
};
width = 1229;
}
);
note = period;
unicode = 46;
},
{
glyphname = comma;
lastChange = "2025-02-27 18:54:02 +0000";
layers = (
{
layerId = m01;
shapes = (
{
closed = 1;
nodes = (
(479,-217,l),
(638,-216,l),
(749,183,l),
(572,183,l)
);
}
);
userData = {
assembly = "NPUSHB[ ]	/* 22 values pushed */
2 1 1 0 1 76 0 0 1 0 133 0 1 1 35 1 78 18 16 2 8 24
CALL[ ]	/* CallFunction */";
};
width = 1229;
}
);
note = comma;
unicode = 44;
},
{
glyphname = ellipsis;
lastChange = "2025-02-28 07:58:06 +0000";
layers = (
{
layerId = m01;
shapes = (
{
closed = 1;
nodes = (
(114,0,l),
(314,0,l),
(314,200,l),
(114,200,l)
);
},
{
closed = 1;
nodes = (
(514,0,l),
(714,0,l),
(714,200,l),
(514,200,l)
);
},
{
closed = 1;
nodes = (
(914,0,l),
(1114,0,l),
(1114,200,l),
(914,200,l)
);
}
);
userData = {
assembly = "NPUSHB[ ]	/* 44 values pushed */
4 2 2 0 0 1 95 8 5 7 3 6 5 1 1 31 1 78 8 8 4 4 0 0 8 11 8 11 10 9 4 7 4 7 6 5 0 3 0 3 17 9 8 23
CALL[ ]	/* CallFunction */";
};
width = 1229;
}
);
note = ellipsis;
unicode = 8230;
},
{
glyphname = exclam;
lastChange = "2025-02-27 11:15:16 +0000";
layers = (
{
layerId = m01;
shapes = (
{
closed = 1;
nodes = (
(719,1456,l),
(509,1456,l),
(526,559,l),
(701,559,l)
);
},
{
closed = 1;
nodes = (
(514,0,l),
(714,0,l),
(714,200,l),
(514,200,l)
);
}
);
userData = {
assembly = "NPUSHB[ ]	/* 41 values pushed */
4 1 1 1 0 95 0 0 0 32 77 0 2 2 3 95 5 1 3 3 31 3 78 4 4 0 0 4 7 4 7 6 5 0 3 0 3 17 6 8 23
CALL[ ]	/* CallFunction */";
};
width = 1229;
}
);
note = exclam;
unicode = 33;
},
{
glyphname = exclamdown;
lastChange = "2025-02-27 20:04:07 +0000";
layers = (
{
layerId = m01;
shapes = (
{
closed = 1;
nodes = (
(509,-374,l),
(719,-374,l),
(702,523,l),
(527,523,l)
);
},
{
closed = 1;
nodes = (
(714,1082,l),
(514,1082,l),
(514,882,l),
(714,882,l)
);
}
);
userData = {
assembly = "NPUSHB[ ]	/* 45 values pushed */
5 1 3 0 2 1 3 2 103 4 1 1 0 0 1 87 4 1 1 1 0 95 0 0 1 0 79 4 4 0 0 4 7 4 7 6 5 0 3 0 3 17 6 8 23
CALL[ ]	/* CallFunction */";
};
width = 1229;
}
);
note = exclamdown;
unicode = 161;
},
{
glyphname = question;
lastChange = "2025-02-27 18:57:53 +0000";
layers = (
{
layerId = m01;
shapes = (
{
closed = 1;
nodes = (
(522,575,o),
(538,612,qs),
(554,648,o),
(614,715,o),
(664,761,qs),
(698,796,o),
(769,870,o),
(799,911,qs),
(828,951,o),
(866,1041,o),
(866,1091,qs),
(866,1143,o),
(837,1224,o),
(809,1252,qs),
(778,1283,o),
(684,1315,o),
(623,1315,qs),
(576,1315,o),
(487,1292,o),
(453,1268,qs),
(418,1243,o),
(376,1168,o),
(376,1116,q),
(191,1116,l),
(192,1200,o),
(260,1334,o),
(318,1381,qs),
(375,1427,o),
(532,1476,o),
(623,1476,qs),
(724,1476,o),
(883,1425,o),
(938,1376,qs),
(993,1327,o),
(1051,1187,o),
(1051,1097,qs),
(1051,1025,o),
(1001,898,o),
(962,842,qs),
(923,785,o),
(826,687,o),
(779,645,qs),
(749,616,o),
(716,564,o),
(708,537,qs),
(700,510,o),
(696,449,o),
(696,410,q),
(511,410,l),
(512,482,o)
);
},
{
closed = 1;
nodes = (
(514,0,l),
(714,0,l),
(714,200,l),
(514,200,l)
);
}
);
userData = {
assembly = "PUSHB[ ]	/* 6 values pushed */
33 1 3 1 1 76
MPPEM[ ]	/* MeasurePixelPerEm */
PUSHB[ ]	/* 1 value pushed */
39
LT[ ]	/* LessThan */
IF[ ]	/* If */
NPUSHB[ ]	/* 38 values pushed */
0 1 0 3 0 1 3 128 6 1 3 4 0 3 4 126 0 0 0 2 97 0 2 2 36 77 0 4 4 5 95 7 1 5 5 31 5 78
ELSE[ ]	/* Else */
NPUSHB[ ]	/* 36 values pushed */
0 1 0 3 0 1 3 128 6 1 3 4 0 3 4 126 0 2 0 0 1 2 0 105 0 4 4 5 95 7 1 5 5 31 5 78
EIF[ ]	/* EndIf */
NPUSHB[ ]	/* 20 values pushed */
35 35 0 0 35 38 35 38 37 36 0 34 0 34 36 20 59 8 8 25
CALL[ ]	/* CallFunction */";
};
width = 1229;
}
);
note = question;
unicode = 63;
},
{
glyphname = questiondown;
lastChange = "2025-02-27 19:02:50 +0000";
layers = (
{
layerId = m01;
shapes = (
{
closed = 1;
nodes = (
(714,510,o),
(699,474,qs),
(684,438,o),
(625,371,o),
(576,326,q),
(545,291,o),
(479,216,o),
(452,175,qs),
(424,134,o),
(389,44,o),
(389,-7,qs),
(389,-60,o),
(416,-142,o),
(443,-170,qs),
(471,-200,o),
(558,-231,o),
(614,-231,qs),
(657,-231,o),
(738,-208,o),
(770,-183,qs),
(801,-159,o),
(839,-84,o),
(839,-32,q),
(1024,-32,l),
(1023,-116,o),
(960,-250,o),
(905,-296,qs),
(850,-343,o),
(701,-392,o),
(614,-392,qs),
(517,-392,o),
(364,-341,o),
(312,-292,qs),
(259,-243,o),
(204,-103,o),
(204,-13,qs),
(204,59,o),
(251,187,o),
(288,244,qs),
(324,300,o),
(415,399,o),
(460,442,qs),
(489,471,o),
(521,521,o),
(529,548,qs),
(536,574,o),
(539,634,o),
(539,673,q),
(724,673,l),
(723,602,o)
);
},
{
closed = 1;
nodes = (
(531,882,l),
(731,882,l),
(731,1082,l),
(531,1082,l)
);
}
);
userData = {
assembly = "PUSHB[ ]	/* 6 values pushed */
33 1 1 3 1 76
MPPEM[ ]	/* MeasurePixelPerEm */
PUSHB[ ]	/* 1 value pushed */
22
LT[ ]	/* LessThan */
IF[ ]	/* If */
NPUSHB[ ]	/* 38 values pushed */
6 1 3 4 1 4 3 1 128 0 1 0 4 1 0 126 0 4 4 5 95 7 1 5 5 33 77 0 0 0 2 98 0 2 2 41 2 78
ELSE[ ]	/* Else */
MPPEM[ ]	/* MeasurePixelPerEm */
PUSHB[ ]	/* 1 value pushed */
38
LT[ ]	/* LessThan */
IF[ ]	/* If */
NPUSHB[ ]	/* 35 values pushed */
6 1 3 4 1 4 3 1 128 0 1 0 4 1 0 126 0 0 0 2 0 2 102 0 4 4 5 95 7 1 5 5 33 4 78
ELSE[ ]	/* Else */
NPUSHB[ ]	/* 41 values pushed */
6 1 3 4 1 4 3 1 128 0 1 0 4 1 0 126 7 1 5 0 4 3 5 4 103 0 0 2 2 0 89 0 0 0 2 98 0 2 0 2 82
EIF[ ]	/* EndIf */
EIF[ ]	/* EndIf */
NPUSHB[ ]	/* 20 values pushed */
35 35 0 0 35 38 35 38 37 36 0 34 0 34 36 20 59 8 8 25
CALL[ ]	/* CallFunction */";
};
width = 1229;
}
);
note = questiondown;
unicode = 191;
},
{
glyphname = periodcentered;
lastChange = "2025-02-28 07:33:12 +0000";
layers = (
{
layerId = m01;
shapes = (
{
closed = 1;
nodes = (
(514,630,l),
(714,630,l),
(714,830,l),
(514,830,l)
);
}
);
userData = {
assembly = "NPUSHB[ ]	/* 27 values pushed */
0 0 1 1 0 89 0 0 0 1 97 2 1 1 0 1 81 0 0 0 7 0 6 34 3 8 23
CALL[ ]	/* CallFunction */";
};
width = 1229;
}
);
note = periodcentered;
unicode = 183;
},
{
glyphname = bullet;
lastChange = "2025-02-28 09:54:29 +0000";
layers = (
{
layerId = m01;
shapes = (
{
closed = 1;
nodes = (
(421,815,ls),
(366,760,o),
(366,700,o),
(421,645,cs),
(529,537,ls),
(584,482,o),
(644,482,o),
(699,537,cs),
(807,645,ls),
(862,700,o),
(862,760,o),
(807,815,cs),
(699,923,ls),
(644,978,o),
(584,978,o),
(529,923,cs)
);
}
);
userData = {
assembly = "NPUSHB[ ]	/* 27 values pushed */
0 0 1 1 0 89 0 0 0 1 97 2 1 1 0 1 81 0 0 0 7 0 6 34 3 8 23
CALL[ ]	/* CallFunction */";
};
width = 1229;
}
);
note = bullet;
unicode = 8226;
},
{
glyphname = asterisk;
lastChange = "2025-02-27 17:16:14 +0000";
layers = (
{
layerId = m01;
shapes = (
{
closed = 1;
nodes = (
(509,1113,l),
(204,1212,l),
(139,1012,l),
(434,916,l),
(232,638,l),
(402,513,l),
(614,805,l),
(826,513,l),
(996,638,l),
(795,916,l),
(1090,1012,l),
(1025,1212,l),
(720,1113,l),
(720,1456,l),
(509,1456,l)
);
}
);
userData = {
assembly = "NPUSHB[ ]	/* 23 values pushed */
14 13 12 11 10 9 8 7 4 3 2 1 12 0 73 0 0 0 118 21 1 8 23
CALL[ ]	/* CallFunction */";
};
width = 1229;
}
);
note = asterisk;
unicode = 42;
},
{
glyphname = exclamdbl;
lastChange = "2025-02-28 09:03:59 +0000";
layers = (
{
layerId = m01;
shapes = (
{
closed = 1;
nodes = (
(434,1456,l),
(224,1456,l),
(241,559,l),
(416,559,l)
);
},
{
closed = 1;
nodes = (
(229,0,l),
(429,0,l),
(429,200,l),
(229,200,l)
);
},
{
closed = 1;
nodes = (
(1004,1456,l),
(794,1456,l),
(811,559,l),
(986,559,l)
);
},
{
closed = 1;
nodes = (
(799,0,l),
(999,0,l),
(999,200,l),
(799,200,l)
);
}
);
userData = {
assembly = "NPUSHB[ ]	/* 63 values pushed */
10 5 8 3 1 1 0 95 4 1 0 0 32 77 6 1 2 2 3 95 11 7 9 3 3 3 31 3 78 12 12 8 8 4 4 0 0 12 15 12 15 14 13 8 11 8 11 10 9 4 7 4 7 6 5 0 3 0 3 17 12 8 23
CALL[ ]	/* CallFunction */";
};
width = 1229;
}
);
note = exclamdbl;
unicode = 8252;
},
{
glyphname = numbersign;
lastChange = "2025-02-27 14:35:17 +0000";
layers = (
{
layerId = m01;
shapes = (
{
closed = 1;
nodes = (
(375,1036,l),
(171,1036,l),
(145,891,l),
(349,891,l),
(294,572,l),
(90,572,l),
(64,426,l),
(268,426,l),
(194,1,l),
(339,1,l),
(413,426,l),
(707,426,l),
(633,1,l),
(779,1,l),
(853,426,l),
(1057,426,l),
(1083,572,l),
(879,572,l),
(934,891,l),
(1138,891,l),
(1164,1036,l),
(960,1036,l),
(1033,1456,l),
(887,1456,l),
(814,1036,l),
(520,1036,l),
(593,1456,l),
(448,1456,l)
);
},
{
closed = 1;
nodes = (
(494,891,l),
(788,891,l),
(733,572,l),
(439,572,l)
);
}
);
userData = {
assembly = "NPUSHB[ ]	/* 68 values pushed */
16 15 5 3 3 14 6 2 1 0 3 1 104 13 7 2 0 12 10 2 8 9 0 8 103 4 1 2 2 32 77 11 1 9 9 31 9 78 4 4 4 31 4 31 30 29 28 27 26 25 24 23 22 21 20 19 17 17 17 17 17 17 18 17 16 17 8 31
CALL[ ]	/* CallFunction */";
};
width = 1229;
}
);
note = numbersign;
unicode = 35;
},
{
glyphname = onedotenleader;
lastChange = "2025-02-28 07:56:16 +0000";
layers = (
{
layerId = m01;
shapes = (
{
closed = 1;
nodes = (
(514,0,l),
(714,0,l),
(714,200,l),
(514,200,l)
);
}
);
userData = {
assembly = "NPUSHB[ ]	/* 22 values pushed */
0 0 0 1 95 2 1 1 1 31 1 78 0 0 0 3 0 3 17 3 8 23
CALL[ ]	/* CallFunction */";
};
width = 1229;
}
);
note = onedotenleader;
unicode = 8228;
},
{
glyphname = uni2047;
lastChange = "2025-02-28 09:33:03 +0000";
layers = (
{
layerId = m01;
shapes = (
{
closed = 1;
nodes = (
(283,575,o),
(295,612,qs),
(307,648,o),
(353,715,o),
(391,761,qs),
(417,796,o),
(471,870,o),
(493,911,qs),
(515,951,o),
(544,1041,o),
(544,1091,qs),
(544,1143,o),
(522,1224,o),
(501,1252,qs),
(477,1283,o),
(406,1315,o),
(360,1315,qs),
(324,1315,o),
(257,1292,o),
(231,1268,qs),
(204,1243,o),
(172,1168,o),
(172,1116,q),
(32,1116,l),
(33,1200,o),
(84,1334,o),
(128,1381,qs),
(172,1427,o),
(291,1476,o),
(360,1476,qs),
(436,1476,o),
(557,1425,o),
(599,1376,qs),
(641,1327,o),
(685,1187,o),
(685,1097,qs),
(685,1025,o),
(647,898,o),
(617,842,qs),
(588,785,o),
(514,687,o),
(478,645,qs),
(455,616,o),
(430,564,o),
(424,537,qs),
(418,510,o),
(415,449,o),
(415,410,q),
(275,410,l),
(276,482,o)
);
},
{
closed = 1;
nodes = (
(795,575,o),
(808,612,qs),
(820,648,o),
(865,715,o),
(903,761,qs),
(929,796,o),
(983,870,o),
(1006,911,qs),
(1028,951,o),
(1056,1041,o),
(1056,1091,qs),
(1056,1143,o),
(1034,1224,o),
(1013,1252,qs),
(990,1283,o),
(918,1315,o),
(872,1315,qs),
(836,1315,o),
(769,1292,o),
(743,1268,qs),
(717,1243,o),
(685,1168,o),
(685,1116,q),
(544,1116,l),
(545,1200,o),
(597,1334,o),
(641,1381,qs),
(684,1427,o),
(803,1476,o),
(872,1476,qs),
(949,1476,o),
(1069,1425,o),
(1111,1376,qs),
(1153,1327,o),
(1197,1187,o),
(1197,1097,qs),
(1197,1025,o),
(1159,898,o),
(1129,842,qs),
(1100,785,o),
(1026,687,o),
(990,645,qs),
(968,616,o),
(943,564,o),
(937,537,qs),
(931,510,o),
(927,449,o),
(927,410,q),
(787,410,l),
(788,482,o)
);
},
{
closed = 1;
nodes = (
(254,0,l),
(454,0,l),
(454,200,l),
(254,200,l)
);
},
{
closed = 1;
nodes = (
(764,0,l),
(964,0,l),
(964,200,l),
(764,200,l)
);
}
);
userData = {
assembly = "NPUSHB[ ]	/* 94 values pushed */
65 1 2 6 26 22 2 5 2 2 76 27 1 5 1 75 0 5 2 3 2 5 3 128 12 8 2 3 0 2 3 0 126 7 1 6 4 1 2 5 6 2 105 9 1 0 0 1 95 13 10 11 3 1 1 31 1 78 81 81 4 4 0 0 81 84 81 84 83 82 4 80 4 80 70 68 62 60 56 55 51 47 36 35 19 15 0 3 0 3 17 14 8 23
CALL[ ]	/* CallFunction */";
};
width = 1229;
}
);
note = uni2047;
unicode = 8263;
},
{
glyphname = slash;
lastChange = "2025-03-01 21:06:27 +0000";
layers = (
{
layerId = m01;
shapes = (
{
closed = 1;
nodes = (
(229,-264,l),
(403,-264,l),
(999,1456,l),
(825,1456,l)
);
}
);
userData = {
assembly = "NPUSHB[ ]	/* 22 values pushed */
0 0 0 32 77 2 1 1 1 31 1 78 0 0 0 3 0 3 17 3 8 23
CALL[ ]	/* CallFunction */";
};
width = 1229;
}
);
note = slash;
unicode = 47;
},
{
glyphname = backslash;
lastChange = "2025-02-27 17:20:46 +0000";
layers = (
{
layerId = m01;
shapes = (
{
closed = 1;
nodes = (
(229,1456,l),
(825,-264,l),
(999,-264,l),
(403,1456,l)
);
}
);
userData = {
assembly = "NPUSHB[ ]	/* 16 values pushed */
0 1 1 32 77 0 0 0 31 0 78 17 16 2 8 24
CALL[ ]	/* CallFunction */";
};
width = 1229;
}
);
note = backslash;
unicode = 92;
},
{
glyphname = twodotenleader;
lastChange = "2025-02-28 07:57:01 +0000";
layers = (
{
layerId = m01;
shapes = (
{
closed = 1;
nodes = (
(314,0,l),
(514,0,l),
(514,200,l),
(314,200,l)
);
},
{
closed = 1;
nodes = (
(714,0,l),
(914,0,l),
(914,200,l),
(714,200,l)
);
}
);
userData = {
assembly = "NPUSHB[ ]	/* 33 values pushed */
2 1 0 0 1 95 5 3 4 3 1 1 31 1 78 4 4 0 0 4 7 4 7 6 5 0 3 0 3 17 6 8 23
CALL[ ]	/* CallFunction */";
};
width = 1229;
}
);
note = twodotenleader;
unicode = 8229;
},
{
glyphname = uni203D;
lastChange = "2025-02-28 09:41:02 +0000";
layers = (
{
layerId = m01;
shapes = (
{
closed = 1;
nodes = (
(514,0,l),
(714,0,l),
(714,200,l),
(514,200,l)
);
},
{
closed = 1;
nodes = (
(702,803,l),
(766,870,o),
(799,911,qs),
(828,951,o),
(866,1041,o),
(866,1091,qs),
(866,1143,o),
(837,1224,o),
(809,1252,qs),
(769,1292,o),
(709,1307,q)
);
},
{
closed = 1;
nodes = (
(485,1290,o),
(453,1268,qs),
(409,1237,o),
(376,1168,o),
(376,1116,q),
(191,1116,l),
(192,1200,o),
(260,1334,o),
(318,1381,qs),
(375,1427,o),
(532,1476,o),
(623,1476,qs),
(724,1476,o),
(883,1425,o),
(938,1376,qs),
(993,1327,o),
(1051,1187,o),
(1051,1097,qs),
(1051,1025,o),
(1001,898,o),
(962,842,qs),
(923,785,o),
(826,687,o),
(779,645,qs),
(749,616,o),
(716,564,o),
(708,537,qs),
(700,510,o),
(696,449,o),
(696,410,q),
(511,410,l),
(498,1291,l)
);
}
);
userData = {
assembly = "NPUSHB[ ]	/* 66 values pushed */
41 22 19 8 4 2 3 33 31 7 3 4 2 2 76 0 2 3 4 3 2 4 128 6 1 4 4 3 95 0 3 3 32 77 0 0 0 1 95 5 1 1 1 31 1 78 4 4 0 0 4 32 4 32 21 20 14 13 0 3 0 3 17 7 8 23
CALL[ ]	/* CallFunction */";
};
width = 1229;
}
);
note = uni203D;
unicode = 8253;
},
{
glyphname = uni2042;
lastChange = "2025-02-27 17:15:34 +0000";
layers = (
{
layerId = m01;
shapes = (
{
closed = 1;
nodes = (
(548,1075,l),
(355,1137,l),
(315,1011,l),
(501,950,l),
(373,775,l),
(480,697,l),
(614,881,l),
(748,697,l),
(855,775,l),
(728,950,l),
(915,1011,l),
(874,1137,l),
(681,1075,l),
(681,1291,l),
(548,1291,l)
);
},
{
closed = 1;
nodes = (
(243,380,l),
(50,442,l),
(10,316,l),
(196,255,l),
(68,80,l),
(175,2,l),
(309,186,l),
(443,2,l),
(550,80,l),
(423,255,l),
(610,316,l),
(569,442,l),
(376,380,l),
(376,596,l),
(243,596,l)
);
},
{
closed = 1;
nodes = (
(843,380,l),
(650,442,l),
(610,316,l),
(796,255,l),
(668,80,l),
(775,2,l),
(909,186,l),
(1043,2,l),
(1150,80,l),
(1023,255,l),
(1210,316,l),
(1169,442,l),
(976,380,l),
(976,596,l),
(843,596,l)
);
}
);
userData = {
assembly = "NPUSHB[ ]	/* 60 values pushed */
44 43 42 41 40 39 38 37 34 33 32 31 12 0 2 1 76 29 28 27 26 25 24 23 22 19 18 17 16 14 13 12 11 10 9 8 7 4 3 2 1 24 0 73 0 2 0 2 133 1 1 0 0 118 30 30 21 3 8 25
CALL[ ]	/* CallFunction */";
};
width = 1229;
}
);
note = uni2042;
unicode = 8258;
},
{
glyphname = uni2048;
lastChange = "2025-02-28 08:59:40 +0000";
layers = (
{
layerId = m01;
shapes = (
{
closed = 1;
nodes = (
(377,575,o),
(390,612,qs),
(403,648,o),
(451,715,o),
(492,761,qs),
(519,796,o),
(577,870,o),
(601,911,qs),
(624,951,o),
(655,1041,o),
(655,1091,qs),
(655,1143,o),
(631,1224,o),
(609,1252,qs),
(584,1283,o),
(508,1315,o),
(459,1315,qs),
(421,1315,o),
(349,1292,o),
(321,1268,qs),
(293,1243,o),
(259,1168,o),
(259,1116,q),
(110,1116,l),
(111,1200,o),
(166,1334,o),
(213,1381,qs),
(259,1427,o),
(385,1476,o),
(459,1476,qs),
(540,1476,o),
(669,1425,o),
(713,1376,qs),
(757,1327,o),
(804,1187,o),
(804,1097,qs),
(804,1025,o),
(764,898,o),
(732,842,qs),
(701,785,o),
(623,687,o),
(585,645,qs),
(560,616,o),
(534,564,o),
(527,537,qs),
(521,510,o),
(518,449,o),
(518,410,q),
(368,410,l),
(369,482,o)
);
},
{
closed = 1;
nodes = (
(1068,1456,l),
(899,1456,l),
(913,559,l),
(1053,559,l)
);
},
{
closed = 1;
nodes = (
(351,0,l),
(551,0,l),
(551,200,l),
(351,200,l)
);
},
{
closed = 1;
nodes = (
(883,0,l),
(1083,0,l),
(1083,200,l),
(883,200,l)
);
}
);
userData = {
assembly = "PUSHB[ ]	/* 6 values pushed */
41 1 7 1 1 76
MPPEM[ ]	/* MeasurePixelPerEm */
PUSHB[ ]	/* 1 value pushed */
23
LT[ ]	/* LessThan */
IF[ ]	/* If */
NPUSHB[ ]	/* 53 values pushed */
0 5 4 1 4 5 1 128 12 1 7 1 2 1 7 2 128 0 4 4 6 97 0 6 6 36 77 10 1 1 1 0 95 0 0 0 32 77 8 1 2 2 3 95 13 9 11 3 3 3 31 3 78
ELSE[ ]	/* Else */
MPPEM[ ]	/* MeasurePixelPerEm */
PUSHB[ ]	/* 1 value pushed */
39
LT[ ]	/* LessThan */
IF[ ]	/* If */
NPUSHB[ ]	/* 65 values pushed */
0 5 4 1 4 5 1 128 12 1 7 1 8 1 7 8 128 0 4 4 6 97 0 6 6 36 77 10 1 1 1 0 95 0 0 0 32 77 0 8 8 3 95 13 9 11 3 3 3 31 77 0 2 2 3 95 13 9 11 3 3 3 31 3 78
ELSE[ ]	/* Else */
NPUSHB[ ]	/* 63 values pushed */
0 5 4 1 4 5 1 128 12 1 7 1 8 1 7 8 128 0 6 0 4 5 6 4 105 10 1 1 1 0 95 0 0 0 32 77 0 8 8 3 95 13 9 11 3 3 3 31 77 0 2 2 3 95 13 9 11 3 3 3 31 3 78
EIF[ ]	/* EndIf */
EIF[ ]	/* EndIf */
NPUSHB[ ]	/* 38 values pushed */
43 43 8 8 4 4 0 0 43 46 43 46 45 44 8 42 8 42 33 31 27 26 22 19 4 7 4 7 6 5 0 3 0 3 17 14 8 23
CALL[ ]	/* CallFunction */";
};
width = 1229;
}
);
note = uni2048;
unicode = 8264;
},
{
glyphname = uni2049;
lastChange = "2025-02-28 09:00:24 +0000";
layers = (
{
layerId = m01;
shapes = (
{
closed = 1;
nodes = (
(666,575,o),
(679,612,qs),
(692,648,o),
(740,715,o),
(781,761,qs),
(808,796,o),
(866,870,o),
(890,911,qs),
(913,951,o),
(944,1041,o),
(944,1091,qs),
(944,1143,o),
(920,1224,o),
(898,1252,qs),
(873,1283,o),
(797,1315,o),
(748,1315,qs),
(710,1315,o),
(638,1292,o),
(610,1268,qs),
(582,1243,o),
(548,1168,o),
(548,1116,q),
(399,1116,l),
(400,1200,o),
(455,1334,o),
(502,1381,qs),
(548,1427,o),
(674,1476,o),
(748,1476,qs),
(829,1476,o),
(958,1425,o),
(1002,1376,qs),
(1046,1327,o),
(1093,1187,o),
(1093,1097,qs),
(1093,1025,o),
(1053,898,o),
(1021,842,qs),
(990,785,o),
(912,687,o),
(874,645,qs),
(849,616,o),
(823,564,o),
(816,537,qs),
(810,510,o),
(807,449,o),
(807,410,q),
(657,410,l),
(658,482,o)
);
},
{
closed = 1;
nodes = (
(304,1456,l),
(135,1456,l),
(149,559,l),
(289,559,l)
);
},
{
closed = 1;
nodes = (
(119,0,l),
(319,0,l),
(319,200,l),
(119,200,l)
);
},
{
closed = 1;
nodes = (
(638,0,l),
(838,0,l),
(838,200,l),
(638,200,l)
);
}
);
userData = {
assembly = "PUSHB[ ]	/* 6 values pushed */
41 1 7 1 1 76
MPPEM[ ]	/* MeasurePixelPerEm */
PUSHB[ ]	/* 1 value pushed */
23
LT[ ]	/* LessThan */
IF[ ]	/* If */
NPUSHB[ ]	/* 53 values pushed */
0 5 4 1 4 5 1 128 12 1 7 1 2 1 7 2 128 0 4 4 6 97 0 6 6 36 77 10 1 1 1 0 95 0 0 0 32 77 8 1 2 2 3 95 13 9 11 3 3 3 31 3 78
ELSE[ ]	/* Else */
MPPEM[ ]	/* MeasurePixelPerEm */
PUSHB[ ]	/* 1 value pushed */
39
LT[ ]	/* LessThan */
IF[ ]	/* If */
NPUSHB[ ]	/* 65 values pushed */
0 5 4 1 4 5 1 128 12 1 7 1 8 1 7 8 128 0 4 4 6 97 0 6 6 36 77 10 1 1 1 0 95 0 0 0 32 77 0 8 8 3 95 13 9 11 3 3 3 31 77 0 2 2 3 95 13 9 11 3 3 3 31 3 78
ELSE[ ]	/* Else */
NPUSHB[ ]	/* 63 values pushed */
0 5 4 1 4 5 1 128 12 1 7 1 8 1 7 8 128 0 6 0 4 5 6 4 105 10 1 1 1 0 95 0 0 0 32 77 0 8 8 3 95 13 9 11 3 3 3 31 77 0 2 2 3 95 13 9 11 3 3 3 31 3 78
EIF[ ]	/* EndIf */
EIF[ ]	/* EndIf */
NPUSHB[ ]	/* 38 values pushed */
43 43 8 8 4 4 0 0 43 46 43 46 45 44 8 42 8 42 33 31 27 26 22 19 4 7 4 7 6 5 0 3 0 3 17 14 8 23
CALL[ ]	/* CallFunction */";
};
width = 1229;
}
);
note = uni2049;
unicode = 8265;
},
{
glyphname = uni204E;
lastChange = "2025-02-27 17:11:28 +0000";
layers = (
{
layerId = m01;
shapes = (
{
closed = 1;
nodes = (
(509,479,l),
(204,578,l),
(139,378,l),
(434,282,l),
(232,4,l),
(402,-121,l),
(614,171,l),
(826,-121,l),
(996,4,l),
(795,282,l),
(1090,378,l),
(1025,578,l),
(720,479,l),
(720,822,l),
(509,822,l)
);
}
);
userData = {
assembly = "NPUSHB[ ]	/* 23 values pushed */
14 13 12 11 10 9 8 7 4 3 2 1 12 0 73 0 0 0 118 21 1 8 23
CALL[ ]	/* CallFunction */";
};
width = 1229;
}
);
note = uni204E;
unicode = 8270;
},
{
glyphname = uni2051;
lastChange = "2025-02-27 17:13:32 +0000";
layers = (
{
layerId = m01;
shapes = (
{
closed = 1;
nodes = (
(537,353,l),
(312,426,l),
(265,279,l),
(482,208,l),
(333,3,l),
(458,-88,l),
(614,127,l),
(770,-88,l),
(895,3,l),
(747,208,l),
(965,279,l),
(917,426,l),
(692,353,l),
(692,605,l),
(537,605,l)
);
},
{
closed = 1;
nodes = (
(537,1203,l),
(312,1276,l),
(265,1129,l),
(482,1058,l),
(333,853,l),
(458,762,l),
(614,977,l),
(770,762,l),
(895,853,l),
(747,1058,l),
(965,1129,l),
(917,1276,l),
(692,1203,l),
(692,1455,l),
(537,1455,l)
);
}
);
userData = {
assembly = "NPUSHB[ ]	/* 46 values pushed */
29 28 27 26 25 24 23 22 19 18 17 16 12 0 1 1 76 14 13 12 11 10 9 8 7 4 3 2 1 12 0 73 0 1 0 1 133 0 0 0 118 30 21 2 8 24
CALL[ ]	/* CallFunction */";
};
width = 1229;
}
);
note = uni2051;
unicode = 8273;
},
{
glyphname = uni2055;
lastChange = "2025-02-27 17:27:56 +0000";
layers = (
{
layerId = m01;
shapes = (
{
closed = 1;
nodes = (
(705,-46,l),
(705,300,l),
(966,38,l),
(1117,188,l),
(856,450,l),
(1214,450,l),
(1214,662,l),
(854,662,l),
(1119,927,l),
(967,1076,l),
(705,814,l),
(705,1154,l),
(492,1154,l),
(492,814,l),
(268,1037,l),
(119,886,l),
(342,662,l),
(14,662,l),
(14,450,l),
(341,450,l),
(120,229,l),
(270,78,l),
(492,300,l),
(492,-46,l)
);
}
);
userData = {
assembly = "NPUSHB[ ]	/* 55 values pushed */
14 13 12 9 8 7 6 1 2 21 20 19 2 1 0 6 5 0 2 76 0 2 1 5 2 87 3 1 1 4 1 0 5 1 0 103 0 2 2 5 95 0 5 2 5 79 20 17 20 20 17 19 6 8 28
CALL[ ]	/* CallFunction */";
};
width = 1229;
}
);
note = uni2055;
unicode = 8277;
},
{
glyphname = hyphen;
lastChange = "2025-02-27 20:33:00 +0000";
layers = (
{
layerId = m01;
shapes = (
{
closed = 1;
nodes = (
(200,450,l),
(1029,450,l),
(1029,610,l),
(200,610,l)
);
}
);
userData = {
assembly = "NPUSHB[ ]	/* 27 values pushed */
0 0 1 1 0 87 0 0 0 1 95 2 1 1 0 1 79 0 0 0 3 0 3 17 3 8 23
CALL[ ]	/* CallFunction */";
};
width = 1229;
}
);
note = hyphen;
unicode = 45;
},
{
glyphname = endash;
lastChange = "2025-02-28 09:52:27 +0000";
layers = (
{
layerId = m01;
shapes = (
{
closed = 1;
nodes = (
(155,450,l),
(1075,450,l),
(1075,610,l),
(155,610,l)
);
}
);
userData = {
assembly = "NPUSHB[ ]	/* 27 values pushed */
0 0 1 1 0 87 0 0 0 1 95 2 1 1 0 1 79 0 0 0 3 0 3 17 3 8 23
CALL[ ]	/* CallFunction */";
};
width = 1229;
}
);
note = endash;
unicode = 8211;
},
{
glyphname = emdash;
lastChange = "2025-02-28 09:52:11 +0000";
layers = (
{
layerId = m01;
shapes = (
{
closed = 1;
nodes = (
(64,450,l),
(1164,450,l),
(1164,610,l),
(64,610,l)
);
}
);
userData = {
assembly = "NPUSHB[ ]	/* 27 values pushed */
0 0 1 1 0 87 0 0 0 1 95 2 1 1 0 1 79 0 0 0 3 0 3 17 3 8 23
CALL[ ]	/* CallFunction */";
};
width = 1229;
}
);
note = emdash;
unicode = 8212;
},
{
glyphname = underscore;
lastChange = "2025-02-27 20:33:14 +0000";
layers = (
{
layerId = m01;
shapes = (
{
closed = 1;
nodes = (
(154,0,l),
(1074,0,l),
(1074,-160,l),
(154,-160,l)
);
}
);
userData = {
assembly = "PUSHB[ ]	/* 2 values pushed */
6 100
WCVTP[ ]	/* WriteCVTInPixels */
NPUSHB[ ]	/* 21 values pushed */
0 0 1 1 0 87 0 0 0 1 95 0 1 0 1 79 17 16 2 8 24
CALL[ ]	/* CallFunction */
PUSHB[ ]	/* 2 values pushed */
6 0
WCVTP[ ]	/* WriteCVTInPixels */";
};
width = 1229;
}
);
note = underscore;
unicode = 95;
},
{
glyphname = parenleft;
lastChange = "2025-02-27 19:26:48 +0000";
layers = (
{
layerId = m01;
shapes = (
{
closed = 1;
nodes = (
(395,986,o),
(433,1094,qs),
(471,1201,o),
(570,1379,o),
(625,1448,qs),
(679,1517,o),
(759,1585,o),
(809,1613,q),
(878,1613,l),
(878,1521,l),
(846,1497,o),
(781,1429,o),
(750,1387,qs),
(704,1322,o),
(620,1147,o),
(592,1043,qs),
(565,949,o),
(535,723,o),
(535,593,qs),
(535,579,ls),
(535,454,o),
(563,236,o),
(587,144,qs),
(613,51,o),
(681,-108,o),
(718,-171,qs),
(756,-231,o),
(837,-324,o),
(878,-357,q),
(878,-440,l),
(809,-440,l),
(759,-412,o),
(678,-345,o),
(624,-275,qs),
(569,-206,o),
(470,-29,o),
(433,79,qs),
(395,186,o),
(350,438,o),
(350,581,qs),
(350,591,ls),
(350,734,o)
);
}
);
userData = {
assembly = "PUSHB[ ]	/* 7 values pushed */
19 10 2 1 0 1 76
MPPEM[ ]	/* MeasurePixelPerEm */
PUSHB[ ]	/* 1 value pushed */
26
LT[ ]	/* LessThan */
IF[ ]	/* If */
NPUSHB[ ]	/* 12 values pushed */
0 0 0 32 77 2 1 1 1 31 1 78
ELSE[ ]	/* Else */
NPUSHB[ ]	/* 12 values pushed */
2 1 1 1 0 95 0 0 0 32 1 78
EIF[ ]	/* EndIf */
NPUSHB[ ]	/* 10 values pushed */
0 0 0 20 0 20 24 3 8 23
CALL[ ]	/* CallFunction */";
};
width = 1229;
}
);
note = parenleft;
unicode = 40;
},
{
glyphname = parenright;
lastChange = "2025-02-27 19:27:08 +0000";
layers = (
{
layerId = m01;
shapes = (
{
closed = 1;
nodes = (
(878,591,qs),
(878,581,ls),
(878,438,o),
(833,186,o),
(795,79,qs),
(758,-29,o),
(659,-206,o),
(604,-275,qs),
(550,-345,o),
(469,-412,o),
(419,-440,q),
(350,-440,l),
(350,-357,l),
(391,-324,o),
(472,-231,o),
(510,-171,qs),
(547,-108,o),
(615,51,o),
(641,144,qs),
(665,236,o),
(693,454,o),
(693,579,qs),
(693,593,ls),
(693,723,o),
(663,949,o),
(636,1043,qs),
(608,1147,o),
(524,1322,o),
(478,1387,qs),
(447,1429,o),
(382,1497,o),
(350,1521,q),
(350,1613,l),
(419,1613,l),
(469,1585,o),
(549,1517,o),
(603,1448,qs),
(658,1379,o),
(757,1201,o),
(795,1094,qs),
(833,986,o),
(878,734,o)
);
}
);
userData = {
assembly = "PUSHB[ ]	/* 7 values pushed */
10 1 2 1 0 1 76
MPPEM[ ]	/* MeasurePixelPerEm */
PUSHB[ ]	/* 1 value pushed */
26
LT[ ]	/* LessThan */
IF[ ]	/* If */
NPUSHB[ ]	/* 12 values pushed */
0 0 0 32 77 2 1 1 1 31 1 78
ELSE[ ]	/* Else */
NPUSHB[ ]	/* 12 values pushed */
2 1 1 1 0 95 0 0 0 32 1 78
EIF[ ]	/* EndIf */
NPUSHB[ ]	/* 10 values pushed */
0 0 0 20 0 20 27 3 8 23
CALL[ ]	/* CallFunction */";
};
width = 1229;
}
);
note = parenright;
unicode = 41;
},
{
glyphname = braceleft;
lastChange = "2025-02-27 19:22:15 +0000";
layers = (
{
layerId = m01;
shapes = (
{
closed = 1;
nodes = (
(685,1692,o),
(603,1619,qs),
(498,1525,o),
(485,1309,qs),
(469,1026,l),
(456,931,o),
(433,902,qs),
(379,837,o),
(312,835,qs),
(204,835,l),
(204,601,l),
(312,601,ls),
(381,601,o),
(424,551,qs),
(471,497,o),
(472,415,qs),
(485,88,ls),
(489,-1,o),
(547,-96,qs),
(651,-269,o),
(895,-269,qs),
(1024,-269,l),
(1024,-91,l),
(900,-91,ls),
(762,-91,o),
(700,34,qs),
(658,78,o),
(655,141,qs),
(641,454,ls),
(632,644,o),
(569,681,qs),
(505,720,l),
(570,760,l),
(634,814,o),
(641,968,qs),
(655,1274,ls),
(658,1336,o),
(687,1385,qs),
(732,1520,o),
(900,1520,qs),
(1024,1520,l),
(1024,1692,l),
(884,1692,ls)
);
}
);
userData = {
assembly = "PUSHB[ ]	/* 6 values pushed */
10 1 3 4 1 76
MPPEM[ ]	/* MeasurePixelPerEm */
PUSHB[ ]	/* 1 value pushed */
26
LT[ ]	/* LessThan */
IF[ ]	/* If */
NPUSHB[ ]	/* 30 values pushed */
0 4 0 3 1 4 3 103 0 0 0 5 95 6 1 5 5 32 77 0 1 1 2 95 0 2 2 31 2 78
ELSE[ ]	/* Else */
NPUSHB[ ]	/* 28 values pushed */
6 1 5 0 0 4 5 0 103 0 4 0 3 1 4 3 103 0 1 1 2 95 0 2 2 31 2 78
EIF[ ]	/* EndIf */
NPUSHB[ ]	/* 14 values pushed */
0 0 0 42 0 41 33 39 33 46 33 7 8 27
CALL[ ]	/* CallFunction */";
};
width = 1229;
}
);
note = braceleft;
unicode = 123;
},
{
glyphname = braceright;
lastChange = "2025-02-27 19:22:38 +0000";
layers = (
{
layerId = m01;
shapes = (
{
closed = 1;
nodes = (
(204,1692,l),
(204,1520,l),
(328,1520,ls),
(496,1520,o),
(541,1385,qs),
(570,1336,o),
(573,1274,qs),
(587,968,ls),
(594,814,o),
(658,760,q),
(723,720,l),
(659,681,ls),
(596,644,o),
(587,454,qs),
(573,141,ls),
(570,78,o),
(528,34,qs),
(466,-91,o),
(328,-91,qs),
(204,-91,l),
(204,-269,l),
(333,-269,ls),
(577,-269,o),
(681,-96,qs),
(739,-1,o),
(743,88,qs),
(756,415,ls),
(757,497,o),
(804,551,qs),
(847,601,o),
(916,601,qs),
(1024,601,l),
(1024,835,l),
(916,835,ls),
(849,837,o),
(795,902,qs),
(772,931,o),
(759,1026,q),
(743,1309,ls),
(730,1525,o),
(625,1619,qs),
(543,1692,o),
(344,1692,qs)
);
}
);
userData = {
assembly = "PUSHB[ ]	/* 6 values pushed */
33 1 2 1 1 76
MPPEM[ ]	/* MeasurePixelPerEm */
PUSHB[ ]	/* 1 value pushed */
26
LT[ ]	/* LessThan */
IF[ ]	/* If */
NPUSHB[ ]	/* 29 values pushed */
0 1 0 2 4 1 2 103 0 5 5 0 95 0 0 0 32 77 0 4 4 3 95 0 3 3 31 3 78
ELSE[ ]	/* Else */
NPUSHB[ ]	/* 27 values pushed */
0 0 0 5 1 0 5 103 0 1 0 2 4 1 2 103 0 4 4 3 95 0 3 3 31 3 78
EIF[ ]	/* EndIf */
NPUSHB[ ]	/* 9 values pushed */
46 33 39 33 39 32 6 8 28
CALL[ ]	/* CallFunction */";
};
width = 1229;
}
);
note = braceright;
unicode = 125;
},
{
glyphname = bracketleft;
lastChange = "2025-02-27 19:18:34 +0000";
layers = (
{
layerId = m01;
shapes = (
{
closed = 1;
nodes = (
(569,-160,l),
(834,-160,l),
(834,-312,l),
(394,-312,l),
(394,1664,l),
(834,1664,l),
(834,1512,l),
(569,1512,l)
);
}
);
userData = {
assembly = "MPPEM[ ]	/* MeasurePixelPerEm */
PUSHB[ ]	/* 1 value pushed */
34
LT[ ]	/* LessThan */
IF[ ]	/* If */
NPUSHB[ ]	/* 22 values pushed */
0 1 1 0 95 0 0 0 32 77 0 2 2 3 95 4 1 3 3 31 3 78
ELSE[ ]	/* Else */
NPUSHB[ ]	/* 19 values pushed */
0 2 4 1 3 2 3 99 0 1 1 0 95 0 0 0 32 1 78
EIF[ ]	/* EndIf */
NPUSHB[ ]	/* 12 values pushed */
0 0 0 7 0 7 17 17 17 5 8 25
CALL[ ]	/* CallFunction */";
};
width = 1229;
}
);
note = bracketleft;
unicode = 91;
},
{
glyphname = bracketright;
lastChange = "2025-02-27 19:19:14 +0000";
layers = (
{
layerId = m01;
shapes = (
{
closed = 1;
nodes = (
(834,-312,l),
(394,-312,l),
(394,-160,l),
(659,-160,l),
(659,1512,l),
(394,1512,l),
(394,1664,l),
(834,1664,l)
);
}
);
userData = {
assembly = "MPPEM[ ]	/* MeasurePixelPerEm */
PUSHB[ ]	/* 1 value pushed */
34
LT[ ]	/* LessThan */
IF[ ]	/* If */
NPUSHB[ ]	/* 22 values pushed */
0 1 1 2 95 0 2 2 32 77 0 0 0 3 95 4 1 3 3 31 3 78
ELSE[ ]	/* Else */
NPUSHB[ ]	/* 19 values pushed */
0 0 4 1 3 0 3 99 0 1 1 2 95 0 2 2 32 1 78
EIF[ ]	/* EndIf */
NPUSHB[ ]	/* 12 values pushed */
0 0 0 7 0 7 17 17 17 5 8 25
CALL[ ]	/* CallFunction */";
};
width = 1229;
}
);
note = bracketright;
unicode = 93;
},
{
glyphname = quotesinglbase;
lastChange = "2025-02-28 09:42:39 +0000";
layers = (
{
layerId = m01;
shapes = (
{
closed = 1;
nodes = (
(503,-305,l),
(723,103,l),
(723,225,l),
(538,225,l),
(355,-305,l)
);
}
);
userData = {
assembly = "NPUSHB[ ]	/* 22 values pushed */
2 1 1 0 1 76 0 0 1 0 133 0 1 1 35 1 78 18 16 2 8 24
CALL[ ]	/* CallFunction */";
};
width = 1229;
}
);
note = quotesinglbase;
unicode = 8218;
},
{
glyphname = quotedblbase;
lastChange = "2025-02-28 09:43:27 +0000";
layers = (
{
layerId = m01;
shapes = (
{
closed = 1;
nodes = (
(363,-305,l),
(583,103,l),
(583,225,l),
(398,225,l),
(215,-305,l)
);
},
{
closed = 1;
nodes = (
(653,-305,l),
(873,103,l),
(873,225,l),
(688,225,l),
(505,-305,l)
);
}
);
userData = {
assembly = "NPUSHB[ ]	/* 27 values pushed */
7 2 2 1 0 1 76 2 1 0 0 1 95 3 1 1 1 35 1 78 18 17 18 16 4 8 26
CALL[ ]	/* CallFunction */";
};
width = 1229;
}
);
note = quotedblbase;
unicode = 8222;
},
{
glyphname = quoteleft;
lastChange = "2025-02-28 09:50:47 +0000";
layers = (
{
layerId = m01;
shapes = (
{
closed = 1;
nodes = (
(712,1569,l),
(492,1161,l),
(492,1039,l),
(677,1039,l),
(860,1569,l)
);
}
);
userData = {
assembly = "NPUSHB[ ]	/* 22 values pushed */
2 1 1 1 0 95 0 0 0 32 1 78 0 0 0 3 0 3 17 3 8 23
CALL[ ]	/* CallFunction */";
};
width = 1229;
}
);
note = quoteleft;
unicode = 8216;
},
{
glyphname = quoteright;
lastChange = "2025-02-28 09:49:52 +0000";
layers = (
{
layerId = m01;
shapes = (
{
closed = 1;
nodes = (
(516,1028,l),
(736,1436,l),
(736,1558,l),
(551,1558,l),
(368,1028,l)
);
}
);
userData = {
assembly = "NPUSHB[ ]	/* 22 values pushed */
2 1 1 1 0 95 0 0 0 32 1 78 0 0 0 3 0 3 17 3 8 23
CALL[ ]	/* CallFunction */";
};
width = 1229;
}
);
note = quoteright;
unicode = 8217;
},
{
glyphname = guilsinglleft;
lastChange = "2025-02-27 20:20:30 +0000";
layers = (
{
layerId = m01;
shapes = (
{
closed = 1;
nodes = (
(691,153,l),
(396,541,l),
(396,560,l),
(691,949,l),
(832,949,l),
(574,550,l),
(832,153,l)
);
}
);
userData = {
assembly = "PUSHB[ ]	/* 4 values pushed */
5 2 1 50
CALL[ ]	/* CallFunction */";
};
width = 1229;
}
);
note = guilsinglleft;
unicode = 8249;
},
{
glyphname = guilsinglright;
lastChange = "2025-02-27 20:21:03 +0000";
layers = (
{
layerId = m01;
shapes = (
{
closed = 1;
nodes = (
(832,541,l),
(538,152,l),
(396,152,l),
(654,550,l),
(396,949,l),
(538,949,l),
(832,560,l)
);
}
);
userData = {
assembly = "PUSHB[ ]	/* 4 values pushed */
4 1 1 50
CALL[ ]	/* CallFunction */";
};
width = 1229;
}
);
note = guilsinglright;
unicode = 8250;
},
{
glyphname = quotedbl;
lastChange = "2025-02-28 09:44:51 +0000";
layers = (
{
layerId = m01;
shapes = (
{
closed = 1;
nodes = (
(354,1057,l),
(355,1411,l),
(355,1536,l),
(505,1536,l),
(505,1427,l),
(484,1057,l)
);
},
{
closed = 1;
nodes = (
(712,1057,l),
(713,1411,l),
(713,1536,l),
(863,1536,l),
(862,1427,l),
(841,1057,l)
);
}
);
userData = {
assembly = "NPUSHB[ ]	/* 33 values pushed */
5 3 4 3 1 1 0 95 2 1 0 0 32 1 78 4 4 0 0 4 7 4 7 6 5 0 3 0 3 17 6 8 23
CALL[ ]	/* CallFunction */";
};
width = 1229;
}
);
note = quotedbl;
unicode = 34;
},
{
glyphname = quotesingle;
lastChange = "2025-02-28 09:45:16 +0000";
layers = (
{
layerId = m01;
shapes = (
{
closed = 1;
nodes = (
(494,1057,l),
(495,1409,l),
(495,1536,l),
(653,1536,l),
(653,1425,l),
(632,1057,l)
);
}
);
userData = {
assembly = "NPUSHB[ ]	/* 22 values pushed */
2 1 1 1 0 95 0 0 0 32 1 78 0 0 0 3 0 3 17 3 8 23
CALL[ ]	/* CallFunction */";
};
width = 1229;
}
);
note = quotesingle;
unicode = 39;
},
{
glyphname = florin;
lastChange = "2025-02-27 20:15:50 +0000";
layers = (
{
layerId = m01;
shapes = (
{
closed = 1;
nodes = (
(684,1198,ls),
(684,1265,o),
(722,1358,o),
(800,1406,o),
(861,1406,qs),
(891,1406,o),
(941,1401,o),
(962,1395,q),
(985,1543,l),
(947,1553,o),
(876,1564,o),
(839,1564,qs),
(733,1564,o),
(578,1480,o),
(497,1317,o),
(497,1198,qs),
(497,1083,l),
(322,1083,l),
(322,938,l),
(497,938,l),
(497,-105,ls),
(497,-164,o),
(464,-255,o),
(402,-302,o),
(358,-302,qs),
(344,-302,o),
(273,-297,o),
(259,-289,q),
(244,-440,l),
(273,-450,o),
(327,-457,o),
(358,-457,qs),
(460,-457,o),
(606,-376,o),
(684,-217,o),
(684,-105,qs),
(684,938,l),
(890,938,l),
(890,1083,l),
(684,1083,l)
);
}
);
userData = {
assembly = "NPUSHB[ ]	/* 18 values pushed */
30 1 6 5 31 1 4 6 11 1 2 0 10 1 1 2 4 76
MPPEM[ ]	/* MeasurePixelPerEm */
PUSHB[ ]	/* 1 value pushed */
26
LT[ ]	/* LessThan */
IF[ ]	/* If */
NPUSHB[ ]	/* 29 values pushed */
0 5 0 6 4 5 6 105 0 2 0 1 2 1 101 3 1 0 0 4 95 8 7 2 4 4 30 0 78
ELSE[ ]	/* Else */
NPUSHB[ ]	/* 35 values pushed */
0 5 0 6 4 5 6 105 8 7 2 4 3 1 0 2 4 0 103 0 2 1 1 2 89 0 2 2 1 97 0 1 2 1 81
EIF[ ]	/* EndIf */
NPUSHB[ ]	/* 16 values pushed */
0 0 0 39 0 39 37 36 17 20 37 36 17 9 8 29
CALL[ ]	/* CallFunction */";
};
width = 1229;
}
);
note = florin;
unicode = 402;
},
{
glyphname = uni0E3F;
lastChange = "2025-02-28 11:08:10 +0000";
layers = (
{
layerId = m01;
shapes = (
{
closed = 1;
nodes = (
(671,-131,l),
(671,0,l),
(717,6,o),
(875,57,o),
(942,110,qs),
(1009,162,o),
(1089,318,o),
(1088,420,qs),
(1088,485,o),
(1049,597,o),
(1014,642,qs),
(981,683,o),
(879,751,o),
(824,764,q),
(824,767,l),
(877,790,o),
(952,842,o),
(983,880,qs),
(1013,917,o),
(1048,1011,o),
(1049,1068,qs),
(1050,1170,o),
(970,1316,o),
(903,1363,q),
(809,1436,o),
(671,1456,q),
(671,1669,l),
(471,1669,l),
(471,1456,l),
(141,1456,l),
(141,0,l),
(471,0,l),
(471,-131,l)
);
},
{
closed = 1;
nodes = (
(327,681,l),
(471,681,l),
(471,157,l),
(327,157,l)
);
},
{
closed = 1;
nodes = (
(671,676,l),
(708,670,o),
(787,639,o),
(821,610,qs),
(859,576,o),
(902,480,o),
(901,418,qs),
(901,357,o),
(854,261,o),
(814,228,qs),
(753,179,o),
(671,163,q)
);
},
{
closed = 1;
nodes = (
(327,1299,l),
(471,1299,l),
(471,835,l),
(327,835,l)
);
},
{
closed = 1;
nodes = (
(671,1290,l),
(730,1276,o),
(777,1244,qs),
(816,1216,o),
(863,1130,o),
(863,1069,qs),
(863,1012,o),
(815,926,o),
(776,897,qs),
(730,863,o),
(671,847,q)
);
}
);
userData = {
assembly = "NPUSHB[ ]	/* 20 values pushed */
40 31 2 6 5 14 1 7 6 55 45 2 8 7 23 1 4 8 4 76
MPPEM[ ]	/* MeasurePixelPerEm */
PUSHB[ ]	/* 1 value pushed */
9
LT[ ]	/* LessThan */
IF[ ]	/* If */
NPUSHB[ ]	/* 44 values pushed */
0 1 0 1 133 0 3 4 3 134 2 1 0 0 5 6 0 5 103 0 6 0 7 8 6 7 103 0 8 4 4 8 87 0 8 8 4 95 9 1 4 8 4 79
ELSE[ ]	/* Else */
NPUSHB[ ]	/* 51 values pushed */
0 1 0 1 133 0 2 0 5 0 2 5 128 0 3 4 3 134 0 0 0 5 6 0 5 103 0 6 0 7 8 6 7 103 0 8 4 4 8 87 0 8 8 4 95 9 1 4 8 4 79
EIF[ ]	/* EndIf */
NPUSHB[ ]	/* 22 values pushed */
0 0 44 43 42 41 30 29 28 27 0 26 0 26 25 24 17 17 17 10 6 25
CALL[ ]	/* CallFunction */";
};
width = 1229;
}
);
note = uni0E3F;
unicode = 3647;
},
{
glyphname = at;
lastChange = "2025-02-28 08:31:21 +0000";
layers = (
{
layerId = m01;
shapes = (
{
closed = 1;
nodes = (
(349,161,o),
(309,267,qs),
(286,326,o),
(286,403,qs),
(286,430,ls),
(291,556,o),
(323,614,qs),
(364,694,o),
(429,696,qs),
(439,696,ls),
(514,696,o),
(554,626,qs),
(587,567,o),
(587,438,qs),
(587,427,ls),
(584,303,o),
(559,236,qs),
(528,158,o),
(433,158,qs),
(421,158,ls)
);
},
{
closed = 1;
nodes = (
(613,771,l),
(559,849,o),
(444,849,qs),
(320,849,o),
(248,790,qs),
(132,693,o),
(132,430,qs),
(132,168,o),
(234,67,qs),
(293,10,o),
(420,0,qs),
(426,0,ls),
(472,0,o),
(559,46,qs),
(594,65,o),
(635,115,q),
(656,85,o),
(694,51,qs),
(755,0,o),
(847,0,qs),
(1054,0,o),
(1084,236,qs),
(1107,408,o),
(1107,595,qs),
(1107,698,o),
(1100,805,qs),
(1080,1119,o),
(982,1281,qs),
(875,1456,o),
(602,1456,qs),
(393,1456,o),
(282,1381,qs),
(168,1302,o),
(138,1179,qs),
(122,1042,o),
(122,979,q),
(294,979,l),
(301,1117,ls),
(305,1204,o),
(381,1257,qs),
(445,1305,o),
(602,1305,qs),
(787,1305,o),
(867,1190,qs),
(919,1117,o),
(954,797,qs),
(960,726,o),
(960,633,qs),
(960,473,o),
(939,245,qs),
(933,163,o),
(847,163,qs),
(752,163,o),
(752,242,qs),
(752,441,l),
(752,849,l),
(613,849,l)
);
}
);
userData = {
assembly = "MPPEM[ ]	/* MeasurePixelPerEm */
PUSHB[ ]	/* 1 value pushed */
35
LT[ ]	/* LessThan */
IF[ ]	/* If */
NPUSHB[ ]	/* 10 values pushed */
74 1 1 8 59 1 6 0 2 76
ELSE[ ]	/* Else */
NPUSHB[ ]	/* 10 values pushed */
74 1 1 9 59 1 6 0 2 76
EIF[ ]	/* EndIf */
MPPEM[ ]	/* MeasurePixelPerEm */
PUSHB[ ]	/* 1 value pushed */
35
LT[ ]	/* LessThan */
IF[ ]	/* If */
NPUSHB[ ]	/* 42 values pushed */
0 4 3 8 3 4 8 128 11 9 2 8 0 1 0 8 1 105 0 3 3 5 97 0 5 5 36 77 2 10 2 0 0 6 97 7 1 6 6 31 6 78
ELSE[ ]	/* Else */
MPPEM[ ]	/* MeasurePixelPerEm */
PUSHB[ ]	/* 1 value pushed */
39
LT[ ]	/* LessThan */
IF[ ]	/* If */
NPUSHB[ ]	/* 49 values pushed */
0 4 3 8 3 4 8 128 11 1 9 8 1 8 9 1 128 0 8 0 1 0 8 1 105 0 3 3 5 97 0 5 5 36 77 2 10 2 0 0 6 97 7 1 6 6 31 6 78
ELSE[ ]	/* Else */
NPUSHB[ ]	/* 47 values pushed */
0 4 3 8 3 4 8 128 11 1 9 8 1 8 9 1 128 0 5 0 3 4 5 3 105 0 8 0 1 0 8 1 105 2 10 2 0 0 6 97 7 1 6 6 31 6 78
EIF[ ]	/* EndIf */
EIF[ ]	/* EndIf */
NPUSHB[ ]	/* 31 values pushed */
20 20 1 0 20 75 20 75 73 71 63 62 56 54 46 44 39 38 34 32 24 22 11 8 0 19 1 18 12 8 22
CALL[ ]	/* CallFunction */";
};
width = 1229;
}
);
note = at;
unicode = 64;
},
{
glyphname = ampersand;
lastChange = "2025-02-28 08:26:41 +0000";
layers = (
{
layerId = m01;
shapes = (
{
closed = 1;
nodes = (
(572,950,o),
(494,890,q),
(494,894,o),
(431,990,qs),
(382,1067,o),
(382,1139,qs),
(382,1221,o),
(440,1278,qs),
(479,1320,o),
(581,1320,qs),
(588,1320,ls),
(667,1317,o),
(697,1288,qs),
(749,1239,o),
(749,1188,qs),
(749,1181,ls),
(744,1086,o),
(644,1008,qs)
);
},
{
closed = 1;
nodes = (
(700,159,o),
(581,157,qs),
(467,157,o),
(377,253,qs),
(325,310,o),
(323,412,qs),
(323,487,o),
(376,557,qs),
(410,596,o),
(457,634,q),
(604,424,o),
(749,207,q)
);
},
{
closed = 1;
nodes = (
(722,552,o),
(593,745,q),
(761,881,ls),
(931,1025,o),
(934,1185,qs),
(934,1194,ls),
(934,1299,o),
(860,1387,qs),
(778,1505,o),
(583,1505,qs),
(390,1505,o),
(305,1406,qs),
(191,1306,o),
(191,1139,qs),
(191,1055,o),
(253,939,q),
(358,791,l),
(277,721,l),
(232,688,o),
(177,605,qs),
(133,535,o),
(133,392,qs),
(133,231,o),
(267,90,qs),
(370,-18,o),
(581,-18,qs),
(731,-18,o),
(810,48,qs),
(839,72,l),
(884,0,l),
(1092,0,l),
(1024,104,o),
(964,193,q),
(1017,260,o),
(1060,397,qs),
(1089,467,o),
(1089,634,q),
(932,634,l),
(926,544,o),
(909,475,qs),
(892,408,o),
(861,342,q)
);
}
);
userData = {
assembly = "NPUSHB[ ]	/* 18 values pushed */
69 54 2 2 0 71 38 29 19 4 1 2 42 1 3 1 3 76
MPPEM[ ]	/* MeasurePixelPerEm */
PUSHB[ ]	/* 1 value pushed */
20
LT[ ]	/* LessThan */
IF[ ]	/* If */
NPUSHB[ ]	/* 33 values pushed */
0 0 0 5 97 0 5 5 32 77 0 2 2 3 97 4 1 3 3 31 77 0 1 1 3 97 4 1 3 3 31 3 78
ELSE[ ]	/* Else */
MPPEM[ ]	/* MeasurePixelPerEm */
PUSHB[ ]	/* 1 value pushed */
39
LT[ ]	/* LessThan */
IF[ ]	/* If */
NPUSHB[ ]	/* 31 values pushed */
0 0 0 5 97 0 5 5 32 77 0 2 2 3 95 0 3 3 31 77 0 1 1 4 97 0 4 4 37 4 78
ELSE[ ]	/* Else */
MPPEM[ ]	/* MeasurePixelPerEm */
PUSHB[ ]	/* 1 value pushed */
47
LT[ ]	/* LessThan */
IF[ ]	/* If */
NPUSHB[ ]	/* 29 values pushed */
0 5 0 0 2 5 0 105 0 2 2 3 95 0 3 3 31 77 0 1 1 4 97 0 4 4 37 4 78
ELSE[ ]	/* Else */
NPUSHB[ ]	/* 26 values pushed */
0 5 0 0 2 5 0 105 0 1 0 4 1 4 101 0 2 2 3 95 0 3 3 31 3 78
EIF[ ]	/* EndIf */
EIF[ ]	/* EndIf */
EIF[ ]	/* EndIf */
NPUSHB[ ]	/* 14 values pushed */
62 60 46 44 41 40 34 33 28 26 53 6 8 23
CALL[ ]	/* CallFunction */";
};
width = 1229;
}
);
note = ampersand;
unicode = 38;
},
{
glyphname = paragraph;
lastChange = "2025-02-27 19:53:48 +0000";
layers = (
{
layerId = m01;
shapes = (
{
closed = 1;
nodes = (
(305,1048,o),
(305,1146,qs),
(305,1248,o),
(400,1248,qs),
(506,1248,l),
(506,0,l),
(713,0,l),
(713,1248,l),
(923,1248,l),
(923,0,l),
(1130,0,l),
(1130,1456,l),
(400,1456,ls),
(98,1456,o),
(98,1146,qs),
(98,839,o),
(400,839,q),
(400,1048,l),
(398,1048,ls)
);
}
);
userData = {
assembly = "MPPEM[ ]	/* MeasurePixelPerEm */
PUSHB[ ]	/* 1 value pushed */
36
LT[ ]	/* LessThan */
IF[ ]	/* If */
NPUSHB[ ]	/* 26 values pushed */
0 6 0 0 2 6 0 105 5 1 3 3 1 95 0 1 1 30 77 4 1 2 2 31 2 78
ELSE[ ]	/* Else */
NPUSHB[ ]	/* 24 values pushed */
0 1 5 1 3 6 1 3 105 0 6 0 0 2 6 0 105 4 1 2 2 31 2 78
EIF[ ]	/* EndIf */
NPUSHB[ ]	/* 10 values pushed */
18 33 17 17 17 34 17 7 8 29
CALL[ ]	/* CallFunction */";
};
width = 1229;
}
);
note = paragraph;
unicode = 182;
},
{
glyphname = section;
lastChange = "2025-02-27 19:52:32 +0000";
layers = (
{
layerId = m01;
shapes = (
{
closed = 1;
nodes = (
(1096,262,o),
(1055,222,qs),
(1034,203,o),
(983,169,o),
(954,156,q),
(983,136,o),
(1030,89,o),
(1047,61,qs),
(1071,24,o),
(1096,-70,o),
(1096,-128,qs),
(1096,-216,o),
(1025,-352,o),
(961,-399,qs),
(896,-446,o),
(717,-495,o),
(608,-495,qs),
(510,-495,o),
(323,-450,o),
(250,-399,qs),
(177,-349,o),
(87,-184,o),
(87,-64,q),
(272,-62,l),
(272,-140,o),
(332,-247,o),
(380,-280,qs),
(428,-314,o),
(548,-343,o),
(608,-343,qs),
(678,-343,o),
(790,-311,o),
(830,-283,qs),
(869,-255,o),
(911,-177,o),
(911,-130,qs),
(911,-82,o),
(873,-12,o),
(831,17,qs),
(799,39,o),
(705,79,o),
(642,100,qs),
(582,120,o),
(442,159,o),
(383,183,qs),
(336,202,o),
(253,246,o),
(220,273,qs),
(159,322,o),
(93,456,o),
(93,551,qs),
(93,612,o),
(134,713,o),
(172,753,qs),
(192,774,o),
(245,810,o),
(275,825,q),
(252,842,o),
(213,881,o),
(197,902,qs),
(168,943,o),
(138,1045,o),
(138,1110,qs),
(138,1194,o),
(209,1329,o),
(273,1377,qs),
(337,1425,o),
(517,1476,o),
(626,1476,qs),
(740,1476,o),
(922,1419,o),
(986,1365,qs),
(1049,1310,o),
(1118,1149,o),
(1118,1045,q),
(933,1045,l),
(933,1103,o),
(892,1206,o),
(853,1244,qs),
(814,1281,o),
(699,1325,o),
(626,1325,qs),
(551,1325,o),
(438,1292,o),
(400,1264,qs),
(361,1235,o),
(323,1157,o),
(323,1112,qs),
(323,1060,o),
(357,988,o),
(398,960,qs),
(419,945,o),
(477,917,o),
(513,903,qs),
(546,891,o),
(625,867,o),
(672,854,qs),
(726,839,o),
(823,807,o),
(866,789,qs),
(909,771,o),
(983,730,o),
(1014,706,qs),
(1075,658,o),
(1140,525,o),
(1140,431,qs),
(1140,366,o)
);
},
{
closed = 1;
nodes = (
(472,728,o),
(435,742,q),
(402,734,o),
(349,707,o),
(330,688,qs),
(304,662,o),
(278,594,o),
(278,553,qs),
(278,480,o),
(347,392,o),
(432,355,qs),
(470,338,o),
(570,306,o),
(632,289,qs),
(676,276,o),
(756,252,o),
(793,238,q),
(826,247,o),
(881,276,o),
(901,296,qs),
(927,321,o),
(955,388,o),
(956,428,qs),
(956,476,o),
(916,549,o),
(873,579,qs),
(853,593,o),
(803,619,o),
(773,631,qs),
(737,646,o),
(650,675,o),
(598,691,qs),
(553,703,o)
);
}
);
userData = {
assembly = "NPUSHB[ ]	/* 14 values pushed */
66 1 4 5 38 1 1 4 77 1 7 0 3 76
MPPEM[ ]	/* MeasurePixelPerEm */
PUSHB[ ]	/* 1 value pushed */
36
LT[ ]	/* LessThan */
IF[ ]	/* If */
NPUSHB[ ]	/* 51 values pushed */
0 4 5 1 5 4 1 128 0 1 0 5 1 0 126 0 0 7 5 0 7 126 8 1 7 2 5 7 2 126 0 5 5 3 97 0 3 3 32 77 0 2 2 6 98 0 6 6 31 6 78
ELSE[ ]	/* Else */
NPUSHB[ ]	/* 49 values pushed */
0 4 5 1 5 4 1 128 0 1 0 5 1 0 126 0 0 7 5 0 7 126 8 1 7 2 5 7 2 126 0 3 0 5 4 3 5 105 0 2 2 6 98 0 6 6 31 6 78
EIF[ ]	/* EndIf */
NPUSHB[ ]	/* 20 values pushed */
19 19 19 90 19 90 87 84 61 59 53 52 49 46 43 54 17 9 8 25
CALL[ ]	/* CallFunction */";
};
width = 1229;
}
);
note = section;
unicode = 167;
},
{
glyphname = copyright;
lastChange = "2025-02-27 19:54:20 +0000";
layers = (
{
layerId = m01;
shapes = (
{
closed = 1;
nodes = (
(832,302,o),
(803,273,qs),
(771,241,o),
(675,208,o),
(613,208,qs),
(551,208,o),
(455,252,o),
(422,291,qs),
(389,329,o),
(353,435,o),
(353,498,qs),
(353,585,ls),
(353,647,o),
(389,754,o),
(422,793,qs),
(455,832,o),
(551,876,o),
(613,876,qs),
(676,876,o),
(773,842,o),
(805,809,qs),
(833,779,o),
(863,695,o),
(863,641,q),
(753,641,l),
(753,675,o),
(737,726,o),
(721,743,qs),
(704,761,o),
(650,778,o),
(613,778,qs),
(575,778,o),
(518,748,o),
(499,723,qs),
(480,697,o),
(462,626,o),
(462,586,qs),
(462,498,ls),
(462,457,o),
(480,387,o),
(499,361,qs),
(518,335,o),
(575,305,o),
(613,305,qs),
(650,305,o),
(704,322,o),
(720,340,qs),
(736,357,o),
(752,408,o),
(752,443,q),
(862,443,l),
(862,388,o)
);
},
{
closed = 1;
nodes = (
(245,271,o),
(305,207,qs),
(365,142,o),
(528,68,o),
(623,68,qs),
(717,68,o),
(880,143,o),
(940,208,qs),
(1000,272,o),
(1068,444,o),
(1068,542,qs),
(1068,639,o),
(1000,810,o),
(940,874,qs),
(880,938,o),
(717,1011,o),
(623,1011,qs),
(528,1011,o),
(365,938,o),
(305,874,qs),
(245,810,o),
(177,639,o),
(177,542,qs),
(177,444,o)
);
},
{
closed = 1;
nodes = (
(177,871,o),
(250,945,qs),
(322,1019,o),
(516,1102,o),
(623,1102,qs),
(736,1102,o),
(930,1014,o),
(1002,939,qs),
(1073,863,o),
(1155,659,o),
(1155,542,qs),
(1155,425,o),
(1073,220,o),
(1002,144,qs),
(930,67,o),
(736,-21,o),
(623,-21,qs),
(510,-21,o),
(315,67,o),
(244,144,qs),
(172,220,o),
(90,425,o),
(90,542,qs),
(91,664,o)
);
}
);
userData = {
assembly = "PUSHB[ ]	/* 2 values pushed */
6 100
WCVTP[ ]	/* WriteCVTInPixels */
NPUSHB[ ]	/* 88 values pushed */
0 7 8 4 8 7 4 128 0 4 9 8 4 9 126 0 2 0 0 6 2 0 105 0 6 0 8 7 6 8 105 0 9 0 5 1 9 5 105 10 1 1 3 3 1 89 10 1 1 1 3 98 11 1 3 1 3 82 8 8 0 0 54 52 45 43 39 38 35 33 23 20 17 16 8 15 8 14 12 10 0 7 0 6 34 12 8 23
CALL[ ]	/* CallFunction */
PUSHB[ ]	/* 2 values pushed */
6 0
WCVTP[ ]	/* WriteCVTInPixels */";
};
width = 1229;
}
);
note = copyright;
unicode = 169;
},
{
glyphname = registered;
lastChange = "2025-02-27 19:54:53 +0000";
layers = (
{
layerId = m01;
shapes = (
{
closed = 1;
nodes = (
(169,862,o),
(241,938,qs),
(312,1014,o),
(507,1101,o),
(620,1101,qs),
(733,1101,o),
(927,1014,o),
(999,938,qs),
(1070,862,o),
(1152,657,o),
(1152,540,qs),
(1152,423,o),
(1070,218,o),
(999,143,qs),
(927,67,o),
(733,-21,o),
(620,-21,qs),
(507,-21,o),
(312,67,o),
(241,143,qs),
(169,218,o),
(87,423,o),
(87,540,qs),
(87,657,o)
);
},
{
closed = 1;
nodes = (
(242,271,o),
(302,207,qs),
(362,143,o),
(525,69,o),
(620,69,qs),
(714,69,o),
(877,143,o),
(937,207,qs),
(997,271,o),
(1065,442,o),
(1065,540,qs),
(1065,638,o),
(997,810,o),
(937,874,qs),
(877,937,o),
(714,1010,o),
(620,1010,qs),
(525,1010,o),
(362,937,o),
(302,874,qs),
(242,810,o),
(174,638,o),
(174,540,qs),
(174,442,o)
);
},
{
closed = 1;
nodes = (
(401,232,l),
(401,867,l),
(612,867,ls),
(721,867,o),
(852,772,o),
(852,675,qs),
(852,619,o),
(782,541,o),
(716,519,q),
(863,232,l),
(753,232,l),
(633,485,l),
(508,485,l),
(508,232,l)
);
},
{
closed = 1;
nodes = (
(651,583,o),
(695,595,o),
(711,606,qs),
(726,618,o),
(745,650,o),
(745,671,qs),
(745,726,o),
(685,770,o),
(612,770,qs),
(508,770,l),
(508,582,l),
(627,582,ls)
);
}
);
userData = {
assembly = "PUSHB[ ]	/* 2 values pushed */
6 100
WCVTP[ ]	/* WriteCVTInPixels */
NPUSHB[ ]	/* 93 values pushed */
37 1 8 4 1 76 12 9 2 7 8 1 8 7 1 128 0 2 0 0 6 2 0 105 0 6 0 5 4 6 5 105 0 4 0 8 7 4 8 103 10 1 1 3 3 1 89 10 1 1 1 3 97 11 1 3 1 3 81 27 27 8 8 0 0 27 44 27 44 43 42 40 39 30 28 26 24 18 16 8 15 8 14 12 10 0 7 0 6 34 13 8 23
CALL[ ]	/* CallFunction */
PUSHB[ ]	/* 2 values pushed */
6 0
WCVTP[ ]	/* WriteCVTInPixels */";
};
width = 1229;
}
);
note = registered;
unicode = 174;
},
{
glyphname = trademark;
lastChange = "2025-02-28 09:55:15 +0000";
layers = (
{
layerId = m01;
shapes = (
{
closed = 1;
nodes = (
(797,919,l),
(658,1312,l),
(658,919,l),
(568,919,l),
(568,1456,l),
(680,1456,l),
(823,1057,l),
(967,1456,l),
(1079,1456,l),
(1079,919,l),
(989,919,l),
(989,1313,l),
(849,919,l)
);
},
{
closed = 1;
nodes = (
(341,919,l),
(250,919,l),
(250,1375,l),
(103,1375,l),
(103,1456,l),
(489,1456,l),
(489,1375,l),
(341,1375,l)
);
}
);
userData = {
assembly = "PUSHB[ ]	/* 8 values pushed */
19 16 11 3 7 0 1 76
MPPEM[ ]	/* MeasurePixelPerEm */
PUSHB[ ]	/* 1 value pushed */
9
LT[ ]	/* LessThan */
IF[ ]	/* If */
NPUSHB[ ]	/* 37 values pushed */
0 7 0 3 0 7 3 128 10 8 6 9 4 3 3 132 5 4 2 1 0 0 1 87 5 4 2 1 1 0 95 2 1 0 1 0 79
ELSE[ ]	/* Else */
NPUSHB[ ]	/* 43 values pushed */
0 7 0 3 0 7 3 128 9 1 3 6 0 3 6 126 10 8 2 6 6 132 5 4 2 1 0 0 1 87 5 4 2 1 1 0 95 2 1 0 1 0 79
EIF[ ]	/* EndIf */
NPUSHB[ ]	/* 26 values pushed */
8 8 0 0 8 20 8 20 18 17 15 14 13 12 10 9 0 7 0 7 17 17 17 11 6 25
CALL[ ]	/* CallFunction */";
};
width = 1229;
}
);
note = trademark;
unicode = 8482;
},
{
glyphname = degree;
lastChange = "2025-02-27 20:22:58 +0000";
layers = (
{
layerId = m01;
shapes = (
{
closed = 1;
nodes = (
(403,1364,o),
(438,1400,qs),
(472,1435,o),
(565,1476,o),
(617,1476,qs),
(668,1476,o),
(759,1435,o),
(793,1400,qs),
(827,1364,o),
(867,1269,o),
(867,1216,qs),
(867,1163,o),
(827,1069,o),
(793,1035,qs),
(759,1000,o),
(668,960,o),
(617,960,qs),
(565,960,o),
(472,1000,o),
(438,1035,qs),
(403,1069,o),
(362,1162,o),
(362,1216,qs),
(362,1269,o)
);
},
{
closed = 1;
nodes = (
(507,1142,o),
(525,1125,qs),
(542,1107,o),
(590,1088,o),
(617,1088,qs),
(644,1088,o),
(690,1107,o),
(708,1125,qs),
(725,1142,o),
(744,1189,o),
(744,1216,qs),
(744,1244,o),
(725,1293,o),
(708,1311,qs),
(690,1329,o),
(644,1349,o),
(617,1349,qs),
(590,1349,o),
(542,1329,o),
(525,1311,qs),
(507,1293,o),
(486,1244,o),
(486,1216,qs),
(486,1189,o)
);
}
);
userData = {
assembly = "PUSHB[ ]	/* 2 values pushed */
6 100
WCVTP[ ]	/* WriteCVTInPixels */
NPUSHB[ ]	/* 46 values pushed */
0 3 0 1 0 3 1 105 4 1 0 2 2 0 89 4 1 0 0 2 97 5 1 2 0 2 81 21 20 2 0 30 27 20 37 21 36 12 9 0 19 2 19 6 8 22
CALL[ ]	/* CallFunction */
PUSHB[ ]	/* 2 values pushed */
6 0
WCVTP[ ]	/* WriteCVTInPixels */";
};
width = 1229;
}
);
note = degree;
unicode = 176;
},
{
glyphname = bar;
lastChange = "2025-02-27 19:23:36 +0000";
layers = (
{
layerId = m01;
shapes = (
{
closed = 1;
nodes = (
(514,1456,l),
(714,1456,l),
(714,-398,l),
(514,-398,l)
);
}
);
userData = {
assembly = "NPUSHB[ ]	/* 20 values pushed */
0 0 1 0 133 2 1 1 1 118 0 0 0 3 0 3 17 3 8 23
CALL[ ]	/* CallFunction */";
};
width = 1229;
}
);
note = bar;
unicode = 124;
},
{
glyphname = brokenbar;
lastChange = "2025-02-27 19:24:10 +0000";
layers = (
{
layerId = m01;
shapes = (
{
closed = 1;
nodes = (
(714,521,l),
(714,-270,l),
(514,-270,l),
(514,521,l)
);
},
{
closed = 1;
nodes = (
(514,1456,l),
(714,1456,l),
(714,698,l),
(514,698,l)
);
}
);
userData = {
assembly = "NPUSHB[ ]	/* 44 values pushed */
0 2 5 1 3 0 2 3 103 0 0 1 1 0 87 0 0 0 1 95 4 1 1 0 1 79 4 4 0 0 4 7 4 7 6 5 0 3 0 3 17 6 8 23
CALL[ ]	/* CallFunction */";
};
width = 1229;
}
);
note = brokenbar;
unicode = 166;
},
{
glyphname = dagger;
lastChange = "2025-02-28 10:14:52 +0000";
layers = (
{
layerId = m01;
shapes = (
{
closed = 1;
nodes = (
(704,0,l),
(519,0,l),
(519,929,l),
(119,929,l),
(119,1082,l),
(519,1082,l),
(519,1456,l),
(704,1456,l),
(704,1082,l),
(1109,1082,l),
(1109,929,l),
(704,929,l)
);
}
);
userData = {
assembly = "NPUSHB[ ]	/* 38 values pushed */
0 5 0 5 133 0 2 1 2 134 4 1 0 1 1 0 87 4 1 0 0 1 95 3 1 1 0 1 79 17 17 17 17 17 16 6 8 28
CALL[ ]	/* CallFunction */";
};
width = 1229;
}
);
note = dagger;
unicode = 8224;
},
{
glyphname = uni2113;
lastChange = "2025-02-28 10:45:45 +0000";
layers = (
{
layerId = m01;
shapes = (
{
closed = 1;
nodes = (
(574,45,o),
(522,105,qs),
(469,164,o),
(418,330,o),
(418,431,qs),
(418,445,l),
(369,433,o),
(285,420,o),
(229,420,q),
(229,596,l),
(287,596,o),
(371,610,o),
(418,623,q),
(418,1102,ls),
(418,1152,o),
(432,1241,o),
(445,1279,qs),
(459,1317,o),
(498,1381,o),
(524,1406,qs),
(562,1442,o),
(665,1481,o),
(728,1481,qs),
(788,1481,o),
(888,1436,o),
(924,1395,qs),
(960,1353,o),
(999,1237,o),
(999,1165,qs),
(999,1124,ls),
(999,1047,o),
(947,878,o),
(897,797,qs),
(846,715,o),
(699,570,o),
(603,518,q),
(603,431,ls),
(603,363,o),
(626,254,o),
(654,216,qs),
(682,177,o),
(832,136,o),
(900,136,q),
(900,-21,l),
(792,-21,o)
);
},
{
closed = 1;
nodes = (
(736,846,o),
(762,900,qs),
(788,953,o),
(814,1066,o),
(814,1122,qs),
(814,1165,ls),
(814,1202,o),
(803,1260,o),
(793,1280,qs),
(783,1301,o),
(749,1323,o),
(728,1323,qs),
(701,1323,o),
(659,1303,o),
(644,1284,qs),
(623,1256,o),
(603,1164,o),
(603,1102,qs),
(603,711,l),
(657,750,o)
);
}
);
width = 1229;
}
);
unicode = 8467;
},
{
glyphname = daggerdbl;
lastChange = "2025-02-28 10:16:14 +0000";
layers = (
{
layerId = m01;
shapes = (
{
closed = 1;
nodes = (
(702,-416,l),
(517,-416,l),
(517,0,l),
(120,0,l),
(120,151,l),
(517,151,l),
(517,929,l),
(120,929,l),
(120,1082,l),
(517,1082,l),
(517,1456,l),
(702,1456,l),
(702,1082,l),
(1109,1082,l),
(1109,929,l),
(702,929,l),
(702,151,l),
(1109,151,l),
(1109,0,l),
(702,0,l)
);
}
);
userData = {
assembly = "NPUSHB[ ]	/* 53 values pushed */
0 9 0 9 133 0 4 3 4 134 8 1 0 7 1 1 2 0 1 103 6 1 2 3 3 2 87 6 1 2 2 3 95 5 1 3 2 3 79 19 18 17 17 17 17 17 17 17 17 16 10 8 31
CALL[ ]	/* CallFunction */";
};
width = 1229;
}
);
note = daggerdbl;
unicode = 8225;
},
{
glyphname = estimated;
lastChange = "2025-02-28 10:19:58 +0000";
layers = (
{
layerId = m01;
shapes = (
{
closed = 1;
nodes = (
(837,-20,o),
(677,-20,qs),
(567,-20,o),
(376,69,o),
(306,146,qs),
(235,222,o),
(153,426,o),
(153,541,qs),
(153,617,o),
(194,760,o),
(230,822,qs),
(266,884,o),
(365,987,o),
(424,1024,qs),
(482,1061,o),
(611,1102,o),
(677,1102,qs),
(780,1102,o),
(961,1020,o),
(1028,947,qs),
(1094,874,o),
(1172,676,o),
(1172,561,qs),
(1172,514,l),
(404,514,l),
(404,186,l),
(459,135,o),
(599,76,o),
(677,76,qs),
(771,75,o),
(898,117,o),
(944,189,q),
(1172,189,l),
(1116,129,l),
(1053,51,o)
);
},
{
closed = 1;
nodes = (
(461,942,o),
(404,886,q),
(404,609,l),
(944,609,l),
(944,895,l),
(890,946,o),
(754,1008,o),
(677,1008,qs),
(601,1008,o)
);
}
);
width = 1229;
}
);
unicode = 8494;
},
{
glyphname = uni2116;
lastChange = "2025-02-27 20:17:20 +0000";
layers = (
{
layerId = m01;
shapes = (
{
closed = 1;
nodes = (
(279,915,l),
(280,0,l),
(104,0,l),
(104,1456,l),
(279,1456,l),
(547,545,l),
(546,1456,l),
(722,1456,l),
(722,0,l),
(546,0,l)
);
},
{
closed = 1;
nodes = (
(826,1387,o),
(846,1414,qs),
(866,1441,o),
(926,1472,o),
(964,1472,qs),
(1003,1472,o),
(1064,1441,o),
(1084,1414,qs),
(1104,1387,o),
(1125,1315,o),
(1125,1275,qs),
(1125,1069,ls),
(1125,1029,o),
(1104,958,o),
(1084,932,qs),
(1064,905,o),
(1004,874,o),
(965,874,qs),
(926,874,o),
(867,905,o),
(847,932,qs),
(826,958,o),
(805,1029,o),
(805,1069,qs),
(805,1275,ls),
(805,1315,o)
);
},
{
closed = 1;
nodes = (
(910,1016,o),
(917,1002,qs),
(923,987,o),
(946,970,o),
(965,970,qs),
(984,970,o),
(1007,987,o),
(1014,1002,qs),
(1020,1016,o),
(1024,1055,o),
(1024,1078,qs),
(1024,1266,ls),
(1024,1288,o),
(1019,1328,o),
(1013,1343,qs),
(1006,1357,o),
(983,1374,o),
(964,1374,qs),
(946,1374,o),
(923,1357,o),
(917,1343,qs),
(911,1328,o),
(906,1288,o),
(906,1266,qs),
(906,1078,ls),
(906,1055,o)
);
},
{
closed = 1;
nodes = (
(816,806,l),
(1123,806,l),
(1123,711,l),
(816,711,l)
);
}
);
userData = {
assembly = "NPUSHB[ ]	/* 90 values pushed */
8 1 6 0 3 1 7 5 2 76 1 1 0 6 0 133 0 6 0 4 5 6 4 105 11 1 5 12 1 7 8 5 7 105 0 8 2 2 8 87 0 8 8 2 95 13 9 10 3 4 2 8 2 79 42 42 26 26 10 10 0 0 42 45 42 45 44 43 26 41 26 40 34 32 10 25 10 24 18 16 0 9 0 9 17 18 17 14 6 25
CALL[ ]	/* CallFunction */";
};
width = 1229;
}
);
note = uni2116;
unicode = 8470;
},
{
glyphname = uni2406;
lastChange = "2025-02-28 10:44:52 +0000";
layers = (
{
layerId = m01;
shapes = (
{
closed = 1;
nodes = (
(1214,180,l),
(14,180,l),
(14,0,l),
(1214,0,l)
);
},
{
closed = 1;
nodes = (
(75,339,l),
(14,339,l),
(170,821,l),
(221,821,l),
(374,339,l),
(313,339,l),
(275,463,l),
(114,463,l)
);
},
{
closed = 1;
nodes = (
(195,726,l),
(131,517,l),
(259,517,l)
);
},
{
closed = 1;
nodes = (
(736,400,o),
(715,381,qs),
(696,362,o),
(641,340,o),
(607,340,qs),
(579,340,o),
(531,357,o),
(513,371,qs),
(494,386,o),
(468,424,o),
(459,448,qs),
(450,470,o),
(441,522,o),
(441,548,qs),
(441,612,ls),
(441,638,o),
(450,689,o),
(459,712,qs),
(468,736,o),
(494,774,o),
(513,789,qs),
(531,803,o),
(578,820,o),
(607,820,qs),
(642,820,o),
(697,798,o),
(717,779,qs),
(737,759,o),
(761,704,o),
(765,671,q),
(705,671,l),
(703,691,o),
(688,728,o),
(677,742,qs),
(665,755,o),
(631,771,o),
(607,771,qs),
(586,771,o),
(554,757,o),
(542,745,qs),
(530,734,o),
(515,702,o),
(510,685,qs),
(505,667,o),
(501,630,o),
(501,613,qs),
(501,548,ls),
(501,530,o),
(505,493,o),
(510,476,qs),
(515,458,o),
(530,426,o),
(542,415,qs),
(554,402,o),
(586,389,o),
(607,389,qs),
(631,389,o),
(665,403,o),
(677,416,qs),
(688,430,o),
(703,466,o),
(705,487,q),
(765,487,l),
(760,455,o)
);
},
{
closed = 1;
nodes = (
(938,340,l),
(876,340,l),
(876,820,l),
(938,820,l),
(938,586,l),
(1125,820,l),
(1200,820,l),
(1006,587,l),
(1214,340,l),
(1137,340,l),
(966,539,l),
(938,502,l)
);
}
);
userData = {
assembly = "NPUSHB[ ]	/* 115 values pushed */
6 1 9 10 65 62 59 3 2 9 16 1 11 5 3 76 0 9 10 2 10 9 2 128 13 12 8 3 3 0 10 9 3 10 105 0 2 0 5 11 2 5 104 0 11 15 14 7 17 6 5 4 0 11 4 103 0 0 1 1 0 87 0 0 0 1 95 16 1 1 0 1 79 7 7 0 0 67 66 64 63 61 60 58 57 53 51 44 42 38 37 34 32 22 19 7 14 7 14 13 12 11 10 9 8 5 4 0 3 0 3 17 18 6 23
CALL[ ]	/* CallFunction */";
};
width = 1229;
}
);
note = uni2406;
unicode = 9222;
},
{
glyphname = uni2415;
lastChange = "2025-02-28 10:45:04 +0000";
layers = (
{
layerId = m01;
shapes = (
{
closed = 1;
nodes = (
(1214,180,l),
(14,180,l),
(14,0,l),
(1214,0,l)
);
},
{
closed = 1;
nodes = (
(485,339,l),
(424,339,l),
(580,821,l),
(631,821,l),
(784,339,l),
(723,339,l),
(685,463,l),
(524,463,l)
);
},
{
closed = 1;
nodes = (
(605,726,l),
(541,517,l),
(669,517,l)
);
},
{
closed = 1;
nodes = (
(938,340,l),
(876,340,l),
(876,820,l),
(938,820,l),
(938,586,l),
(1125,820,l),
(1200,820,l),
(1006,587,l),
(1214,340,l),
(1137,340,l),
(966,539,l),
(938,502,l)
);
},
{
closed = 1;
nodes = (
(77,699,l),
(76,340,l),
(14,340,l),
(14,820,l),
(76,820,l),
(262,462,l),
(263,820,l),
(325,820,l),
(325,340,l),
(263,340,l)
);
}
);
userData = {
assembly = "NPUSHB[ ]	/* 107 values pushed */
34 23 20 17 6 5 2 3 29 1 4 5 2 76 12 11 8 7 4 3 2 3 133 17 14 13 10 9 16 6 7 4 5 0 5 4 0 128 0 2 0 5 4 2 5 104 0 0 1 1 0 87 0 0 0 1 95 15 1 1 0 1 79 26 26 7 7 0 0 26 35 26 35 33 32 31 30 28 27 25 24 22 21 19 18 16 15 7 14 7 14 13 12 11 10 9 8 5 4 0 3 0 3 17 18 6 23
CALL[ ]	/* CallFunction */";
};
width = 1229;
}
);
note = uni2415;
unicode = 9237;
},
{
glyphname = uniFFFC;
lastChange = "2025-02-28 10:28:06 +0000";
layers = (
{
layerId = m01;
shapes = (
{
closed = 1;
nodes = (
(244,996,l),
(244,1060,l),
(70,1060,l),
(70,900,l),
(134,900,l),
(134,996,l)
);
},
{
closed = 1;
nodes = (
(1159,900,l),
(1159,1060,l),
(985,1060,l),
(985,996,l),
(1098,996,l),
(1098,900,l)
);
},
{
closed = 1;
nodes = (
(134,83,l),
(134,196,l),
(70,196,l),
(70,19,l),
(244,19,l),
(244,83,l)
);
},
{
closed = 1;
nodes = (
(1098,196,l),
(1098,83,l),
(985,83,l),
(985,19,l),
(1159,19,l),
(1159,196,l)
);
},
{
closed = 1;
nodes = (
(761,83,l),
(761,19,l),
(916,19,l),
(916,83,l)
);
},
{
closed = 1;
nodes = (
(313,83,l),
(313,19,l),
(468,19,l),
(468,83,l)
);
},
{
closed = 1;
nodes = (
(313,1060,l),
(313,996,l),
(468,996,l),
(468,1060,l)
);
},
{
closed = 1;
nodes = (
(1098,266,l),
(1159,266,l),
(1159,407,l),
(1098,407,l)
);
},
{
closed = 1;
nodes = (
(1098,689,l),
(1159,689,l),
(1159,829,l),
(1098,829,l)
);
},
{
closed = 1;
nodes = (
(537,83,l),
(537,19,l),
(693,19,l),
(693,83,l)
);
},
{
closed = 1;
nodes = (
(70,266,l),
(134,266,l),
(134,407,l),
(70,407,l)
);
},
{
closed = 1;
nodes = (
(537,1060,l),
(537,996,l),
(693,996,l),
(693,1060,l)
);
},
{
closed = 1;
nodes = (
(761,1060,l),
(761,996,l),
(916,996,l),
(916,1060,l)
);
},
{
closed = 1;
nodes = (
(70,477,l),
(134,477,l),
(134,618,l),
(70,618,l)
);
},
{
closed = 1;
nodes = (
(70,689,l),
(134,689,l),
(134,829,l),
(70,829,l)
);
},
{
closed = 1;
nodes = (
(1098,477,l),
(1159,477,l),
(1159,618,l),
(1098,618,l)
);
},
{
closed = 1;
nodes = (
(451,464,o),
(446,449,qs),
(441,434,o),
(424,408,o),
(413,399,qs),
(402,389,o),
(373,378,o),
(355,378,qs),
(337,378,o),
(308,389,o),
(296,399,qs),
(285,408,o),
(269,434,o),
(264,449,qs),
(258,464,o),
(253,496,o),
(253,511,qs),
(253,544,ls),
(253,560,o),
(258,592,o),
(263,607,qs),
(269,622,o),
(285,648,o),
(296,657,qs),
(307,667,o),
(336,678,o),
(354,678,qs),
(372,678,o),
(402,667,o),
(413,657,qs),
(424,648,o),
(440,622,o),
(446,607,qs),
(451,592,o),
(456,560,o),
(456,544,qs),
(456,511,ls),
(456,496,o)
);
},
{
closed = 1;
nodes = (
(417,578,o),
(414,589,qs),
(411,600,o),
(402,620,o),
(394,628,qs),
(387,636,o),
(367,645,o),
(354,645,qs),
(342,645,o),
(322,636,o),
(315,628,qs),
(307,620,o),
(298,600,o),
(295,589,qs),
(292,578,o),
(289,555,o),
(289,545,qs),
(289,511,ls),
(289,501,o),
(292,478,o),
(295,467,qs),
(298,456,o),
(308,435,o),
(315,428,qs),
(322,420,o),
(342,411,o),
(355,411,qs),
(368,411,o),
(388,420,o),
(395,428,qs),
(402,435,o),
(411,456,o),
(414,467,qs),
(417,478,o),
(419,501,o),
(420,511,qs),
(420,545,ls),
(419,555,o)
);
},
{
closed = 1;
nodes = (
(627,680,ls),
(645,680,o),
(681,671,o),
(694,661,qs),
(708,651,o),
(725,621,o),
(724,600,qs),
(724,588,o),
(717,569,o),
(711,561,qs),
(704,553,o),
(689,543,o),
(678,538,q),
(678,537,l),
(689,535,o),
(710,521,o),
(717,512,qs),
(724,503,o),
(732,480,o),
(732,467,qs),
(733,446,o),
(716,413,o),
(702,403,qs),
(689,392,o),
(653,380,o),
(633,380,qs),
(537,380,l),
(537,680,l)
);
},
{
closed = 1;
nodes = (
(634,412,ls),
(646,413,o),
(668,420,o),
(676,427,qs),
(684,434,o),
(694,454,o),
(694,466,qs),
(694,479,o),
(685,499,o),
(677,506,qs),
(670,512,o),
(649,520,o),
(636,520,qs),
(576,520,l),
(576,412,l)
);
},
{
closed = 1;
nodes = (
(640,552,o),
(660,559,o),
(668,565,qs),
(676,571,o),
(686,589,o),
(686,600,qs),
(686,613,o),
(676,631,o),
(668,636,qs),
(660,642,o),
(639,647,o),
(628,647,qs),
(576,647,l),
(576,552,l),
(629,552,ls)
);
},
{
closed = 1;
nodes = (
(990,474,ls),
(990,454,o),
(975,419,o),
(962,407,qs),
(949,394,o),
(915,380,o),
(894,380,qs),
(873,380,o),
(840,393,o),
(827,404,qs),
(815,416,o),
(799,449,o),
(798,470,q),
(836,470,l),
(836,457,o),
(845,436,o),
(853,428,qs),
(860,420,o),
(881,412,o),
(894,412,qs),
(908,412,o),
(929,422,o),
(936,430,qs),
(944,439,o),
(952,462,o),
(952,474,qs),
(952,680,l),
(990,680,l)
);
}
);
userData = {
assembly = "PUSHB[ ]	/* 6 values pushed */
138 1 43 40 1 76
MPPEM[ ]	/* MeasurePixelPerEm */
PUSHB[ ]	/* 1 value pushed */
17
LT[ ]	/* LessThan */
IF[ ]	/* If */
NPUSHB[ ]	/* 138 values pushed */
5 1 0 2 21 2 0 114 0 47 30 37 37 47 114 11 1 7 18 8 8 7 114 29 27 17 4 4 1 28 26 16 3 4 2 0 1 2 103 54 33 51 3 21 32 1 20 38 21 20 103 59 49 44 3 38 41 1 36 31 38 36 105 0 40 0 43 30 40 43 105 55 35 53 3 31 34 1 30 47 31 30 103 48 42 56 3 37 46 58 45 57 4 39 18 37 39 106 52 25 50 3 19 24 1 18 7 19 18 103 23 15 13 10 4 8 6 6 8 87 23 15 13 10 4 8 8 6 96 22 14 12 9 4 6 8 6 80
ELSE[ ]	/* Else */
MPPEM[ ]	/* MeasurePixelPerEm */
PUSHB[ ]	/* 1 value pushed */
20
LT[ ]	/* LessThan */
IF[ ]	/* If */
NPUSHB[ ]	/* 139 values pushed */
5 1 0 2 21 2 0 114 0 47 30 37 37 47 114 11 1 7 18 8 18 7 8 128 29 27 17 4 4 1 28 26 16 3 4 2 0 1 2 103 54 33 51 3 21 32 1 20 38 21 20 103 59 49 44 3 38 41 1 36 31 38 36 105 0 40 0 43 30 40 43 105 55 35 53 3 31 34 1 30 47 31 30 103 48 42 56 3 37 46 58 45 57 4 39 18 37 39 106 52 25 50 3 19 24 1 18 7 19 18 103 23 15 13 10 4 8 6 6 8 87 23 15 13 10 4 8 8 6 96 22 14 12 9 4 6 8 6 80
ELSE[ ]	/* Else */
MPPEM[ ]	/* MeasurePixelPerEm */
PUSHB[ ]	/* 1 value pushed */
34
LT[ ]	/* LessThan */
IF[ ]	/* If */
NPUSHB[ ]	/* 140 values pushed */
5 1 0 2 21 2 0 21 128 0 47 30 37 37 47 114 11 1 7 18 8 18 7 8 128 29 27 17 4 4 1 28 26 16 3 4 2 0 1 2 103 54 33 51 3 21 32 1 20 38 21 20 103 59 49 44 3 38 41 1 36 31 38 36 105 0 40 0 43 30 40 43 105 55 35 53 3 31 34 1 30 47 31 30 103 48 42 56 3 37 46 58 45 57 4 39 18 37 39 106 52 25 50 3 19 24 1 18 7 19 18 103 23 15 13 10 4 8 6 6 8 87 23 15 13 10 4 8 8 6 96 22 14 12 9 4 6 8 6 80
ELSE[ ]	/* Else */
NPUSHB[ ]	/* 141 values pushed */
5 1 0 2 21 2 0 21 128 0 47 30 37 30 47 37 128 11 1 7 18 8 18 7 8 128 29 27 17 4 4 1 28 26 16 3 4 2 0 1 2 103 54 33 51 3 21 32 1 20 38 21 20 103 59 49 44 3 38 41 1 36 31 38 36 105 0 40 0 43 30 40 43 105 55 35 53 3 31 34 1 30 47 31 30 103 48 42 56 3 37 46 58 45 57 4 39 18 37 39 106 52 25 50 3 19 24 1 18 7 19 18 103 23 15 13 10 4 8 6 6 8 87 23 15 13 10 4 8 8 6 96 22 14 12 9 4 6 8 6 80
EIF[ ]	/* EndIf */
EIF[ ]	/* EndIf */
EIF[ ]	/* EndIf */
NPUSHB[ ]	/* 134 values pushed */
148 148 127 127 88 88 72 72 68 68 64 64 60 60 48 48 40 40 36 36 148 166 148 166 164 161 159 158 154 151 127 147 127 146 130 128 126 124 118 116 115 113 106 104 88 103 88 102 96 94 72 87 72 86 80 78 68 71 68 71 70 69 64 67 64 67 66 65 60 63 60 63 62 61 59 58 57 56 55 54 53 52 48 51 48 51 50 49 47 46 45 44 40 43 40 43 42 41 36 39 36 39 38 37 35 34 33 32 31 30 29 28 27 26 25 24 23 22 21 20 19 18 17 17 17 17 17 17 17 17 16 60 6 31
CALL[ ]	/* CallFunction */";
};
width = 1229;
}
);
note = uniFFFC;
unicode = 65532;
},
{
glyphname = uniFFFD;
lastChange = "2025-02-28 10:24:14 +0000";
layers = (
{
layerId = m01;
shapes = (
{
closed = 1;
nodes = (
(1187,485,o),
(1187,546,qs),
(1187,605,o),
(1133,659,qs),
(729,1071,ls),
(674,1126,o),
(614,1127,qs),
(558,1127,o),
(499,1071,q),
(97,659,ls),
(42,602,o),
(42,546,qs),
(42,488,o),
(97,431,qs),
(499,20,ls),
(552,-34,o),
(614,-35,qs),
(674,-35,o),
(729,20,qs),
(1133,431,ls)
);
},
{
closed = 1;
nodes = (
(560,374,o),
(565,427,o),
(574,447,qs),
(583,468,o),
(617,505,o),
(645,531,qs),
(664,551,o),
(704,592,o),
(721,615,qs),
(737,637,o),
(758,688,o),
(758,716,qs),
(758,745,o),
(742,791,o),
(726,806,qs),
(709,824,o),
(656,842,o),
(622,842,qs),
(596,842,o),
(546,829,o),
(527,815,qs),
(507,801,o),
(484,759,o),
(484,730,q),
(380,730,l),
(380,777,o),
(419,852,o),
(451,879,qs),
(483,904,o),
(571,932,o),
(622,932,qs),
(679,932,o),
(768,903,o),
(799,876,qs),
(830,848,o),
(862,770,o),
(862,719,qs),
(862,679,o),
(834,608,o),
(812,576,qs),
(790,544,o),
(736,489,o),
(710,466,qs),
(693,450,o),
(674,420,o),
(670,405,qs),
(665,390,o),
(663,356,o),
(663,334,q),
(559,334,l)
);
},
{
closed = 1;
nodes = (
(673,216,l),
(673,104,l),
(561,104,l),
(561,216,l)
);
}
);
userData = {
assembly = "NPUSHB[ ]	/* 72 values pushed */
0 4 2 3 2 4 3 128 0 3 5 2 3 5 126 0 1 0 2 4 1 2 105 8 1 5 0 6 7 5 6 104 9 1 7 0 0 7 87 9 1 7 7 0 97 0 0 7 0 81 47 47 20 20 47 50 47 50 49 48 20 46 20 46 34 18 47 40 33 10 6 27
CALL[ ]	/* CallFunction */";
};
width = 1229;
}
);
note = uniFFFD;
unicode = 65533;
},
{
glyphname = Euro;
lastChange = "2025-02-28 13:15:08 +0000";
layers = (
{
layerId = m01;
shapes = (
{
closed = 1;
nodes = (
(464,438,o),
(473,402,qs),
(500,301,o),
(527,248,o),
(559,211,qs),
(591,173,o),
(677,130,o),
(735,130,qs),
(798,130,o),
(890,176,o),
(922,218,qs),
(954,259,o),
(977,302,o),
(1000,368,q),
(1159,368,l),
(1134,273,o),
(1081,168,o),
(1027,108,qs),
(973,47,o),
(825,-20,o),
(735,-20,qs),
(657,-20,o),
(531,31,o),
(481,76,qs),
(431,121,o),
(360,243,o),
(337,315,qs),
(312,387,o),
(300,466,q),
(54,466,l),
(94,626,l),
(288,626,l),
(288,831,l),
(54,831,l),
(94,991,l),
(300,991,l),
(315,1075,o),
(337,1140,qs),
(374,1251,o),
(431,1335,o),
(481,1380,qs),
(531,1425,o),
(656,1476,o),
(735,1476,qs),
(829,1476,o),
(977,1409,o),
(1031,1348,qs),
(1084,1286,o),
(1134,1184,o),
(1159,1080,q),
(1000,1080,l),
(981,1146,o),
(954,1190,o),
(922,1233,qs),
(890,1276,o),
(798,1325,o),
(735,1325,qs),
(678,1325,o),
(591,1282,o),
(560,1245,qs),
(528,1208,o),
(486,1110,o),
(473,1055,qs),
(465,1023,o),
(460,991,q),
(934,991,l),
(894,831,l),
(449,831,l),
(449,626,l),
(934,626,l),
(894,466,l),
(461,466,l)
);
}
);
userData = {
assembly = "MPPEM[ ]	/* MeasurePixelPerEm */
PUSHB[ ]	/* 1 value pushed */
32
LT[ ]	/* LessThan */
IF[ ]	/* If */
NPUSHB[ ]	/* 60 values pushed */
0 9 10 7 10 9 7 128 0 2 0 1 0 2 1 128 14 13 2 5 4 1 0 2 5 0 103 0 10 10 8 97 0 8 8 32 77 12 1 6 6 7 95 11 1 7 7 33 77 0 1 1 3 97 0 3 3 31 3 78
ELSE[ ]	/* Else */
MPPEM[ ]	/* MeasurePixelPerEm */
PUSHB[ ]	/* 1 value pushed */
38
LT[ ]	/* LessThan */
IF[ ]	/* If */
NPUSHB[ ]	/* 58 values pushed */
0 9 10 7 10 9 7 128 0 2 0 1 0 2 1 128 0 8 0 10 9 8 10 105 14 13 2 5 4 1 0 2 5 0 103 12 1 6 6 7 95 11 1 7 7 33 77 0 1 1 3 97 0 3 3 31 3 78
ELSE[ ]	/* Else */
NPUSHB[ ]	/* 56 values pushed */
0 9 10 7 10 9 7 128 0 2 0 1 0 2 1 128 0 8 0 10 9 8 10 105 11 1 7 12 1 6 5 7 6 103 14 13 2 5 4 1 0 2 5 0 103 0 1 1 3 97 0 3 3 31 3 78
EIF[ ]	/* EndIf */
EIF[ ]	/* EndIf */
NPUSHB[ ]	/* 26 values pushed */
0 0 0 51 0 51 45 44 43 42 40 38 36 35 34 17 21 17 21 34 18 34 17 15 8 31
CALL[ ]	/* CallFunction */";
};
width = 1229;
}
);
note = Euro;
unicode = 8364;
},
{
glyphname = cent;
lastChange = "2025-02-27 19:16:30 +0000";
layers = (
{
layerId = m01;
shapes = (
{
closed = 1;
nodes = (
(784,162,o),
(821,191,qs),
(858,219,o),
(903,296,o),
(904,341,q),
(1079,341,l),
(1078,277,o),
(1020,160,o),
(971,113,qs),
(922,65,o),
(791,-1,o),
(718,-13,q),
(718,-245,l),
(533,-245,l),
(533,-10,l),
(437,8,o),
(292,107,o),
(244,178,qs),
(196,249,o),
(147,425,o),
(147,520,qs),
(147,562,ls),
(147,657,o),
(196,832,o),
(244,904,qs),
(292,975,o),
(437,1074,o),
(533,1092,q),
(533,1318,l),
(718,1318,l),
(718,1096,l),
(798,1084,o),
(930,1015,o),
(978,964,qs),
(1026,913,o),
(1079,783,o),
(1079,710,q),
(904,710,l),
(903,759,o),
(862,846,o),
(827,879,qs),
(792,912,o),
(695,950,o),
(639,950,qs),
(553,950,o),
(436,881,o),
(400,826,qs),
(364,770,o),
(333,632,o),
(333,562,qs),
(333,520,ls),
(333,449,o),
(364,310,o),
(400,255,qs),
(435,199,o),
(552,130,o),
(639,130,qs),
(689,130,o)
);
}
);
userData = {
assembly = "NPUSHB[ ]	/* 12 values pushed */
17 14 2 3 1 7 4 2 0 4 2 76
MPPEM[ ]	/* MeasurePixelPerEm */
PUSHB[ ]	/* 1 value pushed */
32
LT[ ]	/* LessThan */
IF[ ]	/* If */
NPUSHB[ ]	/* 37 values pushed */
0 2 3 5 3 2 5 128 6 1 5 4 3 5 4 126 0 3 3 1 95 0 1 1 30 77 0 4 4 0 95 0 0 0 35 0 78
ELSE[ ]	/* Else */
MPPEM[ ]	/* MeasurePixelPerEm */
PUSHB[ ]	/* 1 value pushed */
39
LT[ ]	/* LessThan */
IF[ ]	/* If */
NPUSHB[ ]	/* 34 values pushed */
0 2 3 5 3 2 5 128 6 1 5 4 3 5 4 126 0 4 0 0 4 0 99 0 3 3 1 95 0 1 1 30 3 78
ELSE[ ]	/* Else */
NPUSHB[ ]	/* 40 values pushed */
0 2 3 5 3 2 5 128 6 1 5 4 3 5 4 126 0 1 0 3 2 1 3 105 0 4 0 0 4 89 0 4 4 0 95 0 0 4 0 79
EIF[ ]	/* EndIf */
EIF[ ]	/* EndIf */
NPUSHB[ ]	/* 14 values pushed */
0 0 0 39 0 39 54 35 21 25 21 7 8 27
CALL[ ]	/* CallFunction */";
};
width = 1229;
}
);
note = cent;
unicode = 162;
},
{
glyphname = colonmonetary;
lastChange = "2025-02-28 18:47:06 +0000";
layers = (
{
layerId = m01;
shapes = (
{
closed = 1;
nodes = (
(395,-172,l),
(235,-172,l),
(332,119,l),
(308,146,o),
(251,243,o),
(228,315,qs),
(203,387,o),
(180,545,o),
(179,626,qs),
(179,829,ls),
(180,910,o),
(203,1068,o),
(228,1140,qs),
(251,1212,o),
(322,1335,o),
(372,1380,qs),
(422,1425,o),
(547,1476,o),
(626,1476,qs),
(708,1477,o),
(776,1450,q),
(835,1628,l),
(995,1628,l),
(907,1363,l),
(922,1348,l),
(975,1286,o),
(1025,1184,o),
(1050,1080,q),
(891,1080,l),
(872,1149,o),
(848,1185,q),
(506,161,l),
(561,124,o),
(626,130,qs),
(689,130,o),
(781,176,o),
(813,218,qs),
(845,259,o),
(868,302,o),
(891,368,q),
(1050,368,l),
(1025,273,o),
(972,168,o),
(918,108,qs),
(864,47,o),
(716,-20,o),
(626,-20,qs),
(538,-21,o),
(459,20,q)
);
},
{
closed = 1;
nodes = (
(727,1304,l),
(682,1334,o),
(626,1325,qs),
(548,1314,o),
(482,1282,o),
(451,1245,qs),
(419,1208,o),
(377,1110,o),
(364,1055,qs),
(351,1000,o),
(340,885,o),
(340,831,qs),
(340,626,ls),
(340,572,o),
(351,457,o),
(364,402,qs),
(374,352,o),
(394,304,q)
);
}
);
userData = {
assembly = "NPUSHB[ ]	/* 20 values pushed */
52 49 2 0 5 15 1 2 7 33 17 2 1 2 30 1 3 1 4 76
MPPEM[ ]	/* MeasurePixelPerEm */
PUSHB[ ]	/* 1 value pushed */
32
LT[ ]	/* LessThan */
IF[ ]	/* If */
NPUSHB[ ]	/* 43 values pushed */
0 2 7 1 7 2 1 128 0 4 3 4 134 0 6 8 1 7 2 6 7 103 0 0 0 5 97 0 5 5 32 77 0 1 1 3 97 0 3 3 31 3 78
ELSE[ ]	/* Else */
NPUSHB[ ]	/* 41 values pushed */
0 2 7 1 7 2 1 128 0 4 3 4 134 0 5 0 0 7 5 0 105 0 6 8 1 7 2 6 7 103 0 1 1 3 97 0 3 3 31 3 78
EIF[ ]	/* EndIf */
NPUSHB[ ]	/* 16 values pushed */
16 16 16 54 16 54 18 46 20 34 18 47 33 9 8 29
CALL[ ]	/* CallFunction */";
};
width = 1229;
}
);
note = colonmonetary;
unicode = 8353;
},
{
glyphname = currency;
lastChange = "2025-02-27 19:51:09 +0000";
layers = (
{
layerId = m01;
shapes = (
{
closed = 1;
nodes = (
(719,-20,o),
(634,-20,qs),
(549,-20,o),
(400,34,o),
(338,82,q),
(234,-26,l),
(103,109,l),
(215,224,l),
(177,287,o),
(137,434,o),
(137,515,qs),
(137,601,o),
(181,755,o),
(223,820,q),
(103,944,l),
(234,1079,l),
(351,957,l),
(411,1001,o),
(554,1049,o),
(634,1049,qs),
(714,1049,o),
(858,1000,o),
(918,955,q),
(1038,1080,l),
(1170,944,l),
(1046,816,l),
(1086,752,o),
(1130,600,o),
(1130,515,qs),
(1130,435,o),
(1090,290,o),
(1054,228,q),
(1170,109,l),
(1038,-27,l),
(931,84,l),
(869,34,o)
);
},
{
closed = 1;
nodes = (
(359,309,o),
(403,260,qs),
(446,210,o),
(565,151,o),
(634,151,qs),
(703,151,o),
(821,210,o),
(865,260,qs),
(908,309,o),
(957,441,o),
(957,515,qs),
(957,589,o),
(908,721,o),
(865,771,qs),
(821,820,o),
(703,878,o),
(634,878,qs),
(565,878,o),
(446,820,o),
(403,771,qs),
(359,721,o),
(309,589,o),
(309,515,qs),
(309,441,o)
);
}
);
userData = {
assembly = "NPUSHB[ ]	/* 70 values pushed */
13 11 7 5 4 2 0 18 14 4 3 3 2 28 26 21 19 4 1 3 3 76 12 6 2 0 74 27 20 2 1 73 0 0 0 2 3 0 2 105 4 1 3 1 1 3 89 4 1 3 3 1 97 0 1 3 1 81 29 29 29 44 29 43 42 60 40 5 8 25
CALL[ ]	/* CallFunction */";
};
width = 1229;
}
);
note = currency;
unicode = 164;
},
{
glyphname = dollar;
lastChange = "2025-02-27 19:15:28 +0000";
layers = (
{
layerId = m01;
shapes = (
{
closed = 1;
nodes = (
(474,162,o),
(424,201,qs),
(384,234,o),
(334,345,o),
(334,429,q),
(149,429,l),
(149,316,o),
(215,154,o),
(270,101,qs),
(325,47,o),
(468,-9,o),
(546,-17,q),
(546,-208,l),
(712,-208,l),
(712,-16,l),
(799,-7,o),
(925,53,o),
(975,103,qs),
(1025,152,o),
(1080,290,o),
(1080,377,qs),
(1080,466,o),
(1025,600,o),
(973,651,qs),
(921,702,o),
(776,777,o),
(712,800,q),
(712,1306,l),
(775,1286,o),
(819,1229,qs),
(850,1188,o),
(883,1075,o),
(883,1008,q),
(1067,1008,l),
(1066,1123,o),
(1006,1300,o),
(949,1360,qs),
(905,1405,o),
(785,1462,o),
(712,1472,q),
(712,1692,l),
(546,1692,l),
(546,1472,l),
(465,1462,o),
(349,1400,o),
(303,1350,qs),
(256,1299,o),
(205,1163,o),
(205,1079,qs),
(205,990,o),
(263,854,o),
(317,802,qs),
(370,749,o),
(508,680,o),
(546,666,q),
(546,148,l)
);
},
{
closed = 1;
nodes = (
(546,865,l),
(494,892,o),
(457,922,qs),
(422,954,o),
(390,1032,o),
(390,1082,qs),
(390,1133,o),
(419,1216,o),
(447,1246,qs),
(486,1289,o),
(546,1306,q)
);
},
{
closed = 1;
nodes = (
(712,603,l),
(784,570,o),
(829,530,qs),
(863,497,o),
(894,420,o),
(894,375,qs),
(894,320,o),
(855,233,o),
(819,203,qs),
(776,169,o),
(712,153,q)
);
}
);
userData = {
assembly = "NPUSHB[ ]	/* 13 values pushed */
55 1 1 8 45 22 9 8 4 6 11 2 76
MPPEM[ ]	/* MeasurePixelPerEm */
PUSHB[ ]	/* 1 value pushed */
13
LT[ ]	/* LessThan */
IF[ ]	/* If */
NPUSHB[ ]	/* 48 values pushed */
12 1 11 1 6 1 11 114 0 6 0 1 6 0 126 10 1 8 2 1 1 11 8 1 105 7 1 0 0 3 97 5 1 3 3 31 77 0 4 4 9 95 0 9 9 30 4 78
ELSE[ ]	/* Else */
MPPEM[ ]	/* MeasurePixelPerEm */
PUSHB[ ]	/* 1 value pushed */
28
LT[ ]	/* LessThan */
IF[ ]	/* If */
NPUSHB[ ]	/* 49 values pushed */
12 1 11 1 6 1 11 6 128 0 6 0 1 6 0 126 10 1 8 2 1 1 11 8 1 105 7 1 0 0 3 97 5 1 3 3 31 77 0 4 4 9 95 0 9 9 30 4 78
ELSE[ ]	/* Else */
NPUSHB[ ]	/* 46 values pushed */
12 1 11 1 6 1 11 6 128 0 6 0 1 6 0 126 10 1 8 2 1 1 11 8 1 105 0 9 0 4 9 4 99 7 1 0 0 3 97 5 1 3 3 31 3 78
EIF[ ]	/* EndIf */
EIF[ ]	/* EndIf */
NPUSHB[ ]	/* 22 values pushed */
17 17 17 62 17 62 59 58 57 56 40 19 19 17 17 26 25 25 16 13 8 31
CALL[ ]	/* CallFunction */";
};
width = 1229;
}
);
note = dollar;
unicode = 36;
},
{
glyphname = lira;
lastChange = "2025-02-28 11:01:11 +0000";
layers = (
{
layerId = m01;
shapes = (
{
closed = 1;
nodes = (
(455,400,ls),
(455,363,o),
(447,288,o),
(438,254,qs),
(431,225,o),
(409,173,o),
(395,151,q),
(1133,151,l),
(1132,0,l),
(102,0,l),
(102,151,l),
(177,151,l),
(204,158,o),
(240,214,o),
(251,251,qs),
(262,287,o),
(271,368,o),
(271,400,qs),
(268,471,l),
(96,471,l),
(96,593,l),
(264,593,l),
(259,731,l),
(96,731,l),
(96,854,l),
(255,854,l),
(249,1039,ls),
(249,1141,o),
(315,1303,o),
(375,1360,qs),
(434,1416,o),
(597,1476,o),
(693,1476,qs),
(789,1476,o),
(941,1420,o),
(994,1369,qs),
(1046,1318,o),
(1102,1176,o),
(1102,1089,q),
(917,1089,l),
(917,1152,o),
(877,1241,o),
(844,1270,qs),
(810,1298,o),
(723,1325,o),
(675,1325,qs),
(624,1325,o),
(535,1286,o),
(503,1250,qs),
(471,1213,o),
(434,1106,o),
(434,1039,qs),
(440,854,l),
(793,854,l),
(793,731,l),
(444,731,l),
(448,593,l),
(793,593,l),
(793,471,l),
(452,471,l)
);
},
{
closed = 0;
nodes = (
(1409,585,l)
);
}
);
userData = {
assembly = "NPUSHB[ ]	/* 10 values pushed */
11 1 2 1 12 1 8 2 2 76
MPPEM[ ]	/* MeasurePixelPerEm */
PUSHB[ ]	/* 1 value pushed */
38
LT[ ]	/* LessThan */
IF[ ]	/* If */
NPUSHB[ ]	/* 43 values pushed */
10 1 6 0 5 0 6 5 103 0 2 2 1 97 0 1 1 32 77 0 7 7 8 95 11 1 8 8 33 77 3 1 0 0 4 95 9 1 4 4 31 4 78
ELSE[ ]	/* Else */
NPUSHB[ ]	/* 41 values pushed */
11 1 8 0 7 6 8 7 103 10 1 6 0 5 0 6 5 103 0 2 2 1 97 0 1 1 32 77 3 1 0 0 4 95 9 1 4 4 31 4 78
EIF[ ]	/* EndIf */
NPUSHB[ ]	/* 29 values pushed */
29 29 25 25 0 0 29 32 29 32 31 30 25 28 25 28 27 26 0 24 0 24 21 37 53 17 12 8 26
CALL[ ]	/* CallFunction */";
};
width = 1229;
}
);
note = lira;
unicode = 8356;
},
{
glyphname = sterling;
lastChange = "2025-02-28 11:00:48 +0000";
layers = (
{
layerId = m01;
shapes = (
{
closed = 1;
nodes = (
(455,358,o),
(444,275,o),
(433,238,qs),
(426,214,o),
(407,170,o),
(394,151,q),
(1132,151,l),
(1131,0,l),
(101,0,l),
(101,151,l),
(176,151,l),
(203,158,o),
(240,214,o),
(251,251,qs),
(262,287,o),
(270,368,o),
(270,400,qs),
(262,626,l),
(97,626,l),
(97,778,l),
(257,778,l),
(248,1039,l),
(248,1141,o),
(315,1303,o),
(374,1360,qs),
(433,1416,o),
(597,1476,o),
(693,1476,qs),
(789,1476,o),
(941,1420,o),
(994,1369,qs),
(1046,1318,o),
(1102,1169,o),
(1102,1082,q),
(916,1082,l),
(916,1145,o),
(877,1241,o),
(844,1270,qs),
(810,1298,o),
(723,1325,o),
(675,1325,qs),
(624,1325,o),
(535,1286,o),
(503,1250,qs),
(471,1213,o),
(434,1106,o),
(434,1039,qs),
(442,778,l),
(762,778,l),
(762,626,l),
(447,626,l),
(455,400,ls)
);
},
{
closed = 0;
nodes = (
(1357,506,l)
);
}
);
userData = {
assembly = "NPUSHB[ ]	/* 60 values pushed */
14 1 4 3 15 1 2 4 2 76 5 1 2 6 1 1 0 2 1 103 0 4 4 3 97 0 3 3 32 77 7 1 0 0 8 95 9 1 8 8 31 8 78 0 0 0 31 0 31 17 17 21 37 52 17 17 17 10 8 30
CALL[ ]	/* CallFunction */";
};
width = 1229;
}
);
note = sterling;
unicode = 163;
},
{
glyphname = uni20A2;
lastChange = "2025-02-28 11:03:15 +0000";
layers = (
{
layerId = m01;
shapes = (
{
closed = 1;
nodes = (
(698,138,o),
(781,176,o),
(813,218,qs),
(845,259,o),
(868,302,o),
(891,368,q),
(1050,368,l),
(1025,273,o),
(972,168,o),
(918,108,qs),
(864,47,o),
(716,-20,o),
(626,-20,qs),
(548,-20,o),
(422,31,o),
(372,76,qs),
(322,121,o),
(251,243,o),
(228,315,qs),
(203,387,o),
(180,545,o),
(179,626,qs),
(179,829,ls),
(180,910,o),
(203,1068,o),
(228,1140,qs),
(251,1212,o),
(322,1335,o),
(372,1380,qs),
(422,1425,o),
(547,1476,o),
(626,1476,qs),
(720,1476,o),
(868,1409,o),
(922,1348,qs),
(975,1286,o),
(1025,1184,o),
(1050,1080,q),
(891,1080,l),
(872,1146,o),
(845,1190,o),
(813,1233,qs),
(781,1276,o),
(689,1325,o),
(626,1325,qs),
(569,1325,o),
(482,1282,o),
(451,1245,qs),
(419,1208,o),
(377,1110,o),
(364,1055,qs),
(351,1000,o),
(340,885,o),
(340,831,qs),
(340,626,ls),
(340,572,o),
(351,457,o),
(364,402,qs),
(377,346,o),
(418,248,o),
(450,211,qs),
(492,164,o),
(545,145,q),
(545,769,l),
(664,769,l),
(664,658,l),
(707,715,o),
(828,784,o),
(903,782,qs),
(954,780,o),
(1038,685,o),
(1050,590,q),
(952,590,l),
(942,661,o),
(878,663,qs),
(834,664,o),
(763,642,o),
(736,621,qs),
(712,603,o),
(677,550,o),
(665,518,q),
(665,134,l)
);
}
);
userData = {
assembly = "NPUSHB[ ]	/* 11 values pushed */
18 1 6 4 40 37 2 7 6 2 76
MPPEM[ ]	/* MeasurePixelPerEm */
PUSHB[ ]	/* 1 value pushed */
14
LT[ ]	/* LessThan */
IF[ ]	/* If */
NPUSHB[ ]	/* 53 values pushed */
0 4 5 6 5 4 6 128 0 1 7 0 7 1 0 128 0 8 0 2 2 8 114 9 1 6 0 7 1 6 7 103 0 5 5 3 97 0 3 3 32 77 0 0 0 2 97 0 2 2 31 2 78
ELSE[ ]	/* Else */
MPPEM[ ]	/* MeasurePixelPerEm */
PUSHB[ ]	/* 1 value pushed */
32
LT[ ]	/* LessThan */
IF[ ]	/* If */
NPUSHB[ ]	/* 54 values pushed */
0 4 5 6 5 4 6 128 0 1 7 0 7 1 0 128 0 8 0 2 0 8 2 128 9 1 6 0 7 1 6 7 103 0 5 5 3 97 0 3 3 32 77 0 0 0 2 97 0 2 2 31 2 78
ELSE[ ]	/* Else */
NPUSHB[ ]	/* 52 values pushed */
0 4 5 6 5 4 6 128 0 1 7 0 7 1 0 128 0 8 0 2 0 8 2 128 0 3 0 5 4 3 5 105 9 1 6 0 7 1 6 7 103 0 0 0 2 97 0 2 2 31 2 78
EIF[ ]	/* EndIf */
EIF[ ]	/* EndIf */
NPUSHB[ ]	/* 14 values pushed */
62 61 25 35 44 34 18 44 34 18 33 10 8 31
CALL[ ]	/* CallFunction */";
};
width = 1229;
}
);
note = uni20A2;
unicode = 8354;
},
{
glyphname = uni20A5;
lastChange = "2025-02-28 11:46:14 +0000";
layers = (
{
layerId = m01;
shapes = (
{
closed = 1;
nodes = (
(977,1290,l),
(1137,1290,l),
(1031,1067,l),
(1067,1037,l),
(1117,995,o),
(1137,886,o),
(1137,808,qs),
(1137,0,l),
(961,0,l),
(961,810,ls),
(961,858,o),
(947,889,q),
(702,374,l),
(702,0,l),
(526,0,l),
(428,-207,l),
(268,-207,l),
(526,340,l),
(526,811,ls),
(526,845,o),
(511,897,o),
(495,914,qs),
(480,930,o),
(435,945,o),
(405,945,qs),
(372,945,o),
(323,930,o),
(306,916,qs),
(293,905,o),
(274,877,o),
(268,861,q),
(268,0,l),
(92,0,l),
(92,1082,l),
(263,1082,l),
(263,980,l),
(296,1037,o),
(403,1101,o),
(479,1102,qs),
(522,1102,o),
(591,1083,o),
(617,1065,qs),
(636,1051,o),
(667,1011,o),
(678,986,q),
(692,1009,o),
(730,1049,o),
(752,1064,qs),
(780,1081,o),
(849,1100,o),
(888,1102,q)
);
},
{
closed = 1;
nodes = (
(800,944,o),
(755,927,o),
(739,912,qs),
(723,896,o),
(705,855,o),
(702,830,qs),
(702,825,o),
(702,816,o),
(702,810,qs),
(702,711,l),
(814,945,l)
);
}
);
userData = {
assembly = "NPUSHB[ ]	/* 16 values pushed */
19 16 10 2 4 7 0 50 31 25 24 4 4 7 2 76
MPPEM[ ]	/* MeasurePixelPerEm */
PUSHB[ ]	/* 1 value pushed */
11
LT[ ]	/* LessThan */
IF[ ]	/* If */
NPUSHB[ ]	/* 39 values pushed */
0 6 4 4 6 113 0 3 3 4 95 8 5 2 4 4 31 77 9 1 7 7 0 97 2 1 2 0 0 33 77 8 5 2 4 4 31 4 78
ELSE[ ]	/* Else */
MPPEM[ ]	/* MeasurePixelPerEm */
PUSHB[ ]	/* 1 value pushed */
38
LT[ ]	/* LessThan */
IF[ ]	/* If */
NPUSHB[ ]	/* 38 values pushed */
0 6 4 6 134 0 3 3 4 95 8 5 2 4 4 31 77 9 1 7 7 0 97 2 1 2 0 0 33 77 8 5 2 4 4 31 4 78
ELSE[ ]	/* Else */
MPPEM[ ]	/* MeasurePixelPerEm */
PUSHB[ ]	/* 1 value pushed */
47
LT[ ]	/* LessThan */
IF[ ]	/* If */
NPUSHB[ ]	/* 39 values pushed */
0 6 4 6 134 9 1 7 4 0 7 89 0 3 3 4 95 8 5 2 4 4 31 77 2 1 2 0 0 4 95 8 5 2 4 4 31 4 78
ELSE[ ]	/* Else */
NPUSHB[ ]	/* 44 values pushed */
0 6 4 6 134 0 2 0 7 2 89 9 1 7 4 0 7 89 0 3 3 4 95 8 5 2 4 4 31 77 1 1 0 0 4 95 8 5 2 4 4 31 4 78
EIF[ ]	/* EndIf */
EIF[ ]	/* EndIf */
EIF[ ]	/* EndIf */
NPUSHB[ ]	/* 14 values pushed */
46 44 20 37 18 19 20 18 38 36 16 10 8 31
CALL[ ]	/* CallFunction */";
};
width = 1229;
}
);
note = uni20A5;
unicode = 8357;
},
{
glyphname = uni20A6;
lastChange = "2025-02-28 15:05:08 +0000";
layers = (
{
layerId = m01;
shapes = (
{
closed = 1;
nodes = (
(839,370,l),
(723,648,l),
(840,648,l)
);
},
{
closed = 1;
nodes = (
(1164,648,l),
(1164,808,l),
(991,808,l),
(991,1456,l),
(842,1456,l),
(840,808,l),
(656,808,l),
(387,1456,l),
(237,1456,l),
(237,808,l),
(64,808,l),
(64,648,l),
(237,648,l),
(237,0,l),
(387,0,l),
(388,648,l),
(571,648,l),
(841,0,l),
(991,0,l),
(991,648,l)
);
},
{
closed = 1;
nodes = (
(388,808,l),
(389,1088,l),
(505,808,l)
);
}
);
userData = {
assembly = "NPUSHB[ ]	/* 10 values pushed */
21 1 1 2 23 1 7 0 2 76
MPPEM[ ]	/* MeasurePixelPerEm */
PUSHB[ ]	/* 1 value pushed */
39
LT[ ]	/* LessThan */
IF[ ]	/* If */
NPUSHB[ ]	/* 29 values pushed */
13 10 5 3 4 1 11 8 6 3 0 7 1 0 104 4 1 2 2 30 77 12 9 2 7 7 31 7 78
ELSE[ ]	/* Else */
NPUSHB[ ]	/* 29 values pushed */
4 1 2 1 2 133 13 10 5 3 4 1 11 8 6 3 0 7 1 0 104 12 9 2 7 7 31 7 78
EIF[ ]	/* EndIf */
NPUSHB[ ]	/* 26 values pushed */
20 20 0 0 25 24 20 22 20 22 0 19 0 19 17 17 17 17 17 17 17 17 17 14 8 31
CALL[ ]	/* CallFunction */";
};
width = 1229;
}
);
note = uni20A6;
unicode = 8358;
},
{
glyphname = uni20A9;
lastChange = "2025-02-28 17:13:09 +0000";
layers = (
{
layerId = m01;
shapes = (
{
closed = 1;
nodes = (
(444,0,l),
(547,648,l),
(683,648,l),
(785,0,l),
(956,0,l),
(1027,648,l),
(1164,648,l),
(1164,808,l),
(1045,808,l),
(1116,1456,l),
(957,1456,l),
(895,808,l),
(793,808,l),
(687,1456,l),
(541,1456,l),
(436,808,l),
(334,808,l),
(271,1456,l),
(112,1456,l),
(183,808,l),
(64,808,l),
(64,648,l),
(201,648,l),
(272,0,l)
);
},
{
closed = 1;
nodes = (
(350,648,l),
(410,648,l),
(372,414,l)
);
},
{
closed = 1;
nodes = (
(819,648,l),
(879,648,l),
(857,414,l)
);
},
{
closed = 1;
nodes = (
(615,1077,l),
(657,808,l),
(572,808,l)
);
}
);
userData = {
assembly = "NPUSHB[ ]	/* 61 values pushed */
32 26 6 3 1 0 1 76 11 8 6 3 4 10 12 9 3 4 0 1 4 0 104 7 1 5 5 32 77 2 1 1 1 31 1 78 25 25 0 0 30 29 25 28 25 28 0 24 0 24 18 18 18 17 18 18 18 17 13 8 30
CALL[ ]	/* CallFunction */";
};
width = 1229;
}
);
note = uni20A9;
unicode = 8361;
},
{
glyphname = uni20AA;
lastChange = "2025-02-28 11:47:38 +0000";
layers = (
{
layerId = m01;
shapes = (
{
closed = 1;
nodes = (
(205,0,l),
(205,1251,l),
(485,1251,ls),
(533,1251,o),
(604,1216,o),
(652,1137,o),
(676,1007,o),
(676,914,qs),
(676,470,l),
(841,470,l),
(841,912,ls),
(841,1064,o),
(798,1270,o),
(719,1399,o),
(606,1456,o),
(535,1456,qs),
(41,1456,l),
(41,0,l)
);
},
{
closed = 1;
nodes = (
(951,0,o),
(1064,57,o),
(1145,184,o),
(1188,392,o),
(1188,544,qs),
(1188,1456,l),
(1024,1456,l),
(1024,541,ls),
(1024,418,o),
(980,268,o),
(895,205,o),
(833,205,qs),
(553,205,l),
(553,988,l),
(389,988,l),
(389,0,l),
(881,0,ls)
);
}
);
userData = {
assembly = "NPUSHB[ ]	/* 53 values pushed */
0 4 2 1 2 4 1 128 0 1 5 2 1 5 126 6 1 0 0 2 4 0 2 103 0 5 5 3 96 8 7 2 3 3 31 3 78 18 18 18 34 18 33 20 33 18 17 37 21 32 9 8 29
CALL[ ]	/* CallFunction */";
};
width = 1229;
}
);
note = uni20AA;
unicode = 8362;
},
{
glyphname = uni20AD;
lastChange = "2025-02-28 17:50:38 +0000";
layers = (
{
layerId = m01;
shapes = (
{
closed = 1;
nodes = (
(1102,0,l),
(905,0,l),
(483,588,l),
(400,588,l),
(400,0,l),
(241,0,l),
(241,588,l),
(56,588,l),
(56,748,l),
(241,748,l),
(241,1456,l),
(400,1456,l),
(400,748,l),
(876,1456,l),
(1065,1456,l),
(573,748,l),
(1156,748,l),
(1156,588,l),
(686,588,l)
);
}
);
userData = {
assembly = "NPUSHB[ ]	/* 44 values pushed */
6 1 1 2 15 1 6 0 2 76 4 1 1 5 1 0 6 1 0 104 3 1 2 2 32 77 7 1 6 6 31 6 78 18 17 17 17 18 17 17 16 8 8 30
CALL[ ]	/* CallFunction */";
};
width = 1229;
}
);
note = uni20AD;
unicode = 8365;
},
{
glyphname = uni20AE;
lastChange = "2025-02-28 17:51:30 +0000";
layers = (
{
layerId = m01;
shapes = (
{
closed = 1;
nodes = (
(699,373,l),
(945,500,l),
(945,672,l),
(699,545,l),
(699,717,l),
(945,844,l),
(945,1017,l),
(699,889,l),
(699,1259,l),
(1051,1259,l),
(1051,1456,l),
(178,1456,l),
(178,1259,l),
(516,1259,l),
(516,795,l),
(285,675,l),
(285,503,l),
(516,623,l),
(516,451,l),
(285,331,l),
(285,159,l),
(516,279,l),
(516,0,l),
(699,0,l)
);
}
);
userData = {
assembly = "NPUSHB[ ]	/* 21 values pushed */
22 21 20 19 18 17 16 15 8 7 6 5 4 3 2 1 16 3 0 1 76
MPPEM[ ]	/* MeasurePixelPerEm */
PUSHB[ ]	/* 1 value pushed */
47
LT[ ]	/* LessThan */
IF[ ]	/* If */
NPUSHB[ ]	/* 18 values pushed */
2 1 0 0 1 95 0 1 1 32 77 4 1 3 3 31 3 78
ELSE[ ]	/* Else */
NPUSHB[ ]	/* 16 values pushed */
0 1 2 1 0 3 1 0 103 4 1 3 3 31 3 78
EIF[ ]	/* EndIf */
NPUSHB[ ]	/* 12 values pushed */
0 0 0 23 0 23 17 17 25 5 8 25
CALL[ ]	/* CallFunction */";
};
width = 1229;
}
);
note = uni20AE;
unicode = 8366;
},
{
glyphname = uni20B1;
lastChange = "2025-02-28 19:16:12 +0000";
layers = (
{
layerId = m01;
shapes = (
{
closed = 1;
nodes = (
(378,0,l),
(378,584,l),
(630,584,ls),
(716,585,o),
(870,643,o),
(928,698,q),
(961,735,l),
(1168,735,l),
(1168,886,l),
(1037,886,l),
(1051,925,o),
(1054,1019,qs),
(1052,1105,o),
(1037,1153,q),
(1168,1153,l),
(1168,1304,l),
(961,1304,l),
(928,1341,l),
(870,1396,o),
(716,1454,o),
(630,1456,qs),
(215,1456,l),
(215,1304,l),
(61,1304,l),
(61,1153,l),
(215,1153,l),
(215,886,l),
(61,886,l),
(61,735,l),
(215,735,l),
(215,0,l)
);
},
{
closed = 1;
nodes = (
(378,1304,l),
(630,1304,ls),
(686,1303,o),
(782,1263,o),
(818,1226,qs),
(852,1189,o),
(891,1083,o),
(891,1017,qs),
(891,951,o),
(852,848,o),
(817,812,qs),
(781,776,o),
(686,737,o),
(630,736,qs),
(378,736,l)
);
}
);
userData = {
assembly = "MPPEM[ ]	/* MeasurePixelPerEm */
PUSHB[ ]	/* 1 value pushed */
22
LT[ ]	/* LessThan */
IF[ ]	/* If */
NPUSHB[ ]	/* 48 values pushed */
10 1 5 9 1 6 7 5 6 103 0 0 0 7 8 0 7 103 13 1 1 1 2 95 0 2 2 32 77 11 1 4 4 3 95 14 12 2 3 3 30 77 0 8 8 31 8 78
ELSE[ ]	/* Else */
MPPEM[ ]	/* MeasurePixelPerEm */
PUSHB[ ]	/* 1 value pushed */
26
LT[ ]	/* LessThan */
IF[ ]	/* If */
NPUSHB[ ]	/* 46 values pushed */
14 12 2 3 11 1 4 5 3 4 103 10 1 5 9 1 6 7 5 6 103 0 0 0 7 8 0 7 103 13 1 1 1 2 95 0 2 2 32 77 0 8 8 31 8 78
ELSE[ ]	/* Else */
NPUSHB[ ]	/* 44 values pushed */
0 2 13 1 1 4 2 1 103 14 12 2 3 11 1 4 5 3 4 103 10 1 5 9 1 6 7 5 6 103 0 0 0 7 8 0 7 103 0 8 8 31 8 78
EIF[ ]	/* EndIf */
EIF[ ]	/* EndIf */
NPUSHB[ ]	/* 36 values pushed */
12 12 0 0 12 42 12 42 41 40 39 38 37 36 35 34 33 31 28 27 26 25 21 20 19 18 15 13 0 11 0 10 35 15 8 23
CALL[ ]	/* CallFunction */";
};
width = 1229;
}
);
note = uni20B1;
unicode = 8369;
},
{
glyphname = uni20B2;
lastChange = "2025-02-28 18:56:06 +0000";
layers = (
{
layerId = m01;
shapes = (
{
closed = 1;
nodes = (
(762,146,o),
(788,156,qs),
(822,168,o),
(882,209,o),
(903,242,q),
(904,569,l),
(725,569,l),
(725,142,l)
);
},
{
closed = 1;
nodes = (
(565,1311,l),
(492,1295,o),
(448,1235,qs),
(414,1197,o),
(370,1096,o),
(356,1040,qs),
(342,984,o),
(329,868,o),
(329,814,qs),
(329,643,ls),
(330,588,o),
(345,471,o),
(361,415,qs),
(377,359,o),
(427,259,o),
(462,221,qs),
(501,171,o),
(565,151,q)
);
},
{
closed = 1;
nodes = (
(725,-173,l),
(565,-173,l),
(565,-11,l),
(535,-6,o),
(433,34,o),
(380,81,qs),
(327,127,o),
(247,253,o),
(221,327,qs),
(193,400,o),
(166,561,o),
(165,643,qs),
(165,812,ls),
(166,893,o),
(190,1054,o),
(214,1128,qs),
(239,1202,o),
(313,1329,o),
(366,1376,qs),
(413,1418,o),
(510,1465,o),
(565,1472,q),
(565,1627,l),
(725,1627,l),
(725,1467,l),
(753,1462,o),
(871,1413,o),
(927,1355,qs),
(984,1296,o),
(1053,1131,o),
(1061,1029,q),
(899,1029,l),
(889,1092,o),
(849,1199,o),
(816,1237,qs),
(784,1282,o),
(725,1301,q),
(725,725,l),
(1060,725,l),
(1063,191,l),
(1033,151,o),
(965,86,o),
(929,62,qs),
(874,25,o),
(774,-10,o),
(725,-15,q)
);
}
);
userData = {
assembly = "NPUSHB[ ]	/* 10 values pushed */
36 1 6 0 4 1 2 6 2 76
MPPEM[ ]	/* MeasurePixelPerEm */
PUSHB[ ]	/* 1 value pushed */
14
LT[ ]	/* LessThan */
IF[ ]	/* If */
NPUSHB[ ]	/* 50 values pushed */
0 7 3 3 7 112 0 4 5 1 5 4 1 128 9 1 8 2 2 8 113 0 1 0 0 6 1 0 103 0 5 5 3 97 0 3 3 32 77 0 6 6 2 97 0 2 2 37 2 78
ELSE[ ]	/* Else */
MPPEM[ ]	/* MeasurePixelPerEm */
PUSHB[ ]	/* 1 value pushed */
17
LT[ ]	/* LessThan */
IF[ ]	/* If */
NPUSHB[ ]	/* 49 values pushed */
0 7 3 7 133 0 4 5 1 5 4 1 128 9 1 8 2 2 8 113 0 1 0 0 6 1 0 103 0 5 5 3 97 0 3 3 32 77 0 6 6 2 97 0 2 2 37 2 78
ELSE[ ]	/* Else */
MPPEM[ ]	/* MeasurePixelPerEm */
PUSHB[ ]	/* 1 value pushed */
34
LT[ ]	/* LessThan */
IF[ ]	/* If */
NPUSHB[ ]	/* 48 values pushed */
0 7 3 7 133 0 4 5 1 5 4 1 128 9 1 8 2 8 134 0 1 0 0 6 1 0 103 0 5 5 3 97 0 3 3 32 77 0 6 6 2 97 0 2 2 37 2 78
ELSE[ ]	/* Else */
NPUSHB[ ]	/* 46 values pushed */
0 7 3 7 133 0 4 5 1 5 4 1 128 9 1 8 2 8 134 0 3 0 5 4 3 5 106 0 1 0 0 6 1 0 103 0 6 6 2 97 0 2 2 37 2 78
EIF[ ]	/* EndIf */
EIF[ ]	/* EndIf */
EIF[ ]	/* EndIf */
NPUSHB[ ]	/* 17 values pushed */
37 37 37 40 37 40 19 38 34 19 42 34 17 16 10 8 30
CALL[ ]	/* CallFunction */";
};
width = 1229;
}
);
note = uni20B2;
unicode = 8370;
},
